<svg xmlns="http://www.w3.org/2000/svg" viewBox="0 0 588.4 211.9" style="enable-background:new 0 0 588.4 211.9"><path d="M68.5 176c-.5-53.4.1-121.1 13.3-171.3.8-2.3-.2-4.7-2.8-4.7-1.9 0-2.8.9-3.4 3.2-11.6 49.9-12.9 101-13 151.9-4.2-15.9-8.6-34.9-14.4-61.2C42.8 69.3 39.8 50 35.4 11c-.4-3.4-2.2-5.2-5.2-5.2-3.2 0-5 2.2-5 6 0 7.5.8 18.9 1.9 30.4-.7 42.6-4 101.3-14.3 139.1-.7 2.4-1.7 3.9-2.4 3.9-1.5 0-2.8-3.4-5-13.4-.4-1.3-1.1-2.2-2.8-2.2s-2.8 1.5-2.4 3.9c5.4 26.3 6.5 32.9 11.4 32.9 3.4 0 5.4-2.6 6.9-8.6 8.8-34.9 11.6-81.9 13.2-122.6 6.7 40.9 16.8 82.8 26.5 113.3 1.3 4.1 3.7 5.8 6.9 5.8 5 0 7.5-3.7 5.8-10.6-.9-2.7-1.6-5.2-2.4-7.7m60.7-107.3c3.4 0 8.6-6 8.6-10.5 0-4.3-3.2-8-6.5-8-4.9 0-6 7.7-6 11.2 0 4.5 1.1 7.3 3.9 7.3m174 69.6c0-1.7-.9-3-2.6-3-1.5 0-2.4.9-2.8 2.8-1.3 8.8-2.1 11.2-3.4 11.2-2.6 0-3.4-11.8-3.4-23.3 0-8.4-.4-23-.4-42.4 0-1.7-.7-3-2.2-3-1.5 0-2.2.9-3 2.6-8.1 18.1-15.4 39.7-20.4 62.6-.4-12.1-.9-28.7-.9-40.2 0-11.4-.2-19.8-.6-24.6-.2-3-1.5-4.5-3.9-4.5-2.6 0-4.1 1.9-4.1 4.7 0 5.6 0 10.6-.4 15.1-1.3 15.9-3.4 27.8-7.8 43.3-1.3 4.5-2.8 6.9-4.3 6.9-2.4 0-3.2-11.6-3.2-24.8 0-14.4.7-27.3 1.5-36.8.2-2.2-1.1-3.2-2.8-3.2s-2.8 1.1-3.2 2.8c0 .1-.1.3-.1.4-1.5-1.2-3.2-1.9-4.8-1.9-11.8 0-20.2 18.7-22.2 49.3-.4 5.2-.9 21.8-4.3 21.8-3.7 0-5.2-23.5-5.2-39 0-9.9.6-15.1 1.1-27.6.2-4.1.4-9.9-2.1-9.9-1.7 0-3.9 3.5-6.7 10.6-5.3 13.4-8.4 25-11.6 44.8-.2-4.5-.3-9.6-.3-14.7-.2-12.9 0-21.5-1.1-34.3-.2-2.1-.7-3.4-2.2-3.4-1.1 0-2.1.4-3.4 3.2-4.9 10.4-8.9 20.8-12.5 33.1 0-4.7.2-10.5.2-11.3 0-12.1-.4-19.6-1.1-26.9-.4-3-2.1-4.7-4.3-4.7-2.6 0-4.3 1.7-5 5-3.2 14.2-14.9 74.3-22 74.3-1.1 0-1.7-2.2-1.7-6.3 0-9.9 1.1-25.9 6.7-62 .4-2.4-.7-3.4-2.4-3.4h-3.2c-3 0-5.4 2.1-6.2 5.4-1.5 6.7-2.6 18.3-4.9 36.4-2.1 17.2-12.5 38.8-18.7 38.8-3 0-4.7-2.1-6-7.3-.3-.8-.5-2.9-.7-5.9.9-1.6 1.8-3.2 2.6-4.8 9.3-17.7 14.7-35.7 14.7-48.7 0-9.5-2.6-14-8-14-12.5 0-22.2 24.1-22.2 54.9 0 7 1 13.5 2.8 19-1.7 2.4-3.4 4.9-5.4 7.5-.6.7-.9 1.7-.9 2.6 0 1.7 1.3 2.6 2.6 2.6.9 0 1.7-.2 2.6-1.5 1.1-1.5 2.4-3.3 3.6-5.3 3 5.7 7 9.2 11.5 9.2 7.1 0 16-11.8 21.1-26.6 0 4.1.2 8.7.6 14.4.7 8.6 2.6 12.1 6.5 12.1 2.6 0 6.3-3.9 9.1-9.7 6.8-13.8 11.9-31.1 19-65.2v1.7c0 23.5-2.6 48.3-6.9 70.2-.4 1.9.2 3 1.9 3h2.4c3.5 0 6-1.9 6.5-4.9 1.5-7.7 2.4-13.6 3.9-23.1 2-12.3 5.1-25.4 8.8-36.7-.1 4.4-.2 9.2-.2 14.1 0 15.3 1.5 30.6 4.3 45.5.7 3.7 2.1 5 4.3 5 2.1 0 3.5-1.5 3.9-5.2 1.3-15.6 4.3-34.7 8.2-52.9.3 17.2.3 24.8 2.1 35.9 2.4 14.4 6.2 22.2 10.5 22.2 3.3 0 5.7-4.4 8.3-16.3 1.9 9.3 6 16.3 10.2 16.3 4.5 0 9.6-8.7 12.7-15.3 1.3 7.4 4.7 14.4 7.3 14.4 2.6 0 5-3.4 7.8-11 4-11.8 6.4-19.8 8.3-29.5-.4 10.8-.1 23.3.9 29.5 1.5 8.6 2.6 11.9 6 11.9 2.8 0 3.5-1.7 4.1-4.9 5-28 9.3-42.1 13.9-55.5-.2 5.5-.3 11-.3 16.3 0 10.5.4 19.6.9 24.5 1.9 13.6 4.3 19.6 8 19.6 8.3.5 14.6-26.6 14.6-32m-213-8.2c0-8.8 4.3-42.2 9.7-42.2 1.9 0 2.6 2.4 2.6 8.4 0 9-4.5 26.5-10.1 39.2-.6 1.4-1.3 2.9-2.1 4.4 0-3.1-.1-6.4-.1-9.8m134.4 27.1c-3.4 0-5.8-12.1-5.8-29.3 0-19.8 6.5-40.3 12.9-40.3 1.1 0 1.9.4 2.7 1.6-2.8 13.7-4.1 25.9-4.1 40 0 5.6.3 11.6.7 18-1.9 5.2-4.9 10-6.4 10"/><path d="M586.2 138.7c-3.5-2-8-3.7-12.2-4.6-1.8-8-3.8-16.9-3.8-27.7 0-8.8 1.1-14.9 1.9-23 .2-2.2-.9-3.5-2.8-3.5-2.2 0-3.2 1.1-3.5 3-3.9 21.5-7.7 32.5-12.3 47.2-1.7 5-7.3 21.8-10.8 21.8-1.5 0-2.8-2.1-2.8-10.6 0-16.2 3.4-36.2 4.5-54.1.2-3-1.7-4.9-4.7-4.9-2.8 0-4.7 1.9-4.9 5.2-.7 9.5-2.2 21.5-4.7 36.4-3.2 18.3-7.3 28.2-11.8 28.2-2.2 0-3.7-2.8-3.7-7.5 0-25.4 6.2-58.6 6.9-64.4.2-1.3-.4-2.2-1.9-2.2h-3c-3.2 0-5.4 1.5-6 5.8-.6 4.1-1.3 10.6-3.2 21.3-6.2 35.1-13.6 52.1-23 52.1-4.9 0-8.2-6.2-8.2-15.1 0-32.1 6.2-54.7 14.4-54.7 1.9 0 3.9 2.6 3.9 7.1 0 8-9.1 10.3-9.1 16.6 0 3 1.9 5.2 4.9 5.2 4.3 0 9.3-6.2 9.3-21.5 0-8.6-2.8-13.1-9.1-13.1-11.6 0-21.8 17.9-24.5 47.8-1.1 12.9-5.8 22-10.3 22-2.4 0-3.7-3.4-3.7-9.5 0-19.4 5.6-42 10.5-54.3.4-.9.4-1.7-.4-2.2l-1.9-1.3c-.7-.6-1.5-.7-2.4-.7-1.5 0-2.4.4-3.5 1.5-3.5 3.5-6.7 5.4-9.1 5.4-2.8 0-4.1-2.8-4.1-9 0-2.1-1.1-3.4-3.2-3.4s-3.4 1.5-3.4 3.9c0 18.5-.9 26.7-2.1 41.1-1.5 18.1-4.1 28.6-7.5 28.6-3.5 0-4.1-22.4-4.1-40.7 0-8.8.4-19.4.9-25.8.2-2.1-.9-3.4-2.8-3.4-1.7 0-2.8.9-3.2 3-.1.4-.2.8-.2 1.3-1.7-1.6-4.1-2.6-6.9-2.6-10.8 0-20.2 23.9-20.2 48.3 0 11.6-3.7 25.4-6.9 25.4-1.5 0-3-6.2-3.9-16.2-4.3-42-4.7-92.2-2.4-124.5.2-2.8-.4-4.1-2.1-4.1-1.3 0-2.2.7-2.8 3.2-8.3 35.6-17.1 76.3-22.2 102.8-.8-10.6-2.9-29.6-5.8-50.3-2.8-20-6.2-47-6.9-62.5-.2-3.7-1.9-5.4-4.9-5.4-3.4 0-5 2.2-4.7 6 .7 6.9 1.3 13.9 1.9 20.7-1.3 42.9-11.3 108.8-20.8 156.4-.6 2.8-1.7 5.2-4.1 5.2-1.9 0-3.7-2.4-5.4-8-.6-1.7-1.3-2.4-2.8-2.4-2.1 0-3 2.1-2.4 4.1C299.3 208 300 212 304 212c2.8 0 4.3-2.4 5.8-8.8 7-28.9 16.5-92.5 21.1-138.2.4 5.1.7 9.6.9 13.1 3 46.3 4.3 68.9 7.5 97.4.2 1.7.9 3 2.6 3 2.1 0 2.8-1.7 3-3 5.3-37.5 10.6-69.3 16.1-96.7.9 36.2 2.8 71.1 4.6 85.1 1.9 14 4.3 19.6 8 19.6 4.6 0 11.7-13.6 15.8-29.1 1.7 9.4 6.2 16.4 11.3 16.4 2.2 0 4.1-1.5 6.7-5.2 1.5-2.2 3.1-5.1 5-9.4 1.4 8.6 5.6 15.7 9.8 15.7 7.5 0 12.9-16.2 15.3-47.8.8-9.6 1.5-17.5 2.1-24 1.2 1.4 2.8 2.2 4.7 2.2 2.6 0 5.6-1.4 9.5-4.6-7.8 21.8-12.3 43.3-12.3 58.7 0 9.3 2.4 14.4 7.1 14.4 5.9 0 11.4-7.7 16.7-23.5.7 13.3 7.2 23.5 15.4 23.5 7.9 0 16.1-11.6 23-31.7-.2 4.1-.4 7.3-.4 9.9 0 6.5 1.1 21.8 9.5 21.8 5.7 0 9.8-6.5 16.8-28.9-.2 3.4-.3 7.2-.3 10.6 0 11.4 2.8 17.4 8 17.4 4.8 0 8.3-4.1 13.1-16.6.7 10.1 6.8 17.5 14.9 17.5 7.1 0 11.8-6.9 11.8-17.4v-.6c-.2-5.9-.9-9.3-1.8-13.1 4.4 1 6.9 2.8 8.7 4.1.6.4 1.1.6 1.7.6 1.5 0 2.8-.9 2.8-2.4-.1-1.3-.4-2.2-2.3-3.3m-180.1 18.5c-4.5 0-6.9-9.3-6.9-26.7 0-24.8 4.5-42.6 11-42.6 1.8 0 3.3 1 4.5 3-2.1 13-3 26.5-3 40.9 0 7.7.1 12.7.3 16.9-2 4.6-4.6 8.5-5.9 8.5m158.1-23.9v.5c-3.2.5-5.9 1.6-8.1 3.4 3.1-9.2 5.4-16.6 7.3-23.5 0 6.2.2 12.6.8 19.6m-3.4 24.6c-2.8 0-5.2-3.7-5.2-7.7 0-6.8 2.8-10.2 9.2-11 .5 4.3.9 7.9.9 11.4 0 4.5-1.9 7.3-4.9 7.3"/></svg>