<?xml version="1.0" standalone="no"?>
<!DOCTYPE svg PUBLIC "-//W3C//DTD SVG 1.1//EN" "http://www.w3.org/Graphics/SVG/1.1/DTD/svg11.dtd" >
<svg xmlns="http://www.w3.org/2000/svg">
<metadata>
GN Elliot is a licensed version of FS Elliot Pro Copyright (c) 2012 by Fontsmith Ltd for GN Store Nord A/S. All rights reserved. This font may not be altered in any way without prior permission of Fontsmith Ltd.
</metadata>
<defs>
<font id="GNElliotWeb" horiz-adv-x="583" >
  <font-face 
    font-family="GN Elliot Web"
    font-weight="400"
    font-stretch="normal"
    units-per-em="1000"
    panose-1="2 2 5 3 4 2 2 2 2 4"
    ascent="750"
    descent="-250"
    x-height="486"
    cap-height="672"
    bbox="-177 -282 1205 1008"
    underline-thickness="62"
    underline-position="-38"
    unicode-range="U+000D-FB04"
  />
<missing-glyph horiz-adv-x="500" 
d="M12 672h476v-672h-476v672zM250 380l162 244h-324zM60 92l162 244l-162 244v-488zM278 336l162 -244v488zM250 292l-162 -244h324z" />
    <glyph glyph-name="fi" unicode="fi" horiz-adv-x="580" 
d="M127 423h-101v63h101v67q0 36 13.5 66t37 51.5t56 33.5t71.5 12q70 0 152 -25l-16 -62q-36 11 -66.5 17t-57.5 6q-49 0 -80 -28.5t-31 -73.5v-64h296v-486h-80v423h-216v-423h-79v423z" />
    <glyph glyph-name="fl" unicode="fl" horiz-adv-x="628" 
d="M127 423h-101v63h101v67q0 36 13 66t37 51.5t57.5 33.5t73.5 12q43 0 91 -5.5t103 -14.5v-584q0 -27 16 -43t43 -16q10 0 22 2t25 5l10 -63q-41 -9 -75 -9q-55 0 -88 31.5t-33 85.5v536q-58 11 -108 11q-48 0 -78 -28t-30 -74v-64h137v-63h-137v-423h-79v423z" />
    <glyph glyph-name="f_f" unicode="ff" horiz-adv-x="681" 
d="M127 423h-101v63h101v88q0 31 10.5 57.5t30 45t46 29t59.5 10.5q48 0 97 -13l-11 -62q-19 5 -36 7.5t-33 2.5q-38 0 -61 -23t-23 -61v-81h232v88q0 31 10.5 57.5t30 45t46.5 29t59 10.5q48 0 97 -13l-11 -62q-19 5 -36 7.5t-33 2.5q-37 0 -60 -23t-23 -61v-81h136v-63
h-136v-423h-80v423h-232v-423h-79v423z" />
    <glyph glyph-name="f_f_i" unicode="ffi" horiz-adv-x="892" 
d="M127 423h-101v63h101v88q0 31 10.5 57.5t30 45t46 29t59.5 10.5q48 0 97 -13l-11 -62q-19 5 -36 7.5t-33 2.5q-38 0 -61 -23t-23 -61v-81h232v67q0 36 13.5 66t37 51.5t56.5 33.5t72 12q69 0 151 -25l-16 -62q-72 23 -124 23q-48 0 -79 -28.5t-31 -73.5v-64h295v-486h-80
v423h-215v-423h-80v423h-232v-423h-79v423z" />
    <glyph glyph-name="f_j" unicode="fj" horiz-adv-x="580" 
d="M127 423h-101v63h101v67q0 36 13.5 66t37 51.5t56 33.5t71.5 12q70 0 152 -25l-16 -62q-36 11 -66.5 17t-57.5 6q-49 0 -80 -28.5t-31 -73.5v-64h296v-564q0 -32 -10.5 -58t-30 -44.5t-46.5 -29t-59 -10.5q-49 0 -98 13l11 62q19 -5 36 -7.5t33 -2.5q38 0 61 23t23 61
v494h-216v-423h-79v423z" />
    <glyph glyph-name="f_f_j" unicode="ffj" horiz-adv-x="892" 
d="M127 423h-101v63h101v88q0 31 10.5 57.5t30 45t46 29t59.5 10.5q48 0 97 -13l-11 -62q-19 5 -36 7.5t-33 2.5q-38 0 -61 -23t-23 -61v-81h232v67q0 36 13.5 66t37 51.5t56.5 33.5t72 12q69 0 151 -25l-16 -62q-72 23 -124 23q-48 0 -79 -28.5t-31 -73.5v-64h295v-564
q0 -32 -10.5 -58t-30 -44.5t-46.5 -29t-59 -10.5q-49 0 -98 13l12 62q18 -5 35 -7.5t33 -2.5q38 0 61 23t23 61v494h-215v-423h-80v423h-232v-423h-79v423z" />
    <glyph glyph-name="f_f_l" unicode="ffl" horiz-adv-x="940" 
d="M127 423h-101v63h101v88q0 31 10.5 57.5t30 45t46 29t59.5 10.5q48 0 97 -13l-11 -62q-19 5 -36 7.5t-33 2.5q-38 0 -61 -23t-23 -61v-81h232v67q0 36 13.5 66t37.5 51.5t57.5 33.5t73.5 12q43 0 91 -5.5t102 -14.5v-584q0 -27 16 -43t43 -16q10 0 22 2t26 5l9 -63
q-41 -9 -75 -9q-55 0 -88 31.5t-33 85.5v536q-58 11 -108 11q-48 0 -77.5 -28t-29.5 -74v-64h136v-63h-136v-423h-80v423h-232v-423h-79v423z" />
    <glyph glyph-name="f_b" unicode="fb" horiz-adv-x="926" 
d="M127 423h-101v63h101v67q0 36 13 66t37 51.5t57.5 33.5t73.5 12q43 0 91 -5.5t103 -14.5v-287q26 43 67 66t94 23q48 0 88 -19t69.5 -52.5t45.5 -80.5t16 -103t-16 -103t-45.5 -80.5t-69.5 -52.5t-88 -19q-55 0 -98 24t-69 69l-10 -81h-64v641q-58 11 -108 11
q-48 0 -78 -28t-30 -74v-64h137v-63h-137v-423h-79v423zM801 243q0 42 -11.5 76.5t-32.5 60t-50 39.5t-63 14q-32 0 -58.5 -11t-45.5 -31.5t-29.5 -48t-10.5 -60.5v-78q0 -33 10.5 -61t29.5 -48t45.5 -31t58.5 -11q34 0 63 14t50 39t32.5 60t11.5 77z" />
    <glyph glyph-name="f_f_b" unicode="ffb" horiz-adv-x="1238" 
d="M127 423h-101v63h101v88q0 31 10.5 57.5t30 45t46 29t59.5 10.5q48 0 97 -13l-11 -62q-19 5 -36 7.5t-33 2.5q-37 0 -60.5 -23t-23.5 -61v-81h232v67q0 36 13.5 66t37.5 51.5t57.5 33.5t73.5 12q43 0 91 -5.5t102 -14.5v-287q40 61 113 80q35 9 71 6q37 -4 69 -20
t56.5 -42t41.5 -60.5t23 -76.5q6 -39 3 -79q-3 -51 -20.5 -93t-46 -72t-66.5 -47t-83 -17q-55 0 -98 24t-69 69l-10 -81h-64v641q-58 11 -108 11q-48 0 -77.5 -28t-29.5 -74v-64h136v-63h-136v-423h-80v423h-232v-423h-79v423zM1112 243q0 42 -11.5 76.5t-32.5 60t-50 39.5
t-63 14q-32 0 -58 -11t-45.5 -31.5t-30 -48t-10.5 -60.5v-78q0 -33 10.5 -61t30 -48t45.5 -31t58 -11q34 0 63 14t50 39t32.5 60t11.5 77z" />
    <glyph glyph-name="f_h" unicode="fh" horiz-adv-x="926" 
d="M127 423h-101v63h101v67q0 36 13 66t37 51.5t57.5 33.5t73.5 12q43 0 91 -5.5t103 -14.5v-295q25 46 69 71.5t100 25.5q40 0 74 -13t59 -37t38.5 -57.5t13.5 -73.5v-317h-80v305q0 56 -35.5 91t-91.5 35q-32 0 -59 -11.5t-46.5 -32t-30.5 -49.5t-11 -64v-274h-80v641
q-58 11 -108 11q-48 0 -78 -28t-30 -74v-64h137v-63h-137v-423h-79v423z" />
    <glyph glyph-name="f_f_h" unicode="ffh" horiz-adv-x="1238" 
d="M127 423h-101v63h101v88q0 31 10.5 57.5t30 45t46 29t59.5 10.5q48 0 97 -13l-11 -62q-19 5 -36 7.5t-33 2.5q-37 0 -60.5 -23t-23.5 -61v-81h232v67q0 36 13.5 66t37.5 51.5t57.5 33.5t73.5 12q43 0 91 -5.5t102 -14.5v-295q25 46 69.5 71.5t99.5 25.5q40 0 74 -13
t59 -37t38.5 -57.5t13.5 -73.5v-317h-80v305q0 56 -35.5 91t-91.5 35q-32 0 -58.5 -11.5t-46.5 -32t-31 -49.5t-11 -64v-274h-80v641q-58 11 -108 11q-48 0 -77.5 -28t-29.5 -74v-64h136v-63h-136v-423h-80v423h-232v-423h-79v423z" />
    <glyph glyph-name="f_k" unicode="fk" horiz-adv-x="852" 
d="M127 423h-101v63h101v67q0 36 13 66t37 51.5t57.5 33.5t73.5 12q42 0 89.5 -5.5t101.5 -14.5v-451l230 241h93l-219 -227l227 -259h-93l-186 211l-52 -52v-159h-77v641q-58 11 -108 11q-48 0 -78 -28t-30 -74v-64h137v-63h-137v-423h-79v423z" />
    <glyph glyph-name="f_f_k" unicode="ffk" horiz-adv-x="1164" 
d="M127 423h-101v63h101v88q0 31 10.5 57.5t30 45t46 29t59.5 10.5q48 0 97 -13l-11 -62q-19 5 -36 7.5t-33 2.5q-38 0 -61 -23t-23 -61v-81h232v67q0 36 13.5 66t37.5 51.5t57.5 33.5t73.5 12q42 0 89 -5.5t101 -14.5v-451l231 241h93l-219 -227l227 -259h-94l-185 211
l-53 -52v-159h-77v641q-58 11 -108 11q-48 0 -77.5 -28t-29.5 -74v-64h136v-63h-136v-423h-80v423h-232v-423h-79v423z" />
    <glyph glyph-name=".notdef" horiz-adv-x="500" 
d="M12 672h476v-672h-476v672zM250 380l162 244h-324zM60 92l162 244l-162 244v-488zM278 336l162 -244v488zM250 292l-162 -244h324z" />
    <glyph glyph-name=".null" horiz-adv-x="0" 
 />
    <glyph glyph-name=".null" horiz-adv-x="0" 
 />
    <glyph glyph-name="nonmarkingreturn" unicode="&#xd;" horiz-adv-x="240" 
 />
    <glyph glyph-name="space" unicode=" " horiz-adv-x="240" 
 />
    <glyph glyph-name="nonbreakingspace" unicode="&#xa0;" horiz-adv-x="240" 
 />
    <glyph glyph-name="A" unicode="A" horiz-adv-x="671" 
d="M297 672h77l277 -672h-84l-74 184h-315l-74 -184h-84zM201 247h268l-134 331z" />
    <glyph glyph-name="B" unicode="B" horiz-adv-x="652" 
d="M100 672h271q44 0 80.5 -13t63 -36t41 -55t14.5 -70q0 -52 -27.5 -91.5t-75.5 -58.5q60 -17 93.5 -61.5t33.5 -104.5q0 -41 -15.5 -74.5t-43 -57.5t-65.5 -37t-83 -13h-287v672zM180 62h196q61 0 99 35t38 92t-38 92t-99 35h-196v-254zM180 372h181q57 0 93 33t36 86
t-36 86t-93 33h-181v-238z" />
    <glyph glyph-name="C" unicode="C" horiz-adv-x="646" 
d="M49 336q0 77 24 141t68 110t104.5 71.5t134.5 25.5q58 0 115.5 -18.5t111.5 -55.5l-35 -56q-42 30 -88 46t-93 16q-57 0 -104.5 -20.5t-81.5 -57.5t-52.5 -88.5t-18.5 -113.5t18.5 -113.5t52.5 -88.5t81.5 -57.5t104.5 -20.5q47 0 93 16t88 46l35 -56
q-54 -37 -111.5 -55.5t-115.5 -18.5q-74 0 -134.5 25.5t-104.5 71.5t-68 110t-24 141z" />
    <glyph glyph-name="D" unicode="D" horiz-adv-x="719" 
d="M100 672h227q76 0 139 -24.5t108 -68.5t70 -106t25 -137q0 -74 -25 -136t-70 -106.5t-108 -69t-139 -24.5h-227v672zM585 336q0 60 -19.5 109.5t-54.5 85.5t-84 56t-108 20h-137v-542h137q59 0 108 20t84 56t54.5 85.5t19.5 109.5z" />
    <glyph glyph-name="E" unicode="E" horiz-adv-x="598" 
d="M100 672h429v-64h-347v-233h315v-62h-315v-249h363v-64h-445v672z" />
    <glyph glyph-name="F" unicode="F" horiz-adv-x="582" 
d="M100 672h429v-65h-347v-256h315v-65h-315v-286h-82v672z" />
    <glyph glyph-name="G" unicode="G" horiz-adv-x="703" 
d="M634 43q-118 -55 -238 -55q-77 0 -140.5 25.5t-109.5 72t-71.5 110t-25.5 140.5q0 76 25 140t70 110.5t107 72t137 25.5q116 0 235 -67l-31 -57q-51 28 -99 43.5t-96 15.5q-59 0 -108 -21t-84 -58.5t-54.5 -89.5t-19.5 -114t20 -114t55.5 -89.5t85.5 -58.5t110 -21
q81 0 155 34v200h-169v62h246v-306z" />
    <glyph glyph-name="H" unicode="H" horiz-adv-x="767" 
d="M100 672h82v-295h402v295h83v-672h-83v311h-402v-311h-82v672z" />
    <glyph glyph-name="I" unicode="I" horiz-adv-x="282" 
d="M100 672h82v-672h-82v672z" />
    <glyph glyph-name="J" unicode="J" horiz-adv-x="444" 
d="M344 174q0 -41 -14 -75.5t-39 -59t-60 -38t-77 -13.5q-32 0 -64 4.5t-67 12.5l12 66q54 -15 101 -15q56 0 90.5 34.5t34.5 90.5v491h83v-498z" />
    <glyph glyph-name="K" unicode="K" horiz-adv-x="663" 
d="M100 672h80v-355l344 355h98l-306 -314l320 -358h-99l-277 308l-80 -80v-228h-80v672z" />
    <glyph glyph-name="L" unicode="L" horiz-adv-x="534" 
d="M100 672h82v-607h326v-65h-408v672z" />
    <glyph glyph-name="M" unicode="M" horiz-adv-x="855" 
d="M100 672h81l246 -336l247 336h81v-672h-77v558l-227 -309h-48l-226 309v-558h-77v672z" />
    <glyph glyph-name="N" unicode="N" horiz-adv-x="767" 
d="M100 672h81l409 -558v558h77v-672h-81l-409 558v-558h-77v672z" />
    <glyph glyph-name="O" unicode="O" horiz-adv-x="767" 
d="M49 336q0 76 25 140t69 110.5t105.5 72t134.5 25.5t134.5 -25.5t106 -72t69 -110.5t24.5 -140q0 -77 -24.5 -140.5t-69 -110t-106 -72t-134.5 -25.5t-134.5 25.5t-105.5 72t-69 110t-25 140.5zM134 336q0 -62 18.5 -113.5t51.5 -89t78.5 -58t100.5 -20.5t101 20.5t79 58
t51.5 89t18.5 113.5t-18.5 113.5t-51.5 89t-79 58t-101 20.5t-100.5 -20.5t-78.5 -58t-51.5 -89t-18.5 -113.5z" />
    <glyph glyph-name="P" unicode="P" horiz-adv-x="620" 
d="M100 672h253q49 0 90.5 -15.5t71.5 -43.5t46.5 -67t16.5 -85t-16.5 -84.5t-46.5 -66.5t-71.5 -43.5t-90.5 -15.5h-173v-251h-80v672zM180 316h161q34 0 62.5 10.5t49.5 30t32.5 46t11.5 58.5t-11.5 58.5t-32.5 46t-49.5 30.5t-62.5 11h-161v-291z" />
    <glyph glyph-name="Q" unicode="Q" horiz-adv-x="767" 
d="M49 336q0 76 25 140t69 110.5t105.5 72t134.5 25.5t134.5 -25.5t106 -72t69 -110.5t24.5 -140q0 -101 -41 -178t-113 -120l164 -120l-41 -52l-192 141q-26 -9 -53.5 -14t-57.5 -5q-73 0 -134.5 25.5t-105.5 72t-69 110t-25 140.5zM134 336q0 -62 18.5 -113.5t51.5 -89
t78.5 -58t100.5 -20.5t101 20.5t79 58t51.5 89t18.5 113.5t-18.5 113.5t-51.5 89t-79 58t-101 20.5t-100.5 -20.5t-78.5 -58t-51.5 -89t-18.5 -113.5z" />
    <glyph glyph-name="R" unicode="R" horiz-adv-x="652" 
d="M100 672h256q48 0 87.5 -15t68.5 -41.5t45 -63.5t16 -81q0 -38 -12 -71t-34 -58.5t-53.5 -41.5t-69.5 -21l196 -279h-91l-185 267h-144v-267h-80v672zM180 332h164q66 0 107 37.5t41 99.5q0 30 -11 55.5t-30.5 44t-46.5 28.5t-60 10h-164v-275z" />
    <glyph glyph-name="S" unicode="S" horiz-adv-x="580" 
d="M55 504q0 40 17 73t48 57t74.5 37t95.5 13q101 0 215 -45l-20 -64q-102 42 -189 42q-72 0 -116 -31t-44 -82q0 -45 29 -69.5t73 -40t94.5 -28.5t94.5 -35t73 -59t29 -100q0 -41 -17.5 -75t-49 -58t-75.5 -37.5t-97 -13.5q-109 0 -239 53l20 64q57 -23 112 -36.5
t101 -13.5q75 0 119 32t44 85q0 46 -29 71.5t-72.5 41.5t-94.5 29t-94.5 34.5t-72.5 57.5t-29 98z" />
    <glyph glyph-name="T" unicode="T" horiz-adv-x="598" 
d="M258 607h-232v65h546v-65h-232v-607h-82v607z" />
    <glyph glyph-name="U" unicode="U" horiz-adv-x="767" 
d="M675 257q0 -60 -22 -109.5t-61 -85t-92.5 -55t-116.5 -19.5t-116.5 19.5t-92 55t-60.5 85t-22 109.5v415h82v-412q0 -45 16 -83t43.5 -65t66 -42t83.5 -15t83.5 15t66.5 42t43.5 65t15.5 83v412h83v-415z" />
    <glyph glyph-name="V" unicode="V" horiz-adv-x="671" 
d="M374 0h-77l-277 672h87l228 -570l229 570h87z" />
    <glyph glyph-name="W" unicode="W" horiz-adv-x="1007" 
d="M760 0h-82l-175 570l-174 -570h-82l-215 672h83l175 -570l174 570h78l175 -570l174 570h84z" />
    <glyph glyph-name="X" unicode="X" horiz-adv-x="679" 
d="M286 344l-244 328h92l205 -275l205 275h93l-245 -328l257 -344h-94l-216 291l-215 -291h-94z" />
    <glyph glyph-name="Y" unicode="Y" horiz-adv-x="599" 
d="M258 287l-246 385h91l197 -311l196 311h92l-247 -385v-287h-83v287z" />
    <glyph glyph-name="Z" unicode="Z" horiz-adv-x="628" 
d="M51 48l406 559h-394v65h502v-48l-406 -559h418v-65h-526v48z" />
    <glyph glyph-name="a" unicode="a" horiz-adv-x="537" 
d="M44 134q0 77 59 119t163 42q26 0 53 -3t56 -11v50q0 47 -32.5 76.5t-86.5 29.5q-77 0 -161 -36l-22 58q51 20 98 29.5t94 9.5q41 0 75.5 -12t59 -34.5t38 -53.5t13.5 -69v-235q0 -20 11.5 -32t32.5 -12q6 0 13.5 1t12.5 2l6 -60q-12 -2 -25 -3.5t-27 -1.5q-40 0 -64 21.5
t-29 59.5q-29 -38 -73.5 -59.5t-95.5 -21.5q-36 0 -67 11t-53.5 30.5t-35.5 46.5t-13 58zM122 139q0 -40 31 -66.5t79 -26.5q31 0 57.5 10.5t45.5 30t29.5 46.5t10.5 59v41q-51 12 -100 12q-72 0 -112.5 -28t-40.5 -78z" />
    <glyph glyph-name="b" unicode="b" 
d="M79 704h79v-295q26 43 67.5 66t94.5 23q48 0 88 -19t69 -52.5t45.5 -80.5t16.5 -103t-16.5 -103t-45.5 -80.5t-69 -52.5t-88 -19q-55 0 -98 24t-69 69l-10 -81h-64v704zM458 243q0 42 -11.5 76.5t-32.5 60t-50 39.5t-63 14q-32 0 -58.5 -11t-45.5 -31.5t-29.5 -48
t-10.5 -60.5v-78q0 -33 10.5 -61t29.5 -48t45.5 -31t58.5 -11q34 0 63 14t50 39t32.5 60t11.5 77z" />
    <glyph glyph-name="c" unicode="c" horiz-adv-x="492" 
d="M44 243q0 56 18 103t50.5 80.5t77.5 52.5t99 19q90 0 172 -55l-33 -55q-64 44 -129 44q-38 0 -70 -14t-55 -38.5t-35.5 -59.5t-12.5 -77t12.5 -77t35.5 -60t55 -39t70 -14q34 0 65.5 11.5t63.5 33.5l33 -55q-82 -55 -172 -55q-54 0 -99 18.5t-77.5 52.5t-50.5 81t-18 103
z" />
    <glyph glyph-name="d" unicode="d" 
d="M505 0h-64l-10 81q-26 -45 -69.5 -69t-97.5 -24q-48 0 -88.5 19t-69.5 52.5t-45.5 80.5t-16.5 103t16.5 103t45.5 80.5t69.5 52.5t88.5 19q52 0 93.5 -23t67.5 -66v295h80v-704zM126 243q0 -42 11.5 -77t32.5 -60t49.5 -39t63.5 -14q31 0 57.5 11t45.5 31t29.5 48
t10.5 61v78q0 33 -10.5 60.5t-29.5 48t-45.5 31.5t-57.5 11q-35 0 -63.5 -14t-49.5 -39.5t-32.5 -60t-11.5 -76.5z" />
    <glyph glyph-name="e" unicode="e" horiz-adv-x="537" 
d="M44 243q0 56 17.5 103t49 80.5t75 52.5t95.5 19q49 0 89.5 -18t69.5 -50.5t45 -78t16 -99.5v-14.5t-1 -14.5h-376q3 -39 17 -71t38 -55t56 -35.5t70 -12.5q33 0 70.5 10t76.5 31l25 -55q-48 -24 -93.5 -35.5t-86.5 -11.5q-56 0 -102 18.5t-80 52.5t-52.5 81t-18.5 103z
M281 437q-66 0 -108.5 -44.5t-48.5 -118.5h300q-1 36 -12 66t-30 51.5t-44.5 33.5t-56.5 12z" />
    <glyph glyph-name="f" unicode="f" horiz-adv-x="369" 
d="M127 423h-101v63h101v88q0 31 10.5 57.5t30 45t46 29t59.5 10.5q48 0 97 -13l-11 -62q-19 5 -36 7.5t-33 2.5q-38 0 -61 -23t-23 -61v-81h137v-63h-137v-423h-79v423z" />
    <glyph glyph-name="g" unicode="g" 
d="M505 -9q0 -46 -18 -85t-50 -67t-76 -43.5t-96 -15.5q-43 0 -91.5 10.5t-100.5 32.5l24 60q45 -20 86.5 -29.5t75.5 -9.5q36 0 66.5 10.5t52.5 29.5t34.5 45.5t12.5 58.5v88q-26 -42 -67.5 -65t-93.5 -23q-48 0 -88.5 19t-69.5 52.5t-45.5 80.5t-16.5 103t16.5 103
t45.5 80.5t69.5 52.5t88.5 19q54 0 97.5 -24t69.5 -69l10 81h64v-495zM126 243q0 -42 11.5 -77t32.5 -60t49.5 -39t63.5 -14q31 0 57.5 11t45.5 31t29.5 48t10.5 61v78q0 33 -10.5 60.5t-29.5 48t-45.5 31.5t-57.5 11q-35 0 -63.5 -14t-49.5 -39.5t-32.5 -60t-11.5 -76.5z
" />
    <glyph glyph-name="h" unicode="h" 
d="M79 704h79v-303q25 46 69.5 71.5t100.5 25.5q40 0 74 -13t59 -37t38.5 -57.5t13.5 -73.5v-317h-80v305q0 56 -35.5 91t-92.5 35q-32 0 -58.5 -11.5t-46.5 -32t-31 -49.5t-11 -64v-274h-79v704z" />
    <glyph glyph-name="i" unicode="i" horiz-adv-x="237" 
d="M79 486h79v-486h-79v486zM65 634q0 23 15 38t39 15q23 0 38 -15t15 -38t-15 -38t-38 -15q-24 0 -39 15t-15 38z" />
    <glyph glyph-name="j" unicode="j" horiz-adv-x="245" 
d="M166 -78q0 -32 -10.5 -58t-30 -44.5t-46 -29t-59.5 -10.5q-48 0 -97 13l11 62q19 -5 36 -7.5t33 -2.5q38 0 61 23t23 61v557h79v-564zM73 634q0 23 15 38t39 15q23 0 38 -15t15 -38t-15 -38t-38 -15q-24 0 -39 15t-15 38z" />
    <glyph glyph-name="k" unicode="k" horiz-adv-x="509" 
d="M79 704h77v-459l230 241h93l-219 -227l227 -259h-94l-185 211l-52 -52v-159h-77v704z" />
    <glyph glyph-name="l" unicode="l" horiz-adv-x="285" 
d="M158 112q0 -27 16 -43t43 -16q11 0 23 2t25 5l10 -63q-41 -9 -75 -9q-57 0 -89 31.5t-32 85.5v599h79v-592z" />
    <glyph glyph-name="m" unicode="m" horiz-adv-x="905" 
d="M79 486h64l10 -85q26 47 69 72t98 25q57 0 100 -28.5t60 -77.5q29 50 74.5 78t103.5 28q39 0 71.5 -13t56 -36t36.5 -54.5t13 -69.5v-325h-80v313q0 52 -33 85t-86 33q-30 0 -55.5 -11t-44 -31t-29 -47t-10.5 -60v-282h-80v313q0 52 -33 85t-87 33q-30 0 -55.5 -11
t-44 -31t-29 -47t-10.5 -60v-282h-79v486z" />
    <glyph glyph-name="n" unicode="n" 
d="M79 486h64l10 -89q25 48 71 74.5t104 26.5q40 0 74 -13t59 -37t38.5 -57.5t13.5 -73.5v-317h-80v305q0 56 -35.5 91t-92.5 35q-32 0 -58.5 -11.5t-46.5 -32t-31 -49.5t-11 -64v-274h-79v486z" />
    <glyph glyph-name="o" unicode="o" 
d="M44 243q0 56 18.5 103t51.5 80.5t78.5 52.5t99.5 19t99.5 -19t78 -52.5t51 -80.5t18.5 -103t-18.5 -103t-51 -81t-78 -52.5t-99.5 -18.5t-99.5 18.5t-78.5 52.5t-51.5 81t-18.5 103zM126 243q0 -42 12 -77.5t34 -60.5t52.5 -39t67.5 -14q36 0 66.5 14t52.5 39t34.5 60.5
t12.5 77.5t-12.5 77t-34.5 60.5t-52.5 39.5t-66.5 14q-37 0 -67.5 -14t-52.5 -39.5t-34 -60.5t-12 -77z" />
    <glyph glyph-name="p" unicode="p" 
d="M79 486h64l10 -81q26 45 69 69t98 24q48 0 88 -19t69 -52.5t45.5 -80.5t16.5 -103t-16.5 -103t-45.5 -80.5t-69 -52.5t-88 -19q-53 0 -94.5 23t-67.5 65v-284h-79v694zM458 243q0 42 -11.5 76.5t-32.5 60t-50 39.5t-63 14q-32 0 -58.5 -11t-45.5 -31.5t-29.5 -48
t-10.5 -60.5v-78q0 -33 10.5 -61t29.5 -48t45.5 -31t58.5 -11q34 0 63 14t50 39t32.5 60t11.5 77z" />
    <glyph glyph-name="q" unicode="q" 
d="M505 -208h-80v284q-26 -42 -67.5 -65t-93.5 -23q-48 0 -88.5 19t-69.5 52.5t-45.5 80.5t-16.5 103t16.5 103t45.5 80.5t69.5 52.5t88.5 19q54 0 97.5 -24t69.5 -69l10 81h64v-694zM126 243q0 -42 11.5 -77t32.5 -60t49.5 -39t63.5 -14q31 0 57.5 11t45.5 31t29.5 48
t10.5 61v78q0 33 -10.5 60.5t-29.5 48t-45.5 31.5t-57.5 11q-35 0 -63.5 -14t-49.5 -39.5t-32.5 -60t-11.5 -76.5z" />
    <glyph glyph-name="r" unicode="r" horiz-adv-x="383" 
d="M79 486h64l10 -92q18 47 58 73.5t93 26.5q27 0 61 -8l-9 -65q-14 3 -29 5t-29 2q-63 0 -101.5 -45.5t-38.5 -119.5v-263h-79v486z" />
    <glyph glyph-name="s" unicode="s" horiz-adv-x="449" 
d="M48 362q0 30 13 55t36.5 43t56 28t71.5 10q38 0 79.5 -8.5t84.5 -25.5l-18 -59q-76 32 -140 32q-48 0 -76 -20.5t-28 -54.5q0 -30 20.5 -46t51.5 -26.5t67 -19.5t67 -25t51.5 -43.5t20.5 -73.5q0 -31 -13 -56.5t-37 -44t-57 -29t-73 -10.5q-86 0 -181 37l19 59
q85 -35 156 -35q49 0 78.5 22t29.5 57q0 31 -20.5 47.5t-51.5 27.5t-67.5 20t-67.5 25t-51.5 42t-20.5 72z" />
    <glyph glyph-name="t" unicode="t" horiz-adv-x="401" 
d="M206 486h153v-63h-153v-286q0 -38 23 -61t61 -23q16 0 33 2.5t36 7.5l11 -62q-49 -13 -97 -13q-33 0 -59.5 10.5t-46 29t-30 44.5t-10.5 58v293h-101v63h101v144h79v-144z" />
    <glyph glyph-name="u" unicode="u" 
d="M505 0h-64l-10 89q-26 -48 -72 -74.5t-104 -26.5q-41 0 -74.5 13t-58 37t-38 57.5t-13.5 73.5v317h79v-306q0 -56 36 -90.5t92 -34.5q31 0 58 11.5t47 32t31 49.5t11 64v274h80v-486z" />
    <glyph glyph-name="v" unicode="v" horiz-adv-x="519" 
d="M297 0h-74l-200 486h83l154 -394l153 394h84z" />
    <glyph glyph-name="w" unicode="w" horiz-adv-x="775" 
d="M585 0h-78l-119 392l-120 -392h-78l-159 486h80l120 -392l119 392h75l120 -392l119 392h81z" />
    <glyph glyph-name="x" unicode="x" horiz-adv-x="519" 
d="M208 249l-175 237h89l138 -186l137 186h89l-175 -237l183 -249h-91l-143 198l-144 -198h-91z" />
    <glyph glyph-name="y" unicode="y" horiz-adv-x="519" 
d="M271 -73q-30 -76 -69.5 -111.5t-98.5 -35.5q-14 0 -32 2t-36 7l11 64q29 -8 49 -8q37 0 60.5 22.5t43.5 73.5l25 63l-201 482h83l156 -394l151 394h84z" />
    <glyph glyph-name="z" unicode="z" horiz-adv-x="481" 
d="M44 45l280 378h-272v63h377v-46l-280 -378h288v-62h-393v45z" />
    <glyph glyph-name="ampersand" unicode="&#x26;" horiz-adv-x="641" 
d="M469 87q-44 -48 -95.5 -73.5t-106.5 -25.5q-50 0 -91.5 14.5t-71.5 40t-46.5 61t-16.5 78.5q0 60 40 109.5t117 89.5q-38 39 -61.5 74.5t-23.5 79.5q0 33 12.5 60t35.5 47t54.5 31t69.5 11q36 0 66.5 -10t52 -28.5t34 -44.5t12.5 -57q0 -51 -33.5 -92.5t-114.5 -85.5
l171 -184q36 64 38 144h68q-2 -54 -16.5 -104t-42.5 -92l120 -130h-90zM117 188q0 -30 12 -55.5t33 -44t49.5 -28.5t61.5 -10q43 0 82.5 22t71.5 61l-190 206q-59 -32 -89.5 -69.5t-30.5 -81.5zM285 622q-45 0 -72 -25t-27 -65q0 -32 21 -60.5t55 -61.5q63 34 90 63.5
t27 63.5q0 38 -26 61.5t-68 23.5z" />
    <glyph glyph-name="at" unicode="@" horiz-adv-x="972" 
d="M49 243q0 98 33.5 180t93 141.5t142 92.5t180.5 33q93 0 170.5 -29.5t134 -82t88 -125t31.5 -159.5q0 -60 -14 -109.5t-39.5 -85t-61.5 -55t-79 -19.5t-73 22.5t-39 59.5q-25 -39 -63.5 -60.5t-89.5 -21.5q-41 0 -75.5 16t-60 45t-40 69t-14.5 88t14.5 88t40 69t60 45
t75.5 16q47 0 82 -20t57 -55l8 65h66v-297q0 -32 16 -51t45 -19q26 0 47.5 14.5t37 41.5t24 64.5t8.5 83.5q0 75 -26.5 137.5t-74 108t-112.5 70.5t-143 25q-83 0 -153 -28.5t-120.5 -79.5t-78.5 -122t-28 -156t28 -156t78.5 -122t120 -79.5t153.5 -28.5q114 0 246 73
l31 -54q-148 -80 -277 -80q-99 0 -181.5 33t-142 92t-92.5 141.5t-33 180.5zM353 243q0 -34 9.5 -62.5t27 -49t41 -32t51.5 -11.5q53 0 84 35t31 89v62q0 54 -31 89t-84 35q-28 0 -51.5 -11.5t-41 -32t-27 -49t-9.5 -62.5z" />
    <glyph glyph-name="exclam" unicode="!" horiz-adv-x="263" 
d="M91 672h81l-7 -463h-67zM78 44q0 23 15 38t39 15q23 0 38 -15t15 -38t-15 -38t-38 -15q-25 0 -39.5 15t-14.5 38z" />
    <glyph glyph-name="exclamdown" unicode="&#xa1;" horiz-adv-x="263" 
d="M172 -186h-81l7 462h67zM185 442q0 -23 -15 -38t-38 -15q-24 0 -39 15t-15 38t15 38t39 15t38.5 -15t14.5 -38z" />
    <glyph glyph-name="question" unicode="?" horiz-adv-x="460" 
d="M180 209v14q0 30 11.5 54.5t28 46t36.5 40.5t36.5 39.5t28 42.5t11.5 50q0 53 -34.5 86.5t-90.5 33.5q-36 0 -71 -13.5t-73 -38.5l-32 59q90 61 188 61q42 0 77.5 -13.5t61 -37t40 -56t14.5 -71.5q0 -36 -11.5 -64.5t-29.5 -52t-39 -44.5t-39 -41t-31 -41t-14 -46l-1 -8
h-67zM161 45q0 23 15 37.5t38 14.5t38 -14.5t15 -37.5t-15 -38.5t-38 -15.5q-24 0 -38.5 15.5t-14.5 38.5z" />
    <glyph glyph-name="questiondown" unicode="&#xbf;" horiz-adv-x="396" 
d="M271 276v-13q0 -31 -11.5 -55.5t-28 -45.5t-36.5 -40.5t-36.5 -39.5t-28 -42.5t-11.5 -49.5q0 -54 35 -87t90 -33q37 0 72 13.5t72 38.5l32 -59q-44 -30 -91.5 -45.5t-95.5 -15.5q-42 0 -78 13t-61.5 37t-40 56.5t-14.5 71.5q0 36 12 64.5t29.5 52t38.5 44t39.5 40.5
t31 41t14.5 46v8h67zM291 442q0 -23 -15 -38t-38 -15t-38 15t-15 38t15 38t38 15t38 -15t15 -38z" />
    <glyph glyph-name="asterisk" unicode="*" horiz-adv-x="492" 
d="M274 507l157 51l17 -53l-157 -52l97 -133l-45 -33l-97 135l-97 -135l-45 33l96 133l-157 52l18 53l156 -51v165h57v-165z" />
    <glyph glyph-name="period" unicode="." horiz-adv-x="247" 
d="M68 46q0 25 15.5 40.5t40.5 15.5q24 0 40 -15.5t16 -40.5q0 -24 -16 -39.5t-40 -15.5q-25 0 -40.5 15.5t-15.5 39.5z" />
    <glyph glyph-name="comma" unicode="," horiz-adv-x="247" 
d="M68 46q0 25 15.5 40.5t40.5 15.5q27 0 43 -21t16 -56q0 -55 -28.5 -103t-81.5 -82l-25 34q69 52 73 121q-23 -1 -38 13.5t-15 37.5z" />
    <glyph glyph-name="colon" unicode=":" horiz-adv-x="263" 
d="M76 46q0 25 15.5 40.5t40.5 15.5q24 0 40 -15.5t16 -40.5q0 -24 -16 -39.5t-40 -15.5q-25 0 -40.5 15.5t-15.5 39.5zM76 439q0 25 15.5 40.5t40.5 15.5q24 0 40 -15.5t16 -40.5q0 -24 -16 -39.5t-40 -15.5q-25 0 -40.5 15.5t-15.5 39.5z" />
    <glyph glyph-name="semicolon" unicode=";" horiz-adv-x="263" 
d="M76 46q0 25 15.5 40.5t40.5 15.5q27 0 43 -21t16 -56q0 -55 -28.5 -103t-81.5 -82l-25 34q69 52 73 121q-23 -1 -38 13.5t-15 37.5zM76 439q0 25 15.5 40.5t40.5 15.5q24 0 40 -15.5t16 -40.5q0 -24 -16 -39.5t-40 -15.5q-25 0 -40.5 15.5t-15.5 39.5z" />
    <glyph glyph-name="ellipsis" unicode="&#x2026;" horiz-adv-x="960" 
d="M104 46q0 25 15.5 40.5t40.5 15.5q24 0 40 -15.5t16 -40.5q0 -24 -16 -39.5t-40 -15.5q-25 0 -40.5 15.5t-15.5 39.5zM424 46q0 25 15.5 40.5t40.5 15.5q24 0 40 -15.5t16 -40.5q0 -24 -16 -39.5t-40 -15.5q-25 0 -40.5 15.5t-15.5 39.5zM744 46q0 25 15.5 40.5
t40.5 15.5q24 0 40 -15.5t16 -40.5q0 -24 -16 -39.5t-40 -15.5q-25 0 -40.5 15.5t-15.5 39.5z" />
    <glyph glyph-name="periodcentered" unicode="&#xb7;" horiz-adv-x="247" 
d="M68 248q0 25 15.5 40.5t40.5 15.5q24 0 40 -15.5t16 -40.5q0 -24 -16 -39.5t-40 -15.5q-25 0 -40.5 15.5t-15.5 39.5z" />
    <glyph glyph-name="uni22C5" unicode="&#x22c5;" horiz-adv-x="247" 
d="M68 248q0 25 15.5 40.5t40.5 15.5q24 0 40 -15.5t16 -40.5q0 -24 -16 -39.5t-40 -15.5q-25 0 -40.5 15.5t-15.5 39.5z" />
    <glyph glyph-name="bullet" unicode="&#x2022;" horiz-adv-x="480" 
d="M96 288q0 30 11 56t30.5 45.5t46 31t56.5 11.5t56 -11.5t45.5 -31t31 -45.5t11.5 -56t-11.5 -56.5t-31 -46t-45.5 -30.5t-56 -11t-56.5 11t-46 30.5t-30.5 46t-11 56.5z" />
    <glyph glyph-name="slash" unicode="/" horiz-adv-x="384" 
d="M311 718l64 -21l-302 -839l-64 21z" />
    <glyph glyph-name="parenleft" unicode="(" horiz-adv-x="337" 
d="M79 288q0 125 43 237.5t128 203.5l57 -39q-78 -83 -116 -186t-38 -216t38 -216t116 -186l-57 -39q-85 91 -128 203t-43 238z" />
    <glyph glyph-name="brokenbar" unicode="&#xa6;" horiz-adv-x="240" 
d="M154 688v-384h-68v384h68zM86 -176v384h68v-384h-68z" />
    <glyph glyph-name="parenright" unicode=")" horiz-adv-x="337" 
d="M259 288q0 -125 -43.5 -237.5t-127.5 -203.5l-57 39q77 83 115.5 186t38.5 216t-38.5 216t-115.5 186l57 39q84 -91 127.5 -203t43.5 -238z" />
    <glyph glyph-name="bracketleft" unicode="[" horiz-adv-x="337" 
d="M105 710h196v-66h-122v-712h122v-66h-196v844z" />
    <glyph glyph-name="backslash" unicode="\" horiz-adv-x="384" 
d="M9 697l64 21l302 -839l-64 -21z" />
    <glyph glyph-name="bracketright" unicode="]" horiz-adv-x="337" 
d="M233 -134h-197v66h123v712h-123v66h197v-844z" />
    <glyph glyph-name="braceleft" unicode="{" horiz-adv-x="337" 
d="M31 321h16q36 0 60 23.5t24 61.5t-6.5 78t-6.5 80q0 32 11.5 59t31.5 46.5t47.5 30t59.5 10.5h33v-66h-16q-40 0 -66 -25.5t-26 -69.5q0 -35 6 -73t6 -76q0 -40 -19 -70t-56 -42q37 -12 56 -42t19 -70q0 -37 -6 -75t-6 -74q0 -43 26 -69t66 -26h16v-66h-33
q-32 0 -59.5 10.5t-47.5 30t-31.5 46.5t-11.5 59q0 40 6.5 79.5t6.5 78.5q0 36 -23.5 60.5t-60.5 24.5h-16v66z" />
    <glyph glyph-name="bar" unicode="|" horiz-adv-x="240" 
d="M86 736h68v-960h-68v960z" />
    <glyph glyph-name="braceright" unicode="}" horiz-adv-x="337" 
d="M307 255h-16q-37 0 -61 -23.5t-24 -61.5t7 -78t7 -80q0 -32 -11.5 -59t-31.5 -46.5t-47.5 -30t-59.5 -10.5h-34v66h16q40 0 66 25.5t26 69.5q0 35 -6 73t-6 76q0 40 19 70t56 42q-37 12 -56 42t-19 70q0 37 6 75t6 74q0 43 -26 69t-66 26h-16v66h34q32 0 59.5 -10.5
t47.5 -30t31.5 -46.5t11.5 -59q0 -40 -7 -79.5t-7 -78.5q0 -36 23.5 -60.5t61.5 -24.5h16v-66z" />
    <glyph glyph-name="hyphen" unicode="-" horiz-adv-x="320" 
d="M26 280h268v-62h-268v62z" />
    <glyph glyph-name="uni00AD" unicode="&#xad;" horiz-adv-x="320" 
d="M26 280h268v-62h-268v62z" />
    <glyph glyph-name="endash" unicode="&#x2013;" horiz-adv-x="480" 
d="M26 280h428v-62h-428v62z" />
    <glyph glyph-name="emdash" unicode="&#x2014;" horiz-adv-x="960" 
d="M26 280h908v-62h-908v62z" />
    <glyph glyph-name="underscore" unicode="_" horiz-adv-x="480" 
d="M0 -97h480v-62h-480v62z" />
    <glyph glyph-name="dagger" unicode="&#x2020;" horiz-adv-x="492" 
d="M215 437h-173v63h173v172h62v-172h172v-63h-172v-437h-62v437z" />
    <glyph glyph-name="daggerdbl" unicode="&#x2021;" horiz-adv-x="492" 
d="M215 172h-173v63h173v202h-173v63h173v172h62v-172h172v-63h-172v-202h172v-63h-172v-172h-62v172z" />
    <glyph glyph-name="section" unicode="&#xa7;" horiz-adv-x="529" 
d="M67 525q0 35 15 64.5t42 50.5t65 32.5t84 11.5q86 0 191 -41l-20 -64q-91 38 -165 38q-61 0 -96 -25t-35 -67q0 -37 24.5 -57t62 -33t80.5 -24.5t80.5 -31t62 -51.5t24.5 -86q0 -42 -21 -75t-59 -53q29 -19 46.5 -48.5t17.5 -74.5q0 -38 -15 -68t-43 -51t-66.5 -32.5
t-84.5 -11.5q-48 0 -101 11t-109 34l20 63q50 -20 97 -31t87 -11q62 0 98 26t36 71q0 37 -24.5 58t-62 34.5t-80.5 25t-80.5 31t-62 50.5t-24.5 84q0 42 22 75t63 52q-31 18 -50 48t-19 76zM132 278q0 -35 19 -55t48 -33t64 -22t67 -21q33 12 52 36t19 55q0 34 -18 54.5
t-45.5 33.5t-61.5 22t-65 20q-36 -11 -57.5 -34.5t-21.5 -55.5z" />
    <glyph glyph-name="paragraph" unicode="&#xb6;" 
d="M267 259q-49 0 -90.5 15.5t-71.5 42.5t-47 65t-17 83t17 83t47 65.5t71.5 43t90.5 15.5h217v-832h-69v764h-106v-345h-42z" />
    <glyph glyph-name="registered" unicode="&#xae;" horiz-adv-x="832" 
d="M48 336q0 81 27 148.5t76 116.5t116.5 76t148.5 27t148.5 -27t116.5 -76t76 -116.5t27 -148.5t-27 -148.5t-76 -116.5t-116.5 -76t-148.5 -27t-148.5 27t-116.5 76t-76 116.5t-27 148.5zM93 336q0 -71 23.5 -130.5t66.5 -102.5t102.5 -66.5t130.5 -23.5t130.5 23.5
t102 66.5t66.5 102.5t24 130.5t-24 130.5t-66.5 102t-102 66.5t-130.5 24t-130.5 -24t-102.5 -66.5t-66.5 -102t-23.5 -130.5zM276 544h163q61 0 99.5 -35t38.5 -92q0 -48 -27.5 -80t-72.5 -40l114 -169h-66l-105 161h-86v-161h-58v416zM334 336h99q38 0 61.5 21.5
t23.5 58.5q0 36 -23.5 57.5t-61.5 21.5h-99v-159z" />
    <glyph glyph-name="copyright" unicode="&#xa9;" horiz-adv-x="832" 
d="M48 336q0 81 27 148.5t76 116.5t116.5 76t148.5 27t148.5 -27t116.5 -76t76 -116.5t27 -148.5t-27 -148.5t-76 -116.5t-116.5 -76t-148.5 -27t-148.5 27t-116.5 76t-76 116.5t-27 148.5zM93 336q0 -71 23.5 -130.5t66.5 -102.5t102.5 -66.5t130.5 -23.5t130.5 23.5
t102 66.5t66.5 102.5t24 130.5t-24 130.5t-66.5 102t-102 66.5t-130.5 24t-130.5 -24t-102.5 -66.5t-66.5 -102t-23.5 -130.5zM220 336q0 48 15 87.5t42.5 68t66 44.5t84.5 16q36 0 72.5 -11.5t71.5 -34.5l-28 -43q-52 37 -109 37q-34 0 -61.5 -12t-47.5 -33.5t-31 -52
t-11 -66.5t11 -66.5t31 -52t47.5 -33.5t61.5 -12q57 0 109 37l28 -43q-35 -23 -71.5 -34.5t-72.5 -11.5q-46 0 -84.5 16t-66 44.5t-42.5 68t-15 87.5z" />
    <glyph glyph-name="trademark" unicode="&#x2122;" horiz-adv-x="942" 
d="M165 623h-141v49h343v-49h-140v-367h-62v367zM460 672h61l146 -198l145 198h62v-416h-58v331l-131 -180h-37l-132 180v-331h-56v416z" />
    <glyph glyph-name="quotedblleft" unicode="&#x201c;" horiz-adv-x="442" 
d="M180 479q0 -24 -16 -40t-40 -16q-27 0 -43.5 21t-16.5 56q0 55 28.5 103.5t81.5 82.5l25 -34q-69 -53 -73 -121q23 1 38.5 -14t15.5 -38zM375 479q0 -24 -16 -40t-40 -16q-27 0 -43.5 21t-16.5 56q0 55 28.5 103.5t81.5 82.5l25 -34q-69 -53 -73 -121q23 1 38.5 -14
t15.5 -38z" />
    <glyph glyph-name="quotedblright" unicode="&#x201d;" horiz-adv-x="442" 
d="M68 626q0 25 15.5 40.5t40.5 15.5q27 0 43 -21t16 -56q0 -55 -28.5 -103t-81.5 -82l-25 34q69 52 73 121q-23 -1 -38 13.5t-15 37.5zM263 626q0 25 15.5 40.5t40.5 15.5q27 0 43 -21t16 -56q0 -55 -28.5 -103t-81.5 -82l-25 34q69 52 73 121q-23 -1 -38 13.5t-15 37.5z
" />
    <glyph glyph-name="quoteleft" unicode="&#x2018;" horiz-adv-x="247" 
d="M180 479q0 -24 -16 -40t-40 -16q-27 0 -43.5 21t-16.5 56q0 55 28.5 103.5t81.5 82.5l25 -34q-69 -53 -73 -121q23 1 38.5 -14t15.5 -38z" />
    <glyph glyph-name="quoteright" unicode="&#x2019;" horiz-adv-x="247" 
d="M68 626q0 25 15.5 40.5t40.5 15.5q27 0 43 -21t16 -56q0 -55 -28.5 -103t-81.5 -82l-25 34q69 52 73 121q-23 -1 -38 13.5t-15 37.5z" />
    <glyph glyph-name="guillemotleft" unicode="&#xab;" horiz-adv-x="538" 
d="M29 267l198 220l48 -38l-168 -200l168 -200l-48 -39l-198 221v36zM256 267l198 220l48 -38l-168 -200l168 -200l-48 -39l-198 221v36z" />
    <glyph glyph-name="guillemotright" unicode="&#xbb;" horiz-adv-x="538" 
d="M282 231l-198 -221l-48 39l168 200l-168 200l48 38l198 -220v-36zM509 231l-198 -221l-48 39l168 200l-168 200l48 38l198 -220v-36z" />
    <glyph glyph-name="guilsinglleft" unicode="&#x2039;" horiz-adv-x="311" 
d="M29 267l198 220l48 -38l-168 -200l168 -200l-48 -39l-198 221v36z" />
    <glyph glyph-name="guilsinglright" unicode="&#x203a;" horiz-adv-x="311" 
d="M282 231l-198 -221l-48 39l168 200l-168 200l48 38l198 -220v-36z" />
    <glyph glyph-name="quotesinglbase" unicode="&#x201a;" horiz-adv-x="215" 
d="M68 46q0 25 15.5 40.5t40.5 15.5q27 0 43 -21t16 -56q0 -55 -28.5 -103t-81.5 -82l-25 34q69 52 73 121q-23 -1 -38 13.5t-15 37.5z" />
    <glyph glyph-name="quotedblbase" unicode="&#x201e;" horiz-adv-x="442" 
d="M68 46q0 25 15.5 40.5t40.5 15.5q27 0 43 -21t16 -56q0 -55 -28.5 -103t-81.5 -82l-25 34q69 52 73 121q-23 -1 -38 13.5t-15 37.5zM263 46q0 25 15.5 40.5t40.5 15.5q27 0 43 -21t16 -56q0 -55 -28.5 -103t-81.5 -82l-25 34q69 52 73 121q-23 -1 -38 13.5t-15 37.5z" />
    <glyph glyph-name="arrowleft" unicode="&#x2190;" horiz-adv-x="960" 
d="M169 251l239 -233l-55 -51l-321 321l321 321l55 -51l-239 -233h759v-74h-759z" />
    <glyph glyph-name="arrowup" unicode="&#x2191;" horiz-adv-x="960" 
d="M443 599l-233 -239l-51 55l321 321l321 -321l-51 -55l-233 239v-759h-74v759z" />
    <glyph glyph-name="arrowright" unicode="&#x2192;" horiz-adv-x="960" 
d="M791 325l-239 233l55 51l321 -321l-321 -321l-55 51l239 233h-759v74h759z" />
    <glyph glyph-name="arrowdown" unicode="&#x2193;" horiz-adv-x="960" 
d="M517 -23l233 239l51 -55l-321 -321l-321 321l51 55l233 -239v759h74v-759z" />
    <glyph glyph-name="grave" unicode="`" horiz-adv-x="240" 
d="M189 596l-31 -45l-175 111l36 52z" />
    <glyph glyph-name="acute" unicode="&#xb4;" horiz-adv-x="240" 
d="M88 551l-31 45l170 118l36 -52z" />
    <glyph glyph-name="dieresis" unicode="&#xa8;" horiz-adv-x="240" 
d="M-34 634q0 22 13.5 35.5t35.5 13.5t35.5 -13.5t13.5 -35.5t-13.5 -35.5t-35.5 -13.5t-35.5 13.5t-13.5 35.5zM176 634q0 22 13.5 35.5t35.5 13.5t35.5 -13.5t13.5 -35.5t-13.5 -35.5t-35.5 -13.5t-35.5 13.5t-13.5 35.5z" />
    <glyph glyph-name="circumflex" unicode="&#x2c6;" horiz-adv-x="240" 
d="M95 710h50l123 -119l-35 -38l-113 100l-113 -100l-35 38z" />
    <glyph glyph-name="tilde" unicode="&#x2dc;" horiz-adv-x="240" 
d="M56 681q17 0 34 -6t32.5 -12.5t29.5 -12.5t26 -6q31 0 42 37l51 -15q-8 -35 -31 -57t-56 -22q-17 0 -34 6t-32.5 12.5t-29.5 12.5t-26 6q-31 0 -42 -37l-51 16q8 35 31 56.5t56 21.5z" />
    <glyph glyph-name="macron" unicode="&#xaf;" horiz-adv-x="240" 
d="M-28 663h296v-57h-296v57z" />
    <glyph glyph-name="breve" unicode="&#x2d8;" horiz-adv-x="240" 
d="M25 694q3 -39 29 -63t66 -24t66 24t29 63h53q-1 -33 -12.5 -59t-31.5 -45t-46.5 -29t-57.5 -10t-57.5 10t-46.5 29t-31.5 45t-12.5 59h53z" />
    <glyph glyph-name="dotaccent" unicode="&#x2d9;" horiz-adv-x="240" 
d="M68 634q0 23 14.5 37.5t37.5 14.5t37.5 -14.5t14.5 -37.5t-14.5 -37.5t-37.5 -14.5t-37.5 14.5t-14.5 37.5z" />
    <glyph glyph-name="ring" unicode="&#x2da;" horiz-adv-x="240" 
d="M20 634q0 43 27.5 70t72.5 27t72.5 -27t27.5 -70t-27 -70t-72 -27t-73 27t-28 70zM63 634q0 -26 16 -41.5t42 -15.5t41 15.5t15 41.5t-15.5 42t-41.5 16t-41.5 -16t-15.5 -42z" />
    <glyph glyph-name="cedilla" unicode="&#xb8;" horiz-adv-x="240" 
d="M146 -56q33 -5 53.5 -28t20.5 -54q0 -38 -31.5 -62.5t-82.5 -24.5q-21 0 -44.5 4.5t-46.5 13.5l14 47q39 -14 70 -14q24 0 40 11.5t16 31.5t-17 31.5t-43 11.5h-11l16 88h56z" />
    <glyph glyph-name="hungarumlaut" unicode="&#x2dd;" horiz-adv-x="240" 
d="M206 548l-42 41l144 149l47 -47zM11 548l-41 41l143 149l47 -47z" />
    <glyph glyph-name="ogonek" unicode="&#x2db;" horiz-adv-x="240" 
d="M160 0q-42 -33 -66.5 -64.5t-24.5 -62.5q0 -22 14.5 -34.5t35.5 -12.5q20 0 41 8l11 -46q-33 -13 -69 -13q-41 0 -67.5 22.5t-26.5 62.5t29 79t80 74z" />
    <glyph glyph-name="caron" unicode="&#x2c7;" horiz-adv-x="240" 
d="M145 559h-50l-123 118l35 39l113 -101l113 101l35 -39z" />
    <glyph glyph-name="commaaccent" unicode="&#xf6c3;" horiz-adv-x="240" 
d="M71 -109q0 22 13.5 35.5t35.5 13.5q24 0 38.5 -17.5t14.5 -47.5q0 -48 -24.5 -88.5t-70.5 -68.5l-23 31q56 43 61 99q-19 -1 -32 11.5t-13 31.5z" />
    <glyph glyph-name="grave.cap" unicode="&#xe840;" horiz-adv-x="240" 
d="M189 782l-31 -45l-175 111l36 52z" />
    <glyph glyph-name="acute.cap" unicode="&#xe841;" horiz-adv-x="240" 
d="M88 737l-31 45l170 118l36 -52z" />
    <glyph glyph-name="dieresis.cap" unicode="&#xe845;" horiz-adv-x="240" 
d="M-34 820q0 22 13.5 35.5t35.5 13.5t35.5 -13.5t13.5 -35.5t-13.5 -35.5t-35.5 -13.5t-35.5 13.5t-13.5 35.5zM176 820q0 22 13.5 35.5t35.5 13.5t35.5 -13.5t13.5 -35.5t-13.5 -35.5t-35.5 -13.5t-35.5 13.5t-13.5 35.5z" />
    <glyph glyph-name="circumflex.cap" unicode="&#xe842;" horiz-adv-x="240" 
d="M95 896h50l123 -119l-35 -38l-113 100l-113 -100l-35 38z" />
    <glyph glyph-name="tilde.cap" unicode="&#xe844;" horiz-adv-x="240" 
d="M56 867q17 0 34 -6t32.5 -12.5t29.5 -12.5t26 -6q31 0 42 37l51 -15q-8 -35 -31 -57t-56 -22q-17 0 -34 6t-32.5 12.5t-29.5 12.5t-26 6q-31 0 -42 -37l-51 16q8 35 31 56.5t56 21.5z" />
    <glyph glyph-name="macron.cap" unicode="&#xe846;" horiz-adv-x="240" 
d="M-28 849h296v-57h-296v57z" />
    <glyph glyph-name="breve.cap" unicode="&#xe847;" horiz-adv-x="240" 
d="M25 880q3 -39 29 -63t66 -24t66 24t29 63h53q-1 -33 -12.5 -59t-31.5 -45t-46.5 -29t-57.5 -10t-57.5 10t-46.5 29t-31.5 45t-12.5 59h53z" />
    <glyph glyph-name="dotaccent.cap" unicode="&#xe84a;" horiz-adv-x="240" 
d="M68 820q0 23 14.5 37.5t37.5 14.5t37.5 -14.5t14.5 -37.5t-14.5 -37.5t-37.5 -14.5t-37.5 14.5t-14.5 37.5z" />
    <glyph glyph-name="ring.cap" unicode="&#xe848;" horiz-adv-x="240" 
d="M20 820q0 43 27.5 70t72.5 27t72.5 -27t27.5 -70t-27 -70t-72 -27t-73 27t-28 70zM63 820q0 -26 16 -41.5t42 -15.5t41 15.5t15 41.5t-15.5 42t-41.5 16t-41.5 -16t-15.5 -42z" />
    <glyph glyph-name="hungarumlaut.cap" unicode="&#xe849;" horiz-adv-x="240" 
d="M206 734l-42 41l144 149l47 -47zM11 734l-41 41l143 149l47 -47z" />
    <glyph glyph-name="caron.cap" unicode="&#xe843;" horiz-adv-x="240" 
d="M145 745h-50l-123 118l35 39l113 -101l113 101l35 -39z" />
    <glyph glyph-name="zero" unicode="0" horiz-adv-x="576" 
d="M41 336q0 80 17 144.5t49.5 109.5t78 69.5t102.5 24.5t102.5 -24.5t78 -69.5t49.5 -109.5t17 -144.5t-17 -144.5t-49.5 -109.5t-78 -69.5t-102.5 -24.5t-102.5 24.5t-78 69.5t-49.5 109.5t-17 144.5zM117 336q0 -65 12 -116.5t34 -88.5t54 -56.5t71 -19.5t71 19.5
t54 56.5t34 88.5t12 116.5t-12 117t-34 88.5t-54 56t-71 19.5t-71 -19.5t-54 -56t-34 -88.5t-12 -117z" />
    <glyph glyph-name="one" unicode="1" horiz-adv-x="576" 
d="M301 592l-174 -100l-28 56l215 124h67v-672h-80v592z" />
    <glyph glyph-name="two" unicode="2" horiz-adv-x="576" 
d="M55 51l263 263q82 82 82 163q0 62 -39.5 100.5t-103.5 38.5q-42 0 -82 -16t-83 -43l-32 60q54 32 106.5 49.5t105.5 17.5q46 0 84 -14.5t65.5 -40.5t42.5 -62.5t15 -79.5q0 -107 -96 -203l-219 -219h323v-65h-432v51z" />
    <glyph glyph-name="three" unicode="3" horiz-adv-x="576" 
d="M193 374h41q36 0 65.5 9.5t50.5 26t32.5 39.5t11.5 50q0 54 -36 87t-95 33q-76 0 -169 -42l-26 60q55 25 106.5 36t100.5 11q44 0 80.5 -13t62.5 -36.5t40.5 -56.5t14.5 -72q0 -58 -33 -100.5t-90 -59.5q31 -9 57 -25t44 -38.5t28 -50t10 -58.5q0 -41 -15.5 -75.5
t-44 -59t-68 -38t-86.5 -13.5q-52 0 -108.5 12t-114.5 39l26 60q100 -46 184 -46q32 0 58.5 9.5t46 26.5t30.5 40.5t11 51.5q0 30 -12.5 54.5t-35.5 42t-55 27t-71 9.5h-41v60z" />
    <glyph glyph-name="four" unicode="4" horiz-adv-x="576" 
d="M358 159h-327v55l325 458h76v-451h103v-62h-103v-159h-74v159zM358 221v351l-249 -351h249z" />
    <glyph glyph-name="five" unicode="5" horiz-adv-x="576" 
d="M476 607h-299v-215q53 11 98 11q52 0 93.5 -15t71 -42t45 -65t15.5 -84t-17 -84.5t-47.5 -66t-74 -43t-95.5 -15.5q-53 0 -104 15t-99 44l31 60q84 -52 166 -52q74 0 117.5 39t43.5 104q0 68 -44 107t-125 39q-32 0 -68 -4t-79 -14v346h371v-65z" />
    <glyph glyph-name="six" unicode="6" horiz-adv-x="576" 
d="M60 297q0 92 18 164t53.5 121.5t87 75.5t117.5 26q41 0 82.5 -10t81.5 -30l-27 -59q-34 17 -67.5 26t-66.5 9q-97 0 -150 -75t-54 -221q22 48 70.5 76.5t110.5 28.5q48 0 87 -15.5t67 -44t43.5 -68t15.5 -87.5t-17 -89.5t-47 -72t-71.5 -47.5t-89.5 -17q-114 0 -179 79.5
t-65 229.5zM143 225q0 -38 11.5 -69.5t32.5 -54.5t50 -36t64 -13q33 0 61 12t48.5 33.5t32.5 50.5t12 63q0 35 -11 63.5t-31 49t-48 32t-62 11.5t-63 -11t-50.5 -30t-34 -45t-12.5 -56z" />
    <glyph glyph-name="seven" unicode="7" horiz-adv-x="576" 
d="M402 607h-337v65h424v-51l-267 -621h-83z" />
    <glyph glyph-name="eight" unicode="8" horiz-adv-x="576" 
d="M288 374q62 11 102.5 43t40.5 86q0 25 -11 47t-30 38t-45 25t-57 9t-57 -9t-45 -25t-30 -38t-11 -47q0 -54 40.5 -86t102.5 -43zM52 173q0 63 40 108.5t115 62.5q-61 16 -100 59t-39 104q0 39 16 71.5t45.5 56t70 36.5t88.5 13t88.5 -13t70 -36.5t45.5 -56t16 -71.5
q0 -61 -39 -104t-100 -59q75 -17 115 -62.5t40 -108.5q0 -41 -17 -75t-48.5 -58.5t-75 -38t-95.5 -13.5q-53 0 -96 13.5t-74.5 38t-48.5 58.5t-17 75zM288 314q-72 -11 -114 -46t-42 -91q0 -28 11.5 -51.5t32 -40t49 -26t63.5 -9.5q34 0 63 9.5t49.5 26t32 40t11.5 51.5
q0 56 -42 91t-114 46z" />
    <glyph glyph-name="nine" unicode="9" horiz-adv-x="576" 
d="M516 375q0 -185 -71.5 -286t-204.5 -101q-41 0 -82.5 10t-81.5 30l27 59q34 -17 67.5 -26t66.5 -9q97 0 150 75t54 221q-22 -48 -70.5 -76.5t-110.5 -28.5q-48 0 -87 15.5t-67 44t-43.5 68t-15.5 87.5t17 89.5t47 72t71.5 47.5t89.5 17q114 0 179 -79.5t65 -229.5z
M433 447q0 38 -12 69.5t-33 54.5t-50 36t-63 13q-33 0 -61 -12t-48.5 -33.5t-32.5 -50.5t-12 -63q0 -35 11 -63.5t31 -49t48 -32t62 -11.5t63 11t50.5 30t34 45t12.5 56z" />
    <glyph glyph-name="dollar" unicode="$" horiz-adv-x="576" 
d="M254 38q-82 5 -174 43l19 63q50 -20 96.5 -31.5t86.5 -11.5q61 0 97 26t36 71q0 37 -24.5 57.5t-61.5 33.5t-79.5 24t-79.5 30t-61.5 50t-24.5 85q0 64 46 105.5t124 49.5v167h68v-166q36 -3 74 -13t80 -26l-19 -64q-45 19 -85.5 29.5t-77.5 10.5q-60 0 -94.5 -25.5
t-34.5 -67.5q0 -36 24.5 -55.5t61.5 -32.5t79.5 -23.5t79.5 -29.5t61.5 -51.5t24.5 -87.5q0 -66 -47 -108.5t-127 -50.5v-167h-68v166z" />
    <glyph glyph-name="cent" unicode="&#xa2;" horiz-adv-x="576" 
d="M87 336q0 50 14.5 93t40.5 76t62.5 54t81.5 27v150h68v-147q76 -4 149 -53l-33 -55q-32 22 -63.5 33.5t-65.5 11.5q-38 0 -70 -14t-55 -39t-35.5 -60t-12.5 -77t12.5 -77t35.5 -60t55 -39t70 -14q34 0 65.5 11.5t63.5 33.5l33 -55q-73 -49 -149 -53v-147h-68v150
q-45 6 -81.5 27t-62.5 54t-40.5 76t-14.5 93z" />
    <glyph glyph-name="Euro" unicode="&#x20ac;" horiz-adv-x="576" 
d="M34 297h70q-1 10 -1 19v20v27.5t2 27.5h-71v50h81q12 56 37 101t60 76.5t78.5 48.5t93.5 17q93 0 175 -47l-31 -55q-32 18 -65 28t-70 10q-73 0 -125.5 -49t-71.5 -130h245v-50h-259q-2 -14 -2 -27.5v-27.5v-20t1 -19h260v-50h-249q17 -89 70 -142t131 -53q37 0 70 10
t65 28l31 -55q-82 -47 -175 -47q-51 0 -96 18t-80.5 52t-60 82t-36.5 107h-77v50z" />
    <glyph glyph-name="florin" unicode="&#x192;" horiz-adv-x="576" 
d="M143 428h97v127q0 58 37.5 93.5t95.5 35.5q46 0 92 -13l-11 -64q-33 10 -62 10q-30 0 -49.5 -18.5t-19.5 -49.5v-121h121v-63h-121v-248q0 -58 -38 -93.5t-96 -35.5q-44 0 -92 13l12 64q17 -5 33 -7.5t30 -2.5q29 0 48.5 18.5t19.5 49.5v242h-97v63z" />
    <glyph glyph-name="sterling" unicode="&#xa3;" horiz-adv-x="576" 
d="M68 64h101v249h-85v62h85v125q0 41 14.5 75t41 58t63 37.5t80.5 13.5q70 0 148 -31l-21 -60q-57 24 -112 24q-59 0 -95 -34t-36 -89v-119h187v-62h-187v-249h272v-64h-456v64z" />
    <glyph glyph-name="yen" unicode="&#xa5;" horiz-adv-x="576" 
d="M247 152h-163v57h163v93h-163v57h141l-201 313h88l176 -285l176 285h88l-201 -313h141v-57h-163v-93h163v-57h-163v-152h-82v152z" />
    <glyph glyph-name="numbersign" unicode="#" horiz-adv-x="652" 
d="M16 241h134l36 190h-122v62h134l35 185l62 -9l-33 -176h188l35 185l62 -9l-33 -176h122v-62h-134l-37 -190h122v-62h-134l-35 -185l-62 9l34 176h-188l-35 -185l-62 9l33 176h-122v62zM214 241h188l36 190h-188z" />
    <glyph glyph-name="percent" unicode="%" horiz-adv-x="864" 
d="M487 168q0 39 12.5 72t34.5 57t52.5 37.5t66.5 13.5t67 -13.5t53 -37.5t34.5 -57t12.5 -72q0 -40 -12.5 -73t-34.5 -57t-53 -37t-67 -13t-66.5 13t-52.5 37t-34.5 57t-12.5 73zM548 168q0 -59 29 -95t76 -36t76.5 36t29.5 95q0 58 -29.5 94.5t-76.5 36.5t-76 -36.5
t-29 -94.5zM44 504q0 39 12.5 72t34.5 57t53 37.5t67 13.5t66.5 -13.5t52.5 -37.5t34.5 -57t12.5 -72q0 -40 -12.5 -73t-34.5 -57t-52.5 -37t-66.5 -13t-67 13t-53 37t-34.5 57t-12.5 73zM105 504q0 -59 29.5 -95t76.5 -36t76 36t29 95q0 58 -29 94.5t-76 36.5t-76.5 -36.5
t-29.5 -94.5zM663 688l42 -32l-504 -672l-42 32z" />
    <glyph glyph-name="perthousand" unicode="&#x2030;" horiz-adv-x="1249" 
d="M872 168q0 39 12.5 72t34.5 57t52.5 37.5t67.5 13.5q36 0 66.5 -13.5t52.5 -37.5t34.5 -57t12.5 -72q0 -40 -12.5 -73t-34.5 -57t-52.5 -37t-66.5 -13q-37 0 -67.5 13t-52.5 37t-34.5 57t-12.5 73zM933 168q0 -59 29 -95t77 -36q47 0 76 36t29 95q0 58 -29 94.5t-76 36.5
q-48 0 -77 -36.5t-29 -94.5zM487 168q0 39 12.5 72t34.5 57t52.5 37.5t66.5 13.5t67 -13.5t53 -37.5t34.5 -57t12.5 -72q0 -40 -12.5 -73t-34.5 -57t-53 -37t-67 -13t-66.5 13t-52.5 37t-34.5 57t-12.5 73zM548 168q0 -59 29 -95t76 -36t76.5 36t29.5 95q0 58 -29.5 94.5
t-76.5 36.5t-76 -36.5t-29 -94.5zM44 504q0 39 12.5 72t34.5 57t53 37.5t67 13.5t66.5 -13.5t52.5 -37.5t34.5 -57t12.5 -72q0 -40 -12.5 -73t-34.5 -57t-52.5 -37t-66.5 -13t-67 13t-53 37t-34.5 57t-12.5 73zM105 504q0 -59 29.5 -95t76.5 -36t76 36t29 95q0 58 -29 94.5
t-76 36.5t-76.5 -36.5t-29.5 -94.5zM663 688l42 -32l-504 -672l-42 32z" />
    <glyph glyph-name="plus" unicode="+" horiz-adv-x="576" 
d="M52 322h202v202h68v-202h202v-68h-202v-202h-68v202h-202v68z" />
    <glyph glyph-name="minus" unicode="&#x2212;" horiz-adv-x="576" 
d="M52 322h472v-68h-472v68z" />
    <glyph glyph-name="multiply" unicode="&#xd7;" horiz-adv-x="576" 
d="M75 123l165 165l-165 165l48 48l165 -165l165 165l48 -48l-165 -165l165 -165l-48 -48l-165 165l-165 -165z" />
    <glyph glyph-name="less" unicode="&#x3c;" horiz-adv-x="576" 
d="M52 322l451 208l28 -65l-386 -177l386 -177l-28 -65l-451 208v68z" />
    <glyph glyph-name="divide" unicode="&#xf7;" horiz-adv-x="576" 
d="M52 319h472v-62h-472v62zM242 480q0 20 13 33t33 13t33 -12t13 -34q0 -20 -13 -33t-33 -13t-33 13t-13 33zM242 96q0 20 13 33t33 13t33 -13t13 -33t-13 -33t-33 -13t-33 13t-13 33z" />
    <glyph glyph-name="equal" unicode="=" horiz-adv-x="576" 
d="M52 430h472v-69h-472v69zM52 215h472v-69h-472v69z" />
    <glyph glyph-name="logicalnot" unicode="&#xac;" horiz-adv-x="576" 
d="M52 322h472v-270h-69v202h-403v68z" />
    <glyph glyph-name="greater" unicode="&#x3e;" horiz-adv-x="576" 
d="M524 254l-451 -208l-28 65l386 177l-386 177l28 65l451 -208v-68z" />
    <glyph glyph-name="notequal" unicode="&#x2260;" horiz-adv-x="576" 
d="M52 427h267l72 144l61 -30l-57 -114h129v-68h-163l-70 -142h233v-68h-267l-72 -144l-61 30l56 114h-128v68h162l71 142h-233v68z" />
    <glyph glyph-name="approxequal" unicode="&#x2248;" horiz-adv-x="576" 
d="M41 183q65 56 145 56q32 0 57 -7.5t48 -16.5t46.5 -16.5t52.5 -7.5q31 0 56.5 10t51.5 33l37 -57q-66 -55 -145 -55q-32 0 -57 7.5t-48 16.5t-46.5 16.5t-52.5 7.5q-31 0 -56.5 -10.5t-51.5 -33.5zM41 399q66 55 145 55q32 0 57 -7.5t48 -16.5t46.5 -16.5t52.5 -7.5
q31 0 56.5 10.5t51.5 33.5l37 -57q-65 -56 -145 -56q-32 0 -57 7.5t-48 16.5t-46.5 16.5t-52.5 7.5q-31 0 -56.5 -10t-51.5 -33z" />
    <glyph glyph-name="plusminus" unicode="&#xb1;" horiz-adv-x="576" 
d="M52 68h472v-68h-472v68zM52 411h202v201h68v-201h202v-68h-202v-202h-68v202h-202v68z" />
    <glyph glyph-name="lessequal" unicode="&#x2264;" horiz-adv-x="576" 
d="M52 68h472v-68h-472v68zM52 411l451 208l28 -65l-386 -177l386 -178l-28 -64l-451 208v68z" />
    <glyph glyph-name="greaterequal" unicode="&#x2265;" horiz-adv-x="576" 
d="M524 343l-451 -208l-28 64l386 178l-386 177l28 65l451 -208v-68zM52 68h472v-68h-472v68z" />
    <glyph glyph-name="asciicircum" unicode="^" horiz-adv-x="576" 
d="M322 672l208 -456l-65 -25l-177 389l-177 -389l-65 25l208 456h68z" />
    <glyph glyph-name="asciitilde" unicode="~" horiz-adv-x="576" 
d="M41 291q66 55 145 55q32 0 57 -7.5t48 -16.5t46.5 -16.5t52.5 -7.5q31 0 56.5 10.5t51.5 33.5l37 -57q-66 -55 -145 -55q-32 0 -57 7.5t-48 16.5t-46.5 16.5t-52.5 7.5q-31 0 -56.5 -10.5t-51.5 -33.5z" />
    <glyph glyph-name="lozenge" unicode="&#x25ca;" horiz-adv-x="576" 
d="M41 336l213 336h68l213 -336l-213 -336h-68zM123 336l165 -263l165 263l-165 261z" />
    <glyph glyph-name="degree" unicode="&#xb0;" horiz-adv-x="332" 
d="M46 561q0 54 33.5 87t86.5 33t86.5 -33t33.5 -87q0 -53 -33.5 -86t-86.5 -33t-86.5 33t-33.5 86zM92 561q0 -32 21 -52.5t53 -20.5t52.5 20.5t20.5 52.5q0 33 -20.5 53.5t-52.5 20.5t-53 -20.5t-21 -53.5z" />
    <glyph glyph-name="quotesingle" unicode="'" horiz-adv-x="215" 
d="M70 672h75l-7 -221h-61z" />
    <glyph glyph-name="quotedbl" unicode="&#x22;" horiz-adv-x="404" 
d="M70 672h75l-7 -221h-61zM259 672h75l-7 -221h-61z" />
    <glyph glyph-name="radical" unicode="&#x221a;" horiz-adv-x="663" 
d="M383 -208h-83l-115 338l-162 -52l-21 64l227 73l111 -326l236 825l67 -17z" />
    <glyph glyph-name="currency" unicode="&#xa4;" horiz-adv-x="576" 
d="M52 148l81 81q-33 42 -33 107q0 63 32 107l-80 81l48 48l80 -81q43 33 108 33q63 0 107 -33l81 81l48 -48l-81 -81q33 -44 33 -107t-33 -107l81 -81l-48 -48l-81 81q-22 -16 -48.5 -24.5t-58.5 -8.5q-63 0 -107 33l-81 -81zM162 336q0 -56 35 -90.5t91 -34.5t91 34.5
t35 90.5t-35 91t-91 35t-91 -35t-35 -91z" />
    <glyph glyph-name="infinity" unicode="&#x221e;" horiz-adv-x="785" 
d="M36 288q0 42 12.5 77t35 60.5t54.5 40t71 14.5q59 0 101 -32.5t83 -102.5q40 70 82.5 102.5t101.5 32.5q39 0 70.5 -14.5t54 -40t35 -60.5t12.5 -77q0 -41 -12.5 -76.5t-35 -61t-54 -40t-70.5 -14.5q-59 0 -101.5 32.5t-82.5 102.5q-41 -70 -83 -102.5t-101 -32.5
q-39 0 -71 14t-54.5 39.5t-35 61t-12.5 77.5zM110 288q0 -57 29.5 -92.5t79.5 -35.5q45 0 75.5 31.5t62.5 96.5q-32 65 -62.5 96.5t-75.5 31.5q-50 0 -79.5 -36t-29.5 -92zM675 288q0 57 -29.5 92.5t-78.5 35.5q-44 0 -75.5 -32t-63.5 -96q32 -65 63.5 -96.5t75.5 -31.5
q49 0 78.5 36t29.5 92z" />
    <glyph glyph-name="uni00B5" unicode="&#xb5;" horiz-adv-x="607" 
d="M79 486h79v-306q0 -56 36 -90.5t92 -34.5q31 0 58 11.5t47 32t31 49.5t11 64v274h80v-389q0 -20 11.5 -32t31.5 -12q7 0 14.5 1t12.5 2l7 -63q-12 -2 -25.5 -3.5t-27.5 -1.5q-43 0 -69 24t-28 65q-26 -43 -67 -65.5t-89 -22.5q-42 0 -74 15t-52 44v-256h-79v694z" />
    <glyph glyph-name="partialdiff" unicode="&#x2202;" 
d="M44 254q0 53 17 97.5t47 77t71.5 51t89.5 18.5q58 0 104.5 -24.5t74.5 -72.5q-6 125 -54.5 188t-131.5 63q-30 0 -65 -9t-73 -28l-29 58q45 23 88 33t85 10q124 0 193.5 -96.5t69.5 -303.5q0 -77 -17.5 -137.5t-50 -103t-78.5 -65t-102 -22.5q-53 0 -96.5 19.5
t-75.5 54.5t-49.5 84t-17.5 108zM121 249q0 -43 12.5 -79t34 -61.5t52 -39.5t66.5 -14t66 16t52 44.5t34.5 68t12.5 86.5q0 34 -12 63.5t-34 51t-52.5 34t-66.5 12.5t-66.5 -13.5t-52 -37.5t-34 -57.5t-12.5 -73.5z" />
    <glyph glyph-name="summation" unicode="&#x2211;" horiz-adv-x="630" 
d="M41 -158l326 414l-310 398v50h534v-65h-424l280 -363v-40l-296 -379h456v-65h-566v50z" />
    <glyph glyph-name="product" unicode="&#x220f;" horiz-adv-x="785" 
d="M100 704h586v-912h-83v847h-421v-847h-82v912z" />
    <glyph glyph-name="integral" unicode="&#x222b;" horiz-adv-x="401" 
d="M170 547q0 -41 10.5 -88t26.5 -98t34.5 -104t34.5 -105t26.5 -102t10.5 -95q0 -38 -11 -70.5t-31 -55.5t-47 -36t-60 -13q-41 0 -80 13l16 64q26 -10 52 -10q35 0 57 28.5t22 73.5q0 61 -22 136t-49 153.5t-49 156.5t-22 146q0 38 11 70t30.5 55.5t47 36.5t60.5 13
q40 0 80 -13l-16 -64q-26 10 -53 10q-35 0 -57 -28.5t-22 -73.5z" />
    <glyph glyph-name="litre" unicode="&#x2113;" horiz-adv-x="381" 
d="M355 563q0 -84 -52.5 -163t-149.5 -143v-121q0 -37 23 -60t60 -23q31 0 72 11l11 -63q-48 -13 -94 -13q-32 0 -58.5 10.5t-46 29.5t-30.5 45t-11 57v429q0 35 10 64t29 49.5t44.5 32t57.5 11.5q29 0 54 -11.5t43 -31.5t28 -48.5t10 -61.5zM292 553q0 43 -19 70t-50 27
q-32 0 -51 -26.5t-19 -68.5v-224q66 49 102.5 105.5t36.5 116.5z" />
    <glyph glyph-name="estimated" unicode="&#x212e;" horiz-adv-x="960" 
d="M480 16q73 0 135.5 30t107.5 82h66q-53 -66 -133 -105t-176 -39q-80 0 -149.5 27.5t-122 75.5t-82.5 112t-30 137t30 137t82.5 112t122 75.5t149.5 27.5q79 0 149 -27.5t122.5 -75.5t82.5 -112t30 -137q0 -11 -1 -16h-623v-196q44 -51 106 -79.5t134 -28.5zM240 352h480
v196q-45 50 -106.5 79t-133.5 29t-134 -29t-106 -79v-196z" />
    <glyph glyph-name="numero" unicode="&#x2116;" horiz-adv-x="1176" 
d="M100 672h81l409 -558v558h77v-672h-81l-409 558v-558h-77v672zM809 276h325v-45h-325v45zM804 513q0 37 12.5 68.5t34.5 54t52.5 35t67.5 12.5t67.5 -12.5t52.5 -35t34.5 -54t12.5 -68.5t-12.5 -68t-34.5 -53.5t-52.5 -35t-67.5 -12.5t-67.5 12.5t-52.5 35t-34.5 53.5
t-12.5 68zM866 513q0 -54 29.5 -87t75.5 -33q47 0 76 33t29 87t-29 87.5t-76 33.5q-46 0 -75.5 -33.5t-29.5 -87.5z" />
    <glyph glyph-name="ordfeminine" unicode="&#xaa;" horiz-adv-x="384" 
d="M26 276h331v-45h-331v45zM37 442q0 50 40 77.5t109 27.5q33 0 70 -8v27q0 32 -21 51.5t-56 19.5q-25 0 -51.5 -5.5t-55.5 -18.5l-16 43q69 27 128 27q58 0 93.5 -32.5t35.5 -86.5v-146q0 -26 26 -26q11 0 19 2l5 -47q-17 -3 -38 -3q-25 0 -42.5 13.5t-22.5 36.5
q-39 -50 -109 -50q-49 0 -81.5 28t-32.5 70zM96 445q0 -25 19.5 -41t49.5 -16q40 0 65.5 24.5t25.5 62.5v28q-34 8 -64 8q-45 0 -70.5 -17t-25.5 -49z" />
    <glyph glyph-name="ordmasculine" unicode="&#xba;" horiz-adv-x="409" 
d="M42 276h325v-45h-325v45zM37 513q0 37 12.5 68.5t35 54t53 35t67.5 12.5q36 0 67 -12.5t53 -35t34.5 -54t12.5 -68.5t-12.5 -68t-34.5 -53.5t-53 -35t-67 -12.5q-37 0 -67.5 12.5t-53 35t-35 53.5t-12.5 68zM100 513q0 -54 29 -87t76 -33q46 0 75 33t29 87t-29 87.5
t-75 33.5q-47 0 -76 -33.5t-29 -87.5z" />
    <glyph glyph-name="onesuperior" unicode="&#xb9;" horiz-adv-x="272" 
d="M198 384h-60v355l-102 -58l-23 42l135 77h50v-416z" />
    <glyph glyph-name="twosuperior" unicode="&#xb2;" horiz-adv-x="342" 
d="M24 423l159 158q23 24 35.5 47.5t12.5 47.5q0 35 -22 57.5t-59 22.5q-26 0 -50.5 -9t-50.5 -26l-24 45q67 42 135 42q58 0 94 -35t36 -89q0 -66 -58 -125l-125 -126h189v-49h-272v39z" />
    <glyph glyph-name="threesuperior" unicode="&#xb3;" horiz-adv-x="342" 
d="M109 618h28q41 0 66 20.5t25 52.5q0 30 -20.5 49t-54.5 19q-23 0 -48.5 -6t-54.5 -20l-20 45q35 17 68 23.5t64 6.5q57 0 92 -31t35 -81q0 -35 -19.5 -60.5t-51.5 -36.5q36 -12 58.5 -40t22.5 -66q0 -52 -38.5 -84.5t-98.5 -32.5q-33 0 -68 7.5t-71 25.5l20 44
q29 -15 56 -21.5t52 -6.5q39 0 62.5 20.5t23.5 52.5q0 35 -27.5 56.5t-72.5 21.5h-28v42z" />
    <glyph glyph-name="fraction" unicode="&#x2044;" horiz-adv-x="192" 
d="M327 688l42 -32l-504 -672l-42 32z" />
    <glyph glyph-name="onehalf" unicode="&#xbd;" horiz-adv-x="960" 
d="M254 256h-60v355l-102 -58l-23 42l135 77h50v-416zM711 688l42 -32l-504 -672l-42 32zM621 39l159 158q23 24 35.5 47.5t12.5 47.5q0 35 -22 57.5t-59 22.5q-26 0 -50.5 -9t-50.5 -26l-24 45q67 42 135 42q58 0 94 -35t36 -89q0 -66 -58 -125l-125 -126h189v-49h-272v39z
" />
    <glyph glyph-name="onequarter" unicode="&#xbc;" horiz-adv-x="960" 
d="M808 94h-201v43l198 279h58v-276h61v-46h-61v-94h-55v94zM808 140v205l-144 -205h144zM254 256h-60v355l-102 -58l-23 42l135 77h50v-416zM711 688l42 -32l-504 -672l-42 32z" />
    <glyph glyph-name="threequarters" unicode="&#xbe;" horiz-adv-x="960" 
d="M808 94h-201v43l198 279h58v-276h61v-46h-61v-94h-55v94zM808 140v205l-144 -205h144zM130 490h28q41 0 66 20.5t25 52.5q0 30 -20.5 49t-54.5 19q-23 0 -48.5 -6t-54.5 -20l-20 45q35 17 68 23.5t64 6.5q57 0 92 -31t35 -81q0 -35 -19.5 -60.5t-51.5 -36.5
q36 -12 58.5 -40t22.5 -66q0 -52 -38.5 -84.5t-98.5 -32.5q-33 0 -68 7.5t-71 25.5l20 44q29 -15 56 -21.5t52 -6.5q39 0 62.5 20.5t23.5 52.5q0 35 -27.5 56.5t-72.5 21.5h-28v42zM711 688l42 -32l-504 -672l-42 32z" />
    <glyph glyph-name="Agrave" unicode="&#xc0;" horiz-adv-x="671" 
d="M297 672h77l277 -672h-84l-74 184h-315l-74 -184h-84zM201 247h268l-134 331zM404 782l-31 -45l-175 111l36 52z" />
    <glyph glyph-name="Aacute" unicode="&#xc1;" horiz-adv-x="671" 
d="M297 672h77l277 -672h-84l-74 184h-315l-74 -184h-84zM201 247h268l-134 331zM303 737l-31 45l170 118l36 -52z" />
    <glyph glyph-name="Acircumflex" unicode="&#xc2;" horiz-adv-x="671" 
d="M297 672h77l277 -672h-84l-74 184h-315l-74 -184h-84zM201 247h268l-134 331zM310 896h50l123 -119l-35 -38l-113 100l-113 -100l-35 38z" />
    <glyph glyph-name="Atilde" unicode="&#xc3;" horiz-adv-x="671" 
d="M297 672h77l277 -672h-84l-74 184h-315l-74 -184h-84zM201 247h268l-134 331zM271 867q17 0 34 -6t32.5 -12.5t29.5 -12.5t26 -6q31 0 42 37l51 -15q-8 -35 -31 -57t-56 -22q-17 0 -34 6t-32.5 12.5t-29.5 12.5t-26 6q-31 0 -42 -37l-51 16q8 35 31 56.5t56 21.5z" />
    <glyph glyph-name="Adieresis" unicode="&#xc4;" horiz-adv-x="671" 
d="M297 672h77l277 -672h-84l-74 184h-315l-74 -184h-84zM201 247h268l-134 331zM189 820q0 22 13.5 35.5t35.5 13.5t35.5 -13.5t13.5 -35.5t-13.5 -35.5t-35.5 -13.5t-35.5 13.5t-13.5 35.5zM399 820q0 22 13.5 35.5t35.5 13.5t35.5 -13.5t13.5 -35.5t-13.5 -35.5
t-35.5 -13.5t-35.5 13.5t-13.5 35.5z" />
    <glyph glyph-name="Amacron" unicode="&#x100;" horiz-adv-x="671" 
d="M297 672h77l277 -672h-84l-74 184h-315l-74 -184h-84zM201 247h268l-134 331zM187 849h296v-57h-296v57z" />
    <glyph glyph-name="Abreve" unicode="&#x102;" horiz-adv-x="671" 
d="M297 672h77l277 -672h-84l-74 184h-315l-74 -184h-84zM201 247h268l-134 331zM240 880q3 -39 29 -63t66 -24t66 24t29 63h53q-1 -33 -12.5 -59t-31.5 -45t-46.5 -29t-57.5 -10t-57.5 10t-46.5 29t-31.5 45t-12.5 59h53z" />
    <glyph glyph-name="Acaron" unicode="&#x1cd;" horiz-adv-x="671" 
d="M297 672h77l277 -672h-84l-74 184h-315l-74 -184h-84zM201 247h268l-134 331zM361 745h-50l-123 118l35 39l113 -101l113 101l35 -39z" />
    <glyph glyph-name="Aring" unicode="&#xc5;" horiz-adv-x="671" 
d="M297 672h77l277 -672h-84l-74 184h-315l-74 -184h-84zM201 247h268l-134 331zM235 820q0 43 27.5 70t72.5 27t72.5 -27t27.5 -70t-27 -70t-72 -27t-73 27t-28 70zM278 820q0 -26 16 -41.5t42 -15.5t41 15.5t15 41.5t-15.5 42t-41.5 16t-41.5 -16t-15.5 -42z" />
    <glyph glyph-name="Aringacute" unicode="&#x1fa;" horiz-adv-x="692" 
d="M287 815q0 -26 17 -42.5t43 -16.5t42 16.5t16 42.5t-16.5 42.5t-42.5 16.5t-42.5 -16.5t-16.5 -42.5zM393 899q25 -11 39 -33t14 -51q0 -42 -27 -68t-72 -26t-73 26t-28 68q0 27 12.5 48t35.5 36l162 109l33 -50zM297 672h77l277 -672h-84l-74 184h-315l-74 -184h-84z
M201 247h268l-134 331z" />
    <glyph glyph-name="Aogonek" unicode="&#x104;" horiz-adv-x="676" 
d="M297 672h77l277 -672q-42 -33 -66.5 -64.5t-24.5 -62.5q0 -22 14.5 -34.5t35.5 -12.5q20 0 41 8l11 -46q-33 -13 -69 -13q-41 0 -67.5 22.5t-26.5 62.5q0 36 24 72t67 68h-23l-74 184h-315l-74 -184h-84zM201 247h268l-134 331z" />
    <glyph glyph-name="AE" unicode="&#xc6;" horiz-adv-x="972" 
d="M476 184h-268l-121 -184h-94l446 672h464v-64h-347v-233h315v-62h-315v-249h363v-64h-443v184zM245 247h231v351z" />
    <glyph glyph-name="AEacute" unicode="&#x1fc;" horiz-adv-x="972" 
d="M476 184h-268l-121 -184h-94l446 672h464v-64h-347v-233h315v-62h-315v-249h363v-64h-443v184zM245 247h231v351zM542 737l-31 45l170 118l36 -52z" />
    <glyph glyph-name="Cacute" unicode="&#x106;" horiz-adv-x="646" 
d="M49 336q0 77 24 141t68 110t104.5 71.5t134.5 25.5q58 0 115.5 -18.5t111.5 -55.5l-35 -56q-42 30 -88 46t-93 16q-57 0 -104.5 -20.5t-81.5 -57.5t-52.5 -88.5t-18.5 -113.5t18.5 -113.5t52.5 -88.5t81.5 -57.5t104.5 -20.5q47 0 93 16t88 46l35 -56
q-54 -37 -111.5 -55.5t-115.5 -18.5q-74 0 -134.5 25.5t-104.5 71.5t-68 110t-24 141zM339 737l-31 45l170 118l36 -52z" />
    <glyph glyph-name="Ccedilla" unicode="&#xc7;" horiz-adv-x="646" 
d="M49 336q0 77 24 141t68 110t104.5 71.5t134.5 25.5q58 0 115.5 -18.5t111.5 -55.5l-35 -56q-42 30 -88 46t-93 16q-57 0 -104.5 -20.5t-81.5 -57.5t-52.5 -88.5t-18.5 -113.5t18.5 -113.5t52.5 -88.5t81.5 -57.5t104.5 -20.5q47 0 93 16t88 46l35 -56q-48 -34 -99 -51.5
t-103 -21.5l-8 -45q33 -5 53.5 -28t20.5 -54q0 -38 -31.5 -62.5t-82.5 -24.5q-21 0 -45 4.5t-47 13.5l15 47q39 -14 70 -14q24 0 40 11.5t16 31.5t-17 31.5t-44 11.5h-10l14 79q-67 5 -122.5 32t-95 72t-61 106.5t-21.5 134.5z" />
    <glyph glyph-name="Ccircumflex" unicode="&#x108;" horiz-adv-x="646" 
d="M49 336q0 77 24 141t68 110t104.5 71.5t134.5 25.5q58 0 115.5 -18.5t111.5 -55.5l-35 -56q-42 30 -88 46t-93 16q-57 0 -104.5 -20.5t-81.5 -57.5t-52.5 -88.5t-18.5 -113.5t18.5 -113.5t52.5 -88.5t81.5 -57.5t104.5 -20.5q47 0 93 16t88 46l35 -56
q-54 -37 -111.5 -55.5t-115.5 -18.5q-74 0 -134.5 25.5t-104.5 71.5t-68 110t-24 141zM346 896h50l123 -119l-35 -38l-113 100l-113 -100l-35 38z" />
    <glyph glyph-name="Ccaron" unicode="&#x10c;" horiz-adv-x="646" 
d="M49 336q0 77 24 141t68 110t104.5 71.5t134.5 25.5q58 0 115.5 -18.5t111.5 -55.5l-35 -56q-42 30 -88 46t-93 16q-57 0 -104.5 -20.5t-81.5 -57.5t-52.5 -88.5t-18.5 -113.5t18.5 -113.5t52.5 -88.5t81.5 -57.5t104.5 -20.5q47 0 93 16t88 46l35 -56
q-54 -37 -111.5 -55.5t-115.5 -18.5q-74 0 -134.5 25.5t-104.5 71.5t-68 110t-24 141zM396 745h-50l-123 118l35 39l113 -101l113 101l35 -39z" />
    <glyph glyph-name="Cdotaccent" unicode="&#x10a;" horiz-adv-x="646" 
d="M49 336q0 77 24 141t68 110t104.5 71.5t134.5 25.5q58 0 115.5 -18.5t111.5 -55.5l-35 -56q-42 30 -88 46t-93 16q-57 0 -104.5 -20.5t-81.5 -57.5t-52.5 -88.5t-18.5 -113.5t18.5 -113.5t52.5 -88.5t81.5 -57.5t104.5 -20.5q47 0 93 16t88 46l35 -56
q-54 -37 -111.5 -55.5t-115.5 -18.5q-74 0 -134.5 25.5t-104.5 71.5t-68 110t-24 141zM319 820q0 23 14.5 37.5t37.5 14.5t37.5 -14.5t14.5 -37.5t-14.5 -37.5t-37.5 -14.5t-37.5 14.5t-14.5 37.5z" />
    <glyph glyph-name="Dcaron" unicode="&#x10e;" horiz-adv-x="719" 
d="M100 672h227q76 0 139 -24.5t108 -68.5t70 -106t25 -137q0 -74 -25 -136t-70 -106.5t-108 -69t-139 -24.5h-227v672zM585 336q0 60 -19.5 109.5t-54.5 85.5t-84 56t-108 20h-137v-542h137q59 0 108 20t84 56t54.5 85.5t19.5 109.5zM368 745h-50l-123 118l35 39l113 -101
l113 101l35 -39z" />
    <glyph glyph-name="Dcroat" unicode="&#x110;" horiz-adv-x="735" 
d="M116 313h-90v62h90v297h227q76 0 139 -24.5t108 -68.5t70 -106t25 -137q0 -74 -25 -136t-70 -106.5t-108 -69t-139 -24.5h-227v313zM604 336q0 60 -19.5 109.5t-55 85.5t-84.5 56t-108 20h-141v-232h173v-62h-173v-248h141q59 0 108 20t84.5 56t55 85.5t19.5 109.5z" />
    <glyph glyph-name="Eth" unicode="&#xd0;" horiz-adv-x="735" 
d="M116 313h-90v62h90v297h227q76 0 139 -24.5t108 -68.5t70 -106t25 -137q0 -74 -25 -136t-70 -106.5t-108 -69t-139 -24.5h-227v313zM604 336q0 60 -19.5 109.5t-55 85.5t-84.5 56t-108 20h-141v-232h173v-62h-173v-248h141q59 0 108 20t84.5 56t55 85.5t19.5 109.5z" />
    <glyph glyph-name="Egrave" unicode="&#xc8;" horiz-adv-x="598" 
d="M100 672h429v-64h-347v-233h315v-62h-315v-249h363v-64h-445v672zM376 782l-31 -45l-175 111l36 52z" />
    <glyph glyph-name="Eacute" unicode="&#xc9;" horiz-adv-x="598" 
d="M100 672h429v-64h-347v-233h315v-62h-315v-249h363v-64h-445v672zM275 737l-31 45l170 118l36 -52z" />
    <glyph glyph-name="Ecircumflex" unicode="&#xca;" horiz-adv-x="598" 
d="M100 672h429v-64h-347v-233h315v-62h-315v-249h363v-64h-445v672zM282 896h50l123 -119l-35 -38l-113 100l-113 -100l-35 38z" />
    <glyph glyph-name="Ecaron" unicode="&#x11a;" horiz-adv-x="598" 
d="M100 672h429v-64h-347v-233h315v-62h-315v-249h363v-64h-445v672zM332 745h-50l-123 118l35 39l113 -101l113 101l35 -39z" />
    <glyph glyph-name="Edieresis" unicode="&#xcb;" horiz-adv-x="598" 
d="M100 672h429v-64h-347v-233h315v-62h-315v-249h363v-64h-445v672zM153 820q0 22 13.5 35.5t35.5 13.5t35.5 -13.5t13.5 -35.5t-13.5 -35.5t-35.5 -13.5t-35.5 13.5t-13.5 35.5zM363 820q0 22 13.5 35.5t35.5 13.5t35.5 -13.5t13.5 -35.5t-13.5 -35.5t-35.5 -13.5
t-35.5 13.5t-13.5 35.5z" />
    <glyph glyph-name="Emacron" unicode="&#x112;" horiz-adv-x="598" 
d="M100 672h429v-64h-347v-233h315v-62h-315v-249h363v-64h-445v672zM159 849h296v-57h-296v57z" />
    <glyph glyph-name="Ebreve" unicode="&#x114;" horiz-adv-x="598" 
d="M100 672h429v-64h-347v-233h315v-62h-315v-249h363v-64h-445v672zM208 880q3 -39 29 -63t66 -24t66 24t29 63h53q-1 -33 -12.5 -59t-31.5 -45t-46.5 -29t-57.5 -10t-57.5 10t-46.5 29t-31.5 45t-12.5 59h53z" />
    <glyph glyph-name="Edotaccent" unicode="&#x116;" horiz-adv-x="598" 
d="M100 672h429v-64h-347v-233h315v-62h-315v-249h363v-64h-445v672zM255 820q0 23 14.5 37.5t37.5 14.5t37.5 -14.5t14.5 -37.5t-14.5 -37.5t-37.5 -14.5t-37.5 14.5t-14.5 37.5z" />
    <glyph glyph-name="Eogonek" unicode="&#x118;" horiz-adv-x="598" 
d="M100 672h429v-64h-347v-233h315v-62h-315v-249h363v-64q-42 -33 -66.5 -64.5t-24.5 -62.5q0 -22 14.5 -34.5t35.5 -12.5q20 0 41 8l11 -46q-33 -13 -69 -13q-41 0 -67.5 22.5t-26.5 62.5q0 36 24 72t67 68h-384v672z" />
    <glyph glyph-name="Gcircumflex" unicode="&#x11c;" horiz-adv-x="703" 
d="M634 43q-118 -55 -238 -55q-77 0 -140.5 25.5t-109.5 72t-71.5 110t-25.5 140.5q0 76 25 140t70 110.5t107 72t137 25.5q116 0 235 -67l-31 -57q-51 28 -99 43.5t-96 15.5q-59 0 -108 -21t-84 -58.5t-54.5 -89.5t-19.5 -114t20 -114t55.5 -89.5t85.5 -58.5t110 -21
q81 0 155 34v200h-169v62h246v-306zM357 896h50l123 -119l-35 -38l-113 100l-113 -100l-35 38z" />
    <glyph glyph-name="Gbreve" unicode="&#x11e;" horiz-adv-x="703" 
d="M634 43q-118 -55 -238 -55q-77 0 -140.5 25.5t-109.5 72t-71.5 110t-25.5 140.5q0 76 25 140t70 110.5t107 72t137 25.5q116 0 235 -67l-31 -57q-51 28 -99 43.5t-96 15.5q-59 0 -108 -21t-84 -58.5t-54.5 -89.5t-19.5 -114t20 -114t55.5 -89.5t85.5 -58.5t110 -21
q81 0 155 34v200h-169v62h246v-306zM283 880q3 -39 29 -63t66 -24t66 24t29 63h53q-1 -33 -12.5 -59t-31.5 -45t-46.5 -29t-57.5 -10t-57.5 10t-46.5 29t-31.5 45t-12.5 59h53z" />
    <glyph glyph-name="Gdotaccent" unicode="&#x120;" horiz-adv-x="703" 
d="M634 43q-118 -55 -238 -55q-77 0 -140.5 25.5t-109.5 72t-71.5 110t-25.5 140.5q0 76 25 140t70 110.5t107 72t137 25.5q116 0 235 -67l-31 -57q-51 28 -99 43.5t-96 15.5q-59 0 -108 -21t-84 -58.5t-54.5 -89.5t-19.5 -114t20 -114t55.5 -89.5t85.5 -58.5t110 -21
q81 0 155 34v200h-169v62h246v-306zM330 820q0 23 14.5 37.5t37.5 14.5t37.5 -14.5t14.5 -37.5t-14.5 -37.5t-37.5 -14.5t-37.5 14.5t-14.5 37.5z" />
    <glyph glyph-name="Gcommaaccent" unicode="&#x122;" horiz-adv-x="703" 
d="M634 43q-118 -55 -238 -55q-77 0 -140.5 25.5t-109.5 72t-71.5 110t-25.5 140.5q0 76 25 140t70 110.5t107 72t137 25.5q116 0 235 -67l-31 -57q-51 28 -99 43.5t-96 15.5q-59 0 -108 -21t-84 -58.5t-54.5 -89.5t-19.5 -114t20 -114t55.5 -89.5t85.5 -58.5t110 -21
q81 0 155 34v200h-169v62h246v-306zM333 -109q0 22 13.5 35.5t35.5 13.5q24 0 38.5 -17.5t14.5 -47.5q0 -48 -24.5 -88.5t-70.5 -68.5l-23 31q56 43 61 99q-19 -1 -32 11.5t-13 31.5z" />
    <glyph glyph-name="Hcircumflex" unicode="&#x124;" horiz-adv-x="767" 
d="M100 672h82v-295h402v295h83v-672h-83v311h-402v-311h-82v672zM358 896h50l123 -119l-35 -38l-113 100l-113 -100l-35 38z" />
    <glyph glyph-name="Hbar" unicode="&#x126;" horiz-adv-x="767" 
d="M100 521h-74v56h74v95h82v-95h402v95h83v-95h73v-56h-73v-521h-83v311h-402v-311h-82v521zM584 377v144h-402v-144h402z" />
    <glyph glyph-name="Igrave" unicode="&#xcc;" horiz-adv-x="282" 
d="M100 672h82v-672h-82v672zM210 782l-31 -45l-175 111l36 52z" />
    <glyph glyph-name="Iacute" unicode="&#xcd;" horiz-adv-x="282" 
d="M100 672h82v-672h-82v672zM109 737l-31 45l170 118l36 -52z" />
    <glyph glyph-name="Icircumflex" unicode="&#xce;" horiz-adv-x="282" 
d="M100 672h82v-672h-82v672zM116 896h50l123 -119l-35 -38l-113 100l-113 -100l-35 38z" />
    <glyph glyph-name="Itilde" unicode="&#x128;" horiz-adv-x="282" 
d="M100 672h82v-672h-82v672zM77 867q17 0 34 -6t32.5 -12.5t29.5 -12.5t26 -6q31 0 42 37l51 -15q-8 -35 -31 -57t-56 -22q-17 0 -34 6t-32.5 12.5t-29.5 12.5t-26 6q-31 0 -42 -37l-51 16q8 35 31 56.5t56 21.5z" />
    <glyph glyph-name="Idieresis" unicode="&#xcf;" horiz-adv-x="282" 
d="M100 672h82v-672h-82v672zM-13 820q0 22 13.5 35.5t35.5 13.5t35.5 -13.5t13.5 -35.5t-13.5 -35.5t-35.5 -13.5t-35.5 13.5t-13.5 35.5zM197 820q0 22 13.5 35.5t35.5 13.5t35.5 -13.5t13.5 -35.5t-13.5 -35.5t-35.5 -13.5t-35.5 13.5t-13.5 35.5z" />
    <glyph glyph-name="Imacron" unicode="&#x12a;" horiz-adv-x="282" 
d="M100 672h82v-672h-82v672zM-7 849h296v-57h-296v57z" />
    <glyph glyph-name="Ibreve" unicode="&#x12c;" horiz-adv-x="282" 
d="M100 672h82v-672h-82v672zM42 880q3 -39 29 -63t66 -24t66 24t29 63h53q-1 -33 -12.5 -59t-31.5 -45t-46.5 -29t-57.5 -10t-57.5 10t-46.5 29t-31.5 45t-12.5 59h53z" />
    <glyph glyph-name="Idotaccent" unicode="&#x130;" horiz-adv-x="282" 
d="M100 672h82v-672h-82v672zM89 820q0 23 14.5 37.5t37.5 14.5t37.5 -14.5t14.5 -37.5t-14.5 -37.5t-37.5 -14.5t-37.5 14.5t-14.5 37.5z" />
    <glyph glyph-name="Iogonek" unicode="&#x12e;" horiz-adv-x="282" 
d="M182 0q-42 -33 -66.5 -64.5t-24.5 -62.5q0 -22 14.5 -34.5t35.5 -12.5q20 0 41 8l11 -46q-33 -13 -69 -13q-41 0 -67.5 22.5t-26.5 62.5q0 36 24 72t67 68h-21v672h82v-672z" />
    <glyph glyph-name="IJ" unicode="&#x132;" horiz-adv-x="726" 
d="M100 672h82v-672h-82v672zM626 174q0 -41 -14 -75.5t-39 -59t-60 -38t-77 -13.5q-32 0 -64 4.5t-67 12.5l12 66q54 -15 101 -15q56 0 90.5 34.5t34.5 90.5v491h83v-498z" />
    <glyph glyph-name="Jcircumflex" unicode="&#x134;" horiz-adv-x="444" 
d="M344 174q0 -41 -14 -75.5t-39 -59t-60 -38t-77 -13.5q-32 0 -64 4.5t-67 12.5l12 66q54 -15 101 -15q56 0 90.5 34.5t34.5 90.5v491h83v-498zM278 896h50l123 -119l-35 -38l-113 100l-113 -100l-35 38z" />
    <glyph glyph-name="Kcommaaccent" unicode="&#x136;" horiz-adv-x="663" 
d="M100 672h80v-355l344 355h98l-306 -314l320 -358h-99l-277 308l-80 -80v-228h-80v672zM291 -109q0 22 13.5 35.5t35.5 13.5q24 0 38.5 -17.5t14.5 -47.5q0 -48 -24.5 -88.5t-70.5 -68.5l-23 31q56 43 61 99q-19 -1 -32 11.5t-13 31.5z" />
    <glyph glyph-name="Lacute" unicode="&#x139;" horiz-adv-x="534" 
d="M100 672h82v-607h326v-65h-408v672zM109 737l-31 45l170 118l36 -52z" />
    <glyph glyph-name="Lcaron" unicode="&#x13d;" horiz-adv-x="534" 
d="M319 513l-53 18l63 170l60 -20zM100 672h82v-607h326v-65h-408v672z" />
    <glyph glyph-name="Lcommaaccent" unicode="&#x13b;" horiz-adv-x="534" 
d="M100 672h82v-607h326v-65h-408v672zM250 -109q0 22 13.5 35.5t35.5 13.5q24 0 38.5 -17.5t14.5 -47.5q0 -48 -24.5 -88.5t-70.5 -68.5l-23 31q56 43 61 99q-19 -1 -32 11.5t-13 31.5z" />
    <glyph glyph-name="Lslash" unicode="&#x141;" horiz-adv-x="550" 
d="M116 284l-73 -37l-27 51l100 49v325h82v-283l137 68l26 -51l-163 -81v-260h326v-65h-408v284z" />
    <glyph glyph-name="Ldot" unicode="&#x13f;" horiz-adv-x="550" 
d="M100 672h82v-607h326v-65h-408v672zM364 355q0 23 14.5 37.5t37.5 14.5t37.5 -14.5t14.5 -37.5t-14.5 -37.5t-37.5 -14.5t-37.5 14.5t-14.5 37.5z" />
    <glyph glyph-name="Nacute" unicode="&#x143;" horiz-adv-x="783" 
d="M100 672h81l409 -558v558h77v-672h-81l-409 558v-558h-77v672zM351 737l-31 45l170 118l36 -52z" />
    <glyph glyph-name="Ncaron" unicode="&#x147;" horiz-adv-x="767" 
d="M100 672h81l409 -558v558h77v-672h-81l-409 558v-558h-77v672zM408 745h-50l-123 118l35 39l113 -101l113 101l35 -39z" />
    <glyph glyph-name="Ntilde" unicode="&#xd1;" horiz-adv-x="767" 
d="M100 672h81l409 -558v558h77v-672h-81l-409 558v-558h-77v672zM319 867q17 0 34 -6t32.5 -12.5t29.5 -12.5t26 -6q31 0 42 37l51 -15q-8 -35 -31 -57t-56 -22q-17 0 -34 6t-32.5 12.5t-29.5 12.5t-26 6q-31 0 -42 -37l-51 16q8 35 31 56.5t56 21.5z" />
    <glyph glyph-name="Ncommaaccent" unicode="&#x145;" horiz-adv-x="767" 
d="M100 672h81l409 -558v558h77v-672h-81l-409 558v-558h-77v672zM334 -109q0 22 13.5 35.5t35.5 13.5q24 0 38.5 -17.5t14.5 -47.5q0 -48 -24.5 -88.5t-70.5 -68.5l-23 31q56 43 61 99q-19 -1 -32 11.5t-13 31.5z" />
    <glyph glyph-name="Eng" unicode="&#x14a;" horiz-adv-x="767" 
d="M100 672h81l409 -558v558h77v-706q0 -41 -14 -75.5t-39 -59t-60 -38t-77 -13.5q-32 0 -64 4.5t-67 12.5l12 66q55 -15 106 -15q54 0 88.5 32t34.5 83v35l-410 560v-558h-77v672z" />
    <glyph glyph-name="Ograve" unicode="&#xd2;" horiz-adv-x="767" 
d="M49 336q0 76 25 140t69 110.5t105.5 72t134.5 25.5t134.5 -25.5t106 -72t69 -110.5t24.5 -140q0 -77 -24.5 -140.5t-69 -110t-106 -72t-134.5 -25.5t-134.5 25.5t-105.5 72t-69 110t-25 140.5zM134 336q0 -62 18.5 -113.5t51.5 -89t78.5 -58t100.5 -20.5t101 20.5t79 58
t51.5 89t18.5 113.5t-18.5 113.5t-51.5 89t-79 58t-101 20.5t-100.5 -20.5t-78.5 -58t-51.5 -89t-18.5 -113.5zM452 782l-31 -45l-175 111l36 52z" />
    <glyph glyph-name="Oacute" unicode="&#xd3;" horiz-adv-x="767" 
d="M49 336q0 76 25 140t69 110.5t105.5 72t134.5 25.5t134.5 -25.5t106 -72t69 -110.5t24.5 -140q0 -77 -24.5 -140.5t-69 -110t-106 -72t-134.5 -25.5t-134.5 25.5t-105.5 72t-69 110t-25 140.5zM134 336q0 -62 18.5 -113.5t51.5 -89t78.5 -58t100.5 -20.5t101 20.5t79 58
t51.5 89t18.5 113.5t-18.5 113.5t-51.5 89t-79 58t-101 20.5t-100.5 -20.5t-78.5 -58t-51.5 -89t-18.5 -113.5zM351 737l-31 45l170 118l36 -52z" />
    <glyph glyph-name="Ocircumflex" unicode="&#xd4;" horiz-adv-x="767" 
d="M49 336q0 76 25 140t69 110.5t105.5 72t134.5 25.5t134.5 -25.5t106 -72t69 -110.5t24.5 -140q0 -77 -24.5 -140.5t-69 -110t-106 -72t-134.5 -25.5t-134.5 25.5t-105.5 72t-69 110t-25 140.5zM134 336q0 -62 18.5 -113.5t51.5 -89t78.5 -58t100.5 -20.5t101 20.5t79 58
t51.5 89t18.5 113.5t-18.5 113.5t-51.5 89t-79 58t-101 20.5t-100.5 -20.5t-78.5 -58t-51.5 -89t-18.5 -113.5zM358 896h50l123 -119l-35 -38l-113 100l-113 -100l-35 38z" />
    <glyph glyph-name="Otilde" unicode="&#xd5;" horiz-adv-x="767" 
d="M49 336q0 76 25 140t69 110.5t105.5 72t134.5 25.5t134.5 -25.5t106 -72t69 -110.5t24.5 -140q0 -77 -24.5 -140.5t-69 -110t-106 -72t-134.5 -25.5t-134.5 25.5t-105.5 72t-69 110t-25 140.5zM134 336q0 -62 18.5 -113.5t51.5 -89t78.5 -58t100.5 -20.5t101 20.5t79 58
t51.5 89t18.5 113.5t-18.5 113.5t-51.5 89t-79 58t-101 20.5t-100.5 -20.5t-78.5 -58t-51.5 -89t-18.5 -113.5zM319 867q17 0 34 -6t32.5 -12.5t29.5 -12.5t26 -6q31 0 42 37l51 -15q-8 -35 -31 -57t-56 -22q-17 0 -34 6t-32.5 12.5t-29.5 12.5t-26 6q-31 0 -42 -37l-51 16
q8 35 31 56.5t56 21.5z" />
    <glyph glyph-name="Odieresis" unicode="&#xd6;" horiz-adv-x="767" 
d="M49 336q0 76 25 140t69 110.5t105.5 72t134.5 25.5t134.5 -25.5t106 -72t69 -110.5t24.5 -140q0 -77 -24.5 -140.5t-69 -110t-106 -72t-134.5 -25.5t-134.5 25.5t-105.5 72t-69 110t-25 140.5zM134 336q0 -62 18.5 -113.5t51.5 -89t78.5 -58t100.5 -20.5t101 20.5t79 58
t51.5 89t18.5 113.5t-18.5 113.5t-51.5 89t-79 58t-101 20.5t-100.5 -20.5t-78.5 -58t-51.5 -89t-18.5 -113.5zM229 820q0 22 13.5 35.5t35.5 13.5t35.5 -13.5t13.5 -35.5t-13.5 -35.5t-35.5 -13.5t-35.5 13.5t-13.5 35.5zM439 820q0 22 13.5 35.5t35.5 13.5t35.5 -13.5
t13.5 -35.5t-13.5 -35.5t-35.5 -13.5t-35.5 13.5t-13.5 35.5z" />
    <glyph glyph-name="Omacron" unicode="&#x14c;" horiz-adv-x="767" 
d="M49 336q0 76 25 140t69 110.5t105.5 72t134.5 25.5t134.5 -25.5t106 -72t69 -110.5t24.5 -140q0 -77 -24.5 -140.5t-69 -110t-106 -72t-134.5 -25.5t-134.5 25.5t-105.5 72t-69 110t-25 140.5zM134 336q0 -62 18.5 -113.5t51.5 -89t78.5 -58t100.5 -20.5t101 20.5t79 58
t51.5 89t18.5 113.5t-18.5 113.5t-51.5 89t-79 58t-101 20.5t-100.5 -20.5t-78.5 -58t-51.5 -89t-18.5 -113.5zM235 849h296v-57h-296v57z" />
    <glyph glyph-name="Obreve" unicode="&#x14e;" horiz-adv-x="767" 
d="M49 336q0 76 25 140t69 110.5t105.5 72t134.5 25.5t134.5 -25.5t106 -72t69 -110.5t24.5 -140q0 -77 -24.5 -140.5t-69 -110t-106 -72t-134.5 -25.5t-134.5 25.5t-105.5 72t-69 110t-25 140.5zM134 336q0 -62 18.5 -113.5t51.5 -89t78.5 -58t100.5 -20.5t101 20.5t79 58
t51.5 89t18.5 113.5t-18.5 113.5t-51.5 89t-79 58t-101 20.5t-100.5 -20.5t-78.5 -58t-51.5 -89t-18.5 -113.5zM284 880q3 -39 29 -63t66 -24t66 24t29 63h53q-1 -33 -12.5 -59t-31.5 -45t-46.5 -29t-57.5 -10t-57.5 10t-46.5 29t-31.5 45t-12.5 59h53z" />
    <glyph glyph-name="Ohungarumlaut" unicode="&#x150;" horiz-adv-x="767" 
d="M49 336q0 76 25 140t69 110.5t105.5 72t134.5 25.5t134.5 -25.5t106 -72t69 -110.5t24.5 -140q0 -77 -24.5 -140.5t-69 -110t-106 -72t-134.5 -25.5t-134.5 25.5t-105.5 72t-69 110t-25 140.5zM134 336q0 -62 18.5 -113.5t51.5 -89t78.5 -58t100.5 -20.5t101 20.5t79 58
t51.5 89t18.5 113.5t-18.5 113.5t-51.5 89t-79 58t-101 20.5t-100.5 -20.5t-78.5 -58t-51.5 -89t-18.5 -113.5zM469 734l-42 41l144 149l47 -47zM274 734l-41 41l143 149l47 -47z" />
    <glyph glyph-name="Oslash" unicode="&#xd8;" horiz-adv-x="767" 
d="M49 336q0 76 24.5 140t69 110.5t105.5 72t135 25.5q54 0 101 -15t86 -42l51 68l40 -31l-50 -66q51 -47 78.5 -113.5t27.5 -148.5q0 -77 -24.5 -140.5t-69 -110t-106 -72t-134.5 -25.5q-109 0 -186 57l-51 -68l-40 31l48 66q-50 47 -77.5 113.5t-27.5 148.5zM128 336
q0 -63 18.5 -114t52.5 -88l329 437q-60 49 -145 49q-56 0 -103 -21t-81 -58.5t-52.5 -90t-18.5 -114.5zM639 336q0 62 -19 113.5t-54 88.5l-328 -438q62 -48 145 -48q56 0 103 21t81 58.5t53 90t19 114.5z" />
    <glyph glyph-name="Oslashacute" unicode="&#x1fe;" horiz-adv-x="767" 
d="M49 336q0 76 24.5 140t69 110.5t105.5 72t135 25.5q54 0 101 -15t86 -42l51 68l40 -31l-50 -66q51 -47 78.5 -113.5t27.5 -148.5q0 -77 -24.5 -140.5t-69 -110t-106 -72t-134.5 -25.5q-109 0 -186 57l-51 -68l-40 31l48 66q-50 47 -77.5 113.5t-27.5 148.5zM128 336
q0 -63 18.5 -114t52.5 -88l329 437q-60 49 -145 49q-56 0 -103 -21t-81 -58.5t-52.5 -90t-18.5 -114.5zM639 336q0 62 -19 113.5t-54 88.5l-328 -438q62 -48 145 -48q56 0 103 21t81 58.5t53 90t19 114.5zM351 737l-31 45l170 118l36 -52z" />
    <glyph glyph-name="OE" unicode="&#x152;" horiz-adv-x="1008" 
d="M49 336q0 74 24.5 136t69.5 106.5t107.5 69t137.5 24.5h552v-64h-347v-233h315v-62h-315v-249h363v-64h-568q-75 0 -137.5 24.5t-107.5 68.5t-69.5 106t-24.5 137zM134 336q0 -60 19.5 -109.5t54 -85.5t83 -56t106.5 -20h113v542h-113q-58 0 -106.5 -20t-83 -56
t-54 -85.5t-19.5 -109.5z" />
    <glyph glyph-name="Thorn" unicode="&#xde;" horiz-adv-x="620" 
d="M100 672h80v-117h173q49 0 90.5 -15.5t71.5 -43.5t46.5 -67t16.5 -85t-16.5 -85t-46.5 -67t-71.5 -43.5t-90.5 -15.5h-173v-133h-80v672zM180 199h161q34 0 62.5 10.5t49.5 30t32.5 46t11.5 58.5t-11.5 58.5t-32.5 46t-49.5 30t-62.5 10.5h-161v-290z" />
    <glyph glyph-name="Racute" unicode="&#x154;" horiz-adv-x="652" 
d="M100 672h256q48 0 87.5 -15t68.5 -41.5t45 -63.5t16 -81q0 -38 -12 -71t-34 -58.5t-53.5 -41.5t-69.5 -21l196 -279h-91l-185 267h-144v-267h-80v672zM180 332h164q66 0 107 37.5t41 99.5q0 30 -11 55.5t-30.5 44t-46.5 28.5t-60 10h-164v-275zM302 737l-31 45l170 118
l36 -52z" />
    <glyph glyph-name="Rcaron" unicode="&#x158;" horiz-adv-x="652" 
d="M100 672h256q48 0 87.5 -15t68.5 -41.5t45 -63.5t16 -81q0 -38 -12 -71t-34 -58.5t-53.5 -41.5t-69.5 -21l196 -279h-91l-185 267h-144v-267h-80v672zM180 332h164q66 0 107 37.5t41 99.5q0 30 -11 55.5t-30.5 44t-46.5 28.5t-60 10h-164v-275zM359 745h-50l-123 118
l35 39l113 -101l113 101l35 -39z" />
    <glyph glyph-name="Rcommaaccent" unicode="&#x156;" horiz-adv-x="652" 
d="M100 672h256q48 0 87.5 -15t68.5 -41.5t45 -63.5t16 -81q0 -38 -12 -71t-34 -58.5t-53.5 -41.5t-69.5 -21l196 -279h-91l-185 267h-144v-267h-80v672zM180 332h164q66 0 107 37.5t41 99.5q0 30 -11 55.5t-30.5 44t-46.5 28.5t-60 10h-164v-275zM285 -109q0 22 13.5 35.5
t35.5 13.5q24 0 38.5 -17.5t14.5 -47.5q0 -48 -24.5 -88.5t-70.5 -68.5l-23 31q56 43 61 99q-19 -1 -32 11.5t-13 31.5z" />
    <glyph glyph-name="Sacute" unicode="&#x15a;" horiz-adv-x="580" 
d="M55 504q0 40 17 73t48 57t74.5 37t95.5 13q101 0 215 -45l-20 -64q-102 42 -189 42q-72 0 -116 -31t-44 -82q0 -45 29 -69.5t73 -40t94.5 -28.5t94.5 -35t73 -59t29 -100q0 -41 -17.5 -75t-49 -58t-75.5 -37.5t-97 -13.5q-109 0 -239 53l20 64q57 -23 112 -36.5
t101 -13.5q75 0 119 32t44 85q0 46 -29 71.5t-72.5 41.5t-94.5 29t-94.5 34.5t-72.5 57.5t-29 98zM258 737l-31 45l170 118l36 -52z" />
    <glyph glyph-name="Scircumflex" unicode="&#x15c;" horiz-adv-x="580" 
d="M55 504q0 40 17 73t48 57t74.5 37t95.5 13q101 0 215 -45l-20 -64q-102 42 -189 42q-72 0 -116 -31t-44 -82q0 -45 29 -69.5t73 -40t94.5 -28.5t94.5 -35t73 -59t29 -100q0 -41 -17.5 -75t-49 -58t-75.5 -37.5t-97 -13.5q-109 0 -239 53l20 64q57 -23 112 -36.5
t101 -13.5q75 0 119 32t44 85q0 46 -29 71.5t-72.5 41.5t-94.5 29t-94.5 34.5t-72.5 57.5t-29 98zM265 896h50l123 -119l-35 -38l-113 100l-113 -100l-35 38z" />
    <glyph glyph-name="Scaron" unicode="&#x160;" horiz-adv-x="580" 
d="M55 504q0 40 17 73t48 57t74.5 37t95.5 13q101 0 215 -45l-20 -64q-102 42 -189 42q-72 0 -116 -31t-44 -82q0 -45 29 -69.5t73 -40t94.5 -28.5t94.5 -35t73 -59t29 -100q0 -41 -17.5 -75t-49 -58t-75.5 -37.5t-97 -13.5q-109 0 -239 53l20 64q57 -23 112 -36.5
t101 -13.5q75 0 119 32t44 85q0 46 -29 71.5t-72.5 41.5t-94.5 29t-94.5 34.5t-72.5 57.5t-29 98zM315 745h-50l-123 118l35 39l113 -101l113 101l35 -39z" />
    <glyph glyph-name="Scedilla" unicode="&#x15e;" horiz-adv-x="580" 
d="M55 504q0 40 17 73t48 57t74.5 37t95.5 13q101 0 215 -45l-20 -64q-102 42 -189 42q-72 0 -116 -31t-44 -82q0 -45 29 -69.5t73 -40t94.5 -28.5t94.5 -35t73 -59t29 -100q0 -38 -14.5 -69.5t-41.5 -55t-65 -38.5t-84 -19l-8 -46q33 -5 53.5 -28t20.5 -54
q0 -38 -31.5 -62.5t-82.5 -24.5q-21 0 -45 4.5t-47 13.5l15 47q39 -14 70 -14q24 0 40 11.5t16 31.5t-17 31.5t-44 11.5h-11l14 77q-49 2 -103.5 15t-112.5 37l20 64q57 -23 112 -36.5t101 -13.5q75 0 119 32t44 85q0 46 -29 71.5t-72.5 41.5t-94.5 29t-94.5 34.5
t-72.5 57.5t-29 98z" />
    <glyph glyph-name="Scommaaccent" unicode="&#x218;" horiz-adv-x="580" 
d="M55 504q0 40 17 73t48 57t74.5 37t95.5 13q101 0 215 -45l-20 -64q-102 42 -189 42q-72 0 -116 -31t-44 -82q0 -45 29 -69.5t73 -40t94.5 -28.5t94.5 -35t73 -59t29 -100q0 -41 -17.5 -75t-49 -58t-75.5 -37.5t-97 -13.5q-109 0 -239 53l20 64q57 -23 112 -36.5
t101 -13.5q75 0 119 32t44 85q0 46 -29 71.5t-72.5 41.5t-94.5 29t-94.5 34.5t-72.5 57.5t-29 98zM241 -109q0 22 13.5 35.5t35.5 13.5q24 0 38.5 -17.5t14.5 -47.5q0 -48 -24.5 -88.5t-70.5 -68.5l-23 31q56 43 61 99q-19 -1 -32 11.5t-13 31.5z" />
    <glyph glyph-name="Tcaron" unicode="&#x164;" horiz-adv-x="598" 
d="M258 607h-232v65h546v-65h-232v-607h-82v607zM325 745h-50l-123 118l35 39l113 -101l113 101l35 -39z" />
    <glyph glyph-name="Tcommaaccent" unicode="&#x162;" horiz-adv-x="598" 
d="M258 607h-232v65h546v-65h-232v-607h-82v607zM250 -109q0 22 13.5 35.5t35.5 13.5q24 0 38.5 -17.5t14.5 -47.5q0 -48 -24.5 -88.5t-70.5 -68.5l-23 31q56 43 61 99q-19 -1 -32 11.5t-13 31.5z" />
    <glyph glyph-name="uni021A" unicode="&#x21a;" horiz-adv-x="598" 
d="M258 607h-232v65h546v-65h-232v-607h-82v607zM250 -109q0 22 13.5 35.5t35.5 13.5q24 0 38.5 -17.5t14.5 -47.5q0 -48 -24.5 -88.5t-70.5 -68.5l-23 31q56 43 61 99q-19 -1 -32 11.5t-13 31.5z" />
    <glyph glyph-name="Tbar" unicode="&#x166;" horiz-adv-x="598" 
d="M258 287h-142v63h142v257h-232v65h546v-65h-232v-257h141v-63h-141v-287h-82v287z" />
    <glyph glyph-name="Ugrave" unicode="&#xd9;" horiz-adv-x="767" 
d="M675 257q0 -60 -22 -109.5t-61 -85t-92.5 -55t-116.5 -19.5t-116.5 19.5t-92 55t-60.5 85t-22 109.5v415h82v-412q0 -45 16 -83t43.5 -65t66 -42t83.5 -15t83.5 15t66.5 42t43.5 65t15.5 83v412h83v-415zM452 782l-31 -45l-175 111l36 52z" />
    <glyph glyph-name="Uacute" unicode="&#xda;" horiz-adv-x="767" 
d="M675 257q0 -60 -22 -109.5t-61 -85t-92.5 -55t-116.5 -19.5t-116.5 19.5t-92 55t-60.5 85t-22 109.5v415h82v-412q0 -45 16 -83t43.5 -65t66 -42t83.5 -15t83.5 15t66.5 42t43.5 65t15.5 83v412h83v-415zM351 737l-31 45l170 118l36 -52z" />
    <glyph glyph-name="Ucircumflex" unicode="&#xdb;" horiz-adv-x="767" 
d="M675 257q0 -60 -22 -109.5t-61 -85t-92.5 -55t-116.5 -19.5t-116.5 19.5t-92 55t-60.5 85t-22 109.5v415h82v-412q0 -45 16 -83t43.5 -65t66 -42t83.5 -15t83.5 15t66.5 42t43.5 65t15.5 83v412h83v-415zM358 896h50l123 -119l-35 -38l-113 100l-113 -100l-35 38z" />
    <glyph glyph-name="Utilde" unicode="&#x168;" horiz-adv-x="767" 
d="M675 257q0 -60 -22 -109.5t-61 -85t-92.5 -55t-116.5 -19.5t-116.5 19.5t-92 55t-60.5 85t-22 109.5v415h82v-412q0 -45 16 -83t43.5 -65t66 -42t83.5 -15t83.5 15t66.5 42t43.5 65t15.5 83v412h83v-415zM319 867q17 0 34 -6t32.5 -12.5t29.5 -12.5t26 -6q31 0 42 37
l51 -15q-8 -35 -31 -57t-56 -22q-17 0 -34 6t-32.5 12.5t-29.5 12.5t-26 6q-31 0 -42 -37l-51 16q8 35 31 56.5t56 21.5z" />
    <glyph glyph-name="Udieresis" unicode="&#xdc;" horiz-adv-x="767" 
d="M675 257q0 -60 -22 -109.5t-61 -85t-92.5 -55t-116.5 -19.5t-116.5 19.5t-92 55t-60.5 85t-22 109.5v415h82v-412q0 -45 16 -83t43.5 -65t66 -42t83.5 -15t83.5 15t66.5 42t43.5 65t15.5 83v412h83v-415zM229 820q0 22 13.5 35.5t35.5 13.5t35.5 -13.5t13.5 -35.5
t-13.5 -35.5t-35.5 -13.5t-35.5 13.5t-13.5 35.5zM439 820q0 22 13.5 35.5t35.5 13.5t35.5 -13.5t13.5 -35.5t-13.5 -35.5t-35.5 -13.5t-35.5 13.5t-13.5 35.5z" />
    <glyph glyph-name="Umacron" unicode="&#x16a;" horiz-adv-x="767" 
d="M675 257q0 -60 -22 -109.5t-61 -85t-92.5 -55t-116.5 -19.5t-116.5 19.5t-92 55t-60.5 85t-22 109.5v415h82v-412q0 -45 16 -83t43.5 -65t66 -42t83.5 -15t83.5 15t66.5 42t43.5 65t15.5 83v412h83v-415zM235 849h296v-57h-296v57z" />
    <glyph glyph-name="Ubreve" unicode="&#x16c;" horiz-adv-x="767" 
d="M675 257q0 -60 -22 -109.5t-61 -85t-92.5 -55t-116.5 -19.5t-116.5 19.5t-92 55t-60.5 85t-22 109.5v415h82v-412q0 -45 16 -83t43.5 -65t66 -42t83.5 -15t83.5 15t66.5 42t43.5 65t15.5 83v412h83v-415zM284 880q3 -39 29 -63t66 -24t66 24t29 63h53q-1 -33 -12.5 -59
t-31.5 -45t-46.5 -29t-57.5 -10t-57.5 10t-46.5 29t-31.5 45t-12.5 59h53z" />
    <glyph glyph-name="Uring" unicode="&#x16e;" horiz-adv-x="767" 
d="M675 257q0 -60 -22 -109.5t-61 -85t-92.5 -55t-116.5 -19.5t-116.5 19.5t-92 55t-60.5 85t-22 109.5v415h82v-412q0 -45 16 -83t43.5 -65t66 -42t83.5 -15t83.5 15t66.5 42t43.5 65t15.5 83v412h83v-415zM283 820q0 43 27.5 70t72.5 27t72.5 -27t27.5 -70t-27 -70
t-72 -27t-73 27t-28 70zM326 820q0 -26 16 -41.5t42 -15.5t41 15.5t15 41.5t-15.5 42t-41.5 16t-41.5 -16t-15.5 -42z" />
    <glyph glyph-name="Uhungarumlaut" unicode="&#x170;" horiz-adv-x="767" 
d="M675 257q0 -60 -22 -109.5t-61 -85t-92.5 -55t-116.5 -19.5t-116.5 19.5t-92 55t-60.5 85t-22 109.5v415h82v-412q0 -45 16 -83t43.5 -65t66 -42t83.5 -15t83.5 15t66.5 42t43.5 65t15.5 83v412h83v-415zM469 734l-42 41l144 149l47 -47zM274 734l-41 41l143 149l47 -47z
" />
    <glyph glyph-name="Uogonek" unicode="&#x172;" horiz-adv-x="767" 
d="M675 263q0 -91 -44.5 -151t-127.5 -107q-38 -21 -62 -40t-38.5 -35t-20 -30.5t-5.5 -26.5q0 -22 15 -34.5t35 -12.5q19 0 40 8l12 -45q-34 -14 -69 -14q-40 0 -67 22.5t-27 62.5q0 35 23.5 67t69.5 64q-14 -2 -27 -2h-26q-55 3 -103 24t-84 56t-56.5 83t-20.5 105v415h82
v-412q0 -45 15.5 -83t43.5 -65t66.5 -42t83.5 -15t83.5 15.5t66 42.5t43.5 64.5t16 82.5v412h83v-409z" />
    <glyph glyph-name="Wgrave" unicode="&#x1e80;" horiz-adv-x="1007" 
d="M760 0h-82l-175 570l-174 -570h-82l-215 672h83l175 -570l174 570h78l175 -570l174 570h84zM572 782l-31 -45l-175 111l36 52z" />
    <glyph glyph-name="Wacute" unicode="&#x1e82;" horiz-adv-x="1007" 
d="M760 0h-82l-175 570l-174 -570h-82l-215 672h83l175 -570l174 570h78l175 -570l174 570h84zM471 737l-31 45l170 118l36 -52z" />
    <glyph glyph-name="Wcircumflex" unicode="&#x174;" horiz-adv-x="1007" 
d="M760 0h-82l-175 570l-174 -570h-82l-215 672h83l175 -570l174 570h78l175 -570l174 570h84zM478 896h50l123 -119l-35 -38l-113 100l-113 -100l-35 38z" />
    <glyph glyph-name="Wdieresis" unicode="&#x1e84;" horiz-adv-x="1007" 
d="M760 0h-82l-175 570l-174 -570h-82l-215 672h83l175 -570l174 570h78l175 -570l174 570h84zM349 820q0 22 13.5 35.5t35.5 13.5t35.5 -13.5t13.5 -35.5t-13.5 -35.5t-35.5 -13.5t-35.5 13.5t-13.5 35.5zM559 820q0 22 13.5 35.5t35.5 13.5t35.5 -13.5t13.5 -35.5
t-13.5 -35.5t-35.5 -13.5t-35.5 13.5t-13.5 35.5z" />
    <glyph glyph-name="Ygrave" unicode="&#x1ef2;" horiz-adv-x="599" 
d="M258 287l-246 385h91l197 -311l196 311h92l-247 -385v-287h-83v287zM369 782l-31 -45l-175 111l36 52z" />
    <glyph glyph-name="Yacute" unicode="&#xdd;" horiz-adv-x="599" 
d="M258 287l-246 385h91l197 -311l196 311h92l-247 -385v-287h-83v287zM268 737l-31 45l170 118l36 -52z" />
    <glyph glyph-name="Ycircumflex" unicode="&#x176;" horiz-adv-x="599" 
d="M258 287l-246 385h91l197 -311l196 311h92l-247 -385v-287h-83v287zM275 896h50l123 -119l-35 -38l-113 100l-113 -100l-35 38z" />
    <glyph glyph-name="Ydieresis" unicode="&#x178;" horiz-adv-x="599" 
d="M258 287l-246 385h91l197 -311l196 311h92l-247 -385v-287h-83v287zM146 820q0 22 13.5 35.5t35.5 13.5t35.5 -13.5t13.5 -35.5t-13.5 -35.5t-35.5 -13.5t-35.5 13.5t-13.5 35.5zM356 820q0 22 13.5 35.5t35.5 13.5t35.5 -13.5t13.5 -35.5t-13.5 -35.5t-35.5 -13.5
t-35.5 13.5t-13.5 35.5z" />
    <glyph glyph-name="Zacute" unicode="&#x179;" horiz-adv-x="628" 
d="M51 48l406 559h-394v65h502v-48l-406 -559h418v-65h-526v48zM282 737l-31 45l170 118l36 -52z" />
    <glyph glyph-name="Zcaron" unicode="&#x17d;" horiz-adv-x="628" 
d="M51 48l406 559h-394v65h502v-48l-406 -559h418v-65h-526v48zM339 745h-50l-123 118l35 39l113 -101l113 101l35 -39z" />
    <glyph glyph-name="Zdotaccent" unicode="&#x17b;" horiz-adv-x="628" 
d="M51 48l406 559h-394v65h502v-48l-406 -559h418v-65h-526v48zM262 820q0 23 14.5 37.5t37.5 14.5t37.5 -14.5t14.5 -37.5t-14.5 -37.5t-37.5 -14.5t-37.5 14.5t-14.5 37.5z" />
    <glyph glyph-name="agrave" unicode="&#xe0;" horiz-adv-x="545" 
d="M44 134q0 77 59 119t163 42q26 0 53 -3t56 -11v50q0 47 -32.5 76.5t-86.5 29.5q-77 0 -161 -36l-22 58q51 20 98 29.5t94 9.5q41 0 75.5 -12t59 -34.5t38 -53.5t13.5 -69v-235q0 -20 11.5 -32t32.5 -12q6 0 13.5 1t12.5 2l6 -60q-12 -2 -25 -3.5t-27 -1.5q-40 0 -64 21.5
t-29 59.5q-29 -38 -73.5 -59.5t-95.5 -21.5q-36 0 -67 11t-53.5 30.5t-35.5 46.5t-13 58zM122 139q0 -40 31 -66.5t79 -26.5q31 0 57.5 10.5t45.5 30t29.5 46.5t10.5 59v41q-51 12 -100 12q-72 0 -112.5 -28t-40.5 -78zM334 596l-31 -45l-175 111l36 52z" />
    <glyph glyph-name="aacute" unicode="&#xe1;" horiz-adv-x="545" 
d="M44 134q0 77 59 119t163 42q26 0 53 -3t56 -11v50q0 47 -32.5 76.5t-86.5 29.5q-77 0 -161 -36l-22 58q51 20 98 29.5t94 9.5q41 0 75.5 -12t59 -34.5t38 -53.5t13.5 -69v-235q0 -20 11.5 -32t32.5 -12q6 0 13.5 1t12.5 2l6 -60q-12 -2 -25 -3.5t-27 -1.5q-40 0 -64 21.5
t-29 59.5q-29 -38 -73.5 -59.5t-95.5 -21.5q-36 0 -67 11t-53.5 30.5t-35.5 46.5t-13 58zM122 139q0 -40 31 -66.5t79 -26.5q31 0 57.5 10.5t45.5 30t29.5 46.5t10.5 59v41q-51 12 -100 12q-72 0 -112.5 -28t-40.5 -78zM233 551l-31 45l170 118l36 -52z" />
    <glyph glyph-name="acircumflex" unicode="&#xe2;" horiz-adv-x="545" 
d="M44 134q0 77 59 119t163 42q26 0 53 -3t56 -11v50q0 47 -32.5 76.5t-86.5 29.5q-77 0 -161 -36l-22 58q51 20 98 29.5t94 9.5q41 0 75.5 -12t59 -34.5t38 -53.5t13.5 -69v-235q0 -20 11.5 -32t32.5 -12q6 0 13.5 1t12.5 2l6 -60q-12 -2 -25 -3.5t-27 -1.5q-40 0 -64 21.5
t-29 59.5q-29 -38 -73.5 -59.5t-95.5 -21.5q-36 0 -67 11t-53.5 30.5t-35.5 46.5t-13 58zM122 139q0 -40 31 -66.5t79 -26.5q31 0 57.5 10.5t45.5 30t29.5 46.5t10.5 59v41q-51 12 -100 12q-72 0 -112.5 -28t-40.5 -78zM240 710h50l123 -119l-35 -38l-113 100l-113 -100
l-35 38z" />
    <glyph glyph-name="atilde" unicode="&#xe3;" horiz-adv-x="545" 
d="M44 134q0 77 59 119t163 42q26 0 53 -3t56 -11v50q0 47 -32.5 76.5t-86.5 29.5q-77 0 -161 -36l-22 58q51 20 98 29.5t94 9.5q41 0 75.5 -12t59 -34.5t38 -53.5t13.5 -69v-235q0 -20 11.5 -32t32.5 -12q6 0 13.5 1t12.5 2l6 -60q-12 -2 -25 -3.5t-27 -1.5q-40 0 -64 21.5
t-29 59.5q-29 -38 -73.5 -59.5t-95.5 -21.5q-36 0 -67 11t-53.5 30.5t-35.5 46.5t-13 58zM122 139q0 -40 31 -66.5t79 -26.5q31 0 57.5 10.5t45.5 30t29.5 46.5t10.5 59v41q-51 12 -100 12q-72 0 -112.5 -28t-40.5 -78zM201 681q17 0 34 -6t32.5 -12.5t29.5 -12.5t26 -6
q31 0 42 37l51 -15q-8 -35 -31 -57t-56 -22q-17 0 -34 6t-32.5 12.5t-29.5 12.5t-26 6q-31 0 -42 -37l-51 16q8 35 31 56.5t56 21.5z" />
    <glyph glyph-name="adieresis" unicode="&#xe4;" horiz-adv-x="545" 
d="M44 134q0 77 59 119t163 42q26 0 53 -3t56 -11v50q0 47 -32.5 76.5t-86.5 29.5q-77 0 -161 -36l-22 58q51 20 98 29.5t94 9.5q41 0 75.5 -12t59 -34.5t38 -53.5t13.5 -69v-235q0 -20 11.5 -32t32.5 -12q6 0 13.5 1t12.5 2l6 -60q-12 -2 -25 -3.5t-27 -1.5q-40 0 -64 21.5
t-29 59.5q-29 -38 -73.5 -59.5t-95.5 -21.5q-36 0 -67 11t-53.5 30.5t-35.5 46.5t-13 58zM122 139q0 -40 31 -66.5t79 -26.5q31 0 57.5 10.5t45.5 30t29.5 46.5t10.5 59v41q-51 12 -100 12q-72 0 -112.5 -28t-40.5 -78zM111 634q0 22 13.5 35.5t35.5 13.5t35.5 -13.5
t13.5 -35.5t-13.5 -35.5t-35.5 -13.5t-35.5 13.5t-13.5 35.5zM321 634q0 22 13.5 35.5t35.5 13.5t35.5 -13.5t13.5 -35.5t-13.5 -35.5t-35.5 -13.5t-35.5 13.5t-13.5 35.5z" />
    <glyph glyph-name="amacron" unicode="&#x101;" horiz-adv-x="545" 
d="M44 134q0 77 59 119t163 42q26 0 53 -3t56 -11v50q0 47 -32.5 76.5t-86.5 29.5q-77 0 -161 -36l-22 58q51 20 98 29.5t94 9.5q41 0 75.5 -12t59 -34.5t38 -53.5t13.5 -69v-235q0 -20 11.5 -32t32.5 -12q6 0 13.5 1t12.5 2l6 -60q-12 -2 -25 -3.5t-27 -1.5q-40 0 -64 21.5
t-29 59.5q-29 -38 -73.5 -59.5t-95.5 -21.5q-36 0 -67 11t-53.5 30.5t-35.5 46.5t-13 58zM122 139q0 -40 31 -66.5t79 -26.5q31 0 57.5 10.5t45.5 30t29.5 46.5t10.5 59v41q-51 12 -100 12q-72 0 -112.5 -28t-40.5 -78zM117 663h296v-57h-296v57z" />
    <glyph glyph-name="abreve" unicode="&#x103;" horiz-adv-x="545" 
d="M44 134q0 77 59 119t163 42q26 0 53 -3t56 -11v50q0 47 -32.5 76.5t-86.5 29.5q-77 0 -161 -36l-22 58q51 20 98 29.5t94 9.5q41 0 75.5 -12t59 -34.5t38 -53.5t13.5 -69v-235q0 -20 11.5 -32t32.5 -12q6 0 13.5 1t12.5 2l6 -60q-12 -2 -25 -3.5t-27 -1.5q-40 0 -64 21.5
t-29 59.5q-29 -38 -73.5 -59.5t-95.5 -21.5q-36 0 -67 11t-53.5 30.5t-35.5 46.5t-13 58zM122 139q0 -40 31 -66.5t79 -26.5q31 0 57.5 10.5t45.5 30t29.5 46.5t10.5 59v41q-51 12 -100 12q-72 0 -112.5 -28t-40.5 -78zM170 694q3 -39 29 -63t66 -24t66 24t29 63h53
q-1 -33 -12.5 -59t-31.5 -45t-46.5 -29t-57.5 -10t-57.5 10t-46.5 29t-31.5 45t-12.5 59h53z" />
    <glyph glyph-name="acaron" unicode="&#x1ce;" horiz-adv-x="537" 
d="M44 134q0 77 59 119t163 42q26 0 53 -3t56 -11v50q0 47 -32.5 76.5t-86.5 29.5q-77 0 -161 -36l-22 58q51 20 98 29.5t94 9.5q41 0 75.5 -12t59 -34.5t38 -53.5t13.5 -69v-235q0 -20 11.5 -32t32.5 -12q6 0 13.5 1t12.5 2l6 -60q-12 -2 -25 -3.5t-27 -1.5q-40 0 -64 21.5
t-29 59.5q-29 -38 -73.5 -59.5t-95.5 -21.5q-36 0 -67 11t-53.5 30.5t-35.5 46.5t-13 58zM122 139q0 -40 31 -66.5t79 -26.5q31 0 57.5 10.5t45.5 30t29.5 46.5t10.5 59v41q-51 12 -100 12q-72 0 -112.5 -28t-40.5 -78zM293 559h-50l-123 118l35 39l113 -101l113 101l35 -39
z" />
    <glyph glyph-name="aring" unicode="&#xe5;" horiz-adv-x="545" 
d="M44 134q0 77 59 119t163 42q26 0 53 -3t56 -11v50q0 47 -32.5 76.5t-86.5 29.5q-77 0 -161 -36l-22 58q51 20 98 29.5t94 9.5q41 0 75.5 -12t59 -34.5t38 -53.5t13.5 -69v-235q0 -20 11.5 -32t32.5 -12q6 0 13.5 1t12.5 2l6 -60q-12 -2 -25 -3.5t-27 -1.5q-40 0 -64 21.5
t-29 59.5q-29 -38 -73.5 -59.5t-95.5 -21.5q-36 0 -67 11t-53.5 30.5t-35.5 46.5t-13 58zM122 139q0 -40 31 -66.5t79 -26.5q31 0 57.5 10.5t45.5 30t29.5 46.5t10.5 59v41q-51 12 -100 12q-72 0 -112.5 -28t-40.5 -78zM165 634q0 43 27.5 70t72.5 27t72.5 -27t27.5 -70
t-27 -70t-72 -27t-73 27t-28 70zM208 634q0 -26 16 -41.5t42 -15.5t41 15.5t15 41.5t-15.5 42t-41.5 16t-41.5 -16t-15.5 -42z" />
    <glyph glyph-name="aringacute" unicode="&#x1fb;" horiz-adv-x="545" 
d="M206 629q0 -26 17 -42.5t43 -16.5t42 16.5t16 42.5t-16.5 42.5t-42.5 16.5t-42.5 -16.5t-16.5 -42.5zM312 713q25 -11 39 -33t14 -51q0 -42 -27 -68t-72 -26t-73 26t-28 68q0 27 12.5 48t35.5 36l162 109l33 -50zM44 134q0 77 59 119t163 42q26 0 53 -3t56 -11v50
q0 47 -32.5 76.5t-86.5 29.5q-77 0 -161 -36l-22 58q51 20 98 29.5t94 9.5q41 0 75.5 -12t59 -34.5t38 -53.5t13.5 -69v-235q0 -20 11.5 -32t32.5 -12q6 0 13.5 1t12.5 2l6 -60q-12 -2 -25 -3.5t-27 -1.5q-40 0 -64 21.5t-29 59.5q-29 -38 -73.5 -59.5t-95.5 -21.5
q-36 0 -67 11t-53.5 30.5t-35.5 46.5t-13 58zM122 139q0 -40 31 -66.5t79 -26.5q31 0 57.5 10.5t45.5 30t29.5 46.5t10.5 59v41q-51 12 -100 12q-72 0 -112.5 -28t-40.5 -78z" />
    <glyph glyph-name="aogonek" unicode="&#x105;" horiz-adv-x="545" 
d="M44 134q0 77 59 119t163 42q26 0 53 -3t56 -11v50q0 47 -32.5 76.5t-86.5 29.5q-77 0 -161 -36l-22 58q51 20 98 29.5t94 9.5q41 0 75.5 -12t59 -34.5t38 -53.5t13.5 -69v-235q0 -20 11.5 -32t32.5 -12q6 0 13.5 1t12.5 2l6 -60q-42 -31 -66.5 -60.5t-24.5 -59.5
q0 -22 15 -34.5t35 -12.5t41 8l11 -46q-33 -13 -69 -13q-41 0 -67.5 22.5t-26.5 62.5q0 34 22 66t61 63q-33 5 -52.5 25.5t-23.5 54.5q-29 -38 -73.5 -59.5t-95.5 -21.5q-36 0 -67 11t-53.5 30.5t-35.5 46.5t-13 58zM122 139q0 -40 31 -66.5t79 -26.5q31 0 57.5 10.5
t45.5 30t29.5 46.5t10.5 59v41q-51 12 -100 12q-72 0 -112.5 -28t-40.5 -78z" />
    <glyph glyph-name="ae" unicode="&#xe6;" horiz-adv-x="864" 
d="M44 133q0 77 59 119.5t163 42.5q50 0 109 -14v50q0 47 -32.5 76.5t-86.5 29.5q-77 0 -161 -36l-22 58q51 20 98 29.5t94 9.5q61 0 104.5 -28.5t54.5 -73.5q26 48 74 75t109 27q49 0 89.5 -18t69.5 -50.5t45.5 -78t16.5 -99.5q0 -8 -0.5 -14.5t-0.5 -14.5h-376
q2 -39 16.5 -71t38 -55t56 -35.5t70.5 -12.5q33 0 70 10t76 31l26 -55q-47 -24 -92 -35.5t-87 -11.5q-70 0 -126 33t-88 93q-22 -58 -73.5 -92t-118.5 -34q-38 0 -70 11t-55 30.5t-36.5 46t-13.5 57.5zM607 437q-32 0 -59.5 -11.5t-48 -33t-33 -51.5t-15.5 -67h300
q-1 36 -12 66t-30 51.5t-45 33.5t-57 12zM122 139q0 -40 31 -66.5t79 -26.5q32 0 58.5 10.5t45 30t29 46.5t10.5 59v41q-51 12 -100 12q-72 0 -112.5 -28t-40.5 -78z" />
    <glyph glyph-name="aeacute" unicode="&#x1fd;" horiz-adv-x="864" 
d="M400 551l-31 45l170 118l36 -52zM44 133q0 77 59 119.5t163 42.5q50 0 109 -14v50q0 47 -32.5 76.5t-86.5 29.5q-77 0 -161 -36l-22 58q51 20 98 29.5t94 9.5q61 0 104.5 -28.5t54.5 -73.5q26 48 74 75t109 27q49 0 89.5 -18t69.5 -50.5t45.5 -78t16.5 -99.5
q0 -8 -0.5 -14.5t-0.5 -14.5h-376q2 -39 16.5 -71t38 -55t56 -35.5t70.5 -12.5q33 0 70 10t76 31l26 -55q-47 -24 -92 -35.5t-87 -11.5q-70 0 -126 33t-88 93q-22 -58 -73.5 -92t-118.5 -34q-38 0 -70 11t-55 30.5t-36.5 46t-13.5 57.5zM607 437q-32 0 -59.5 -11.5t-48 -33
t-33 -51.5t-15.5 -67h300q-1 36 -12 66t-30 51.5t-45 33.5t-57 12zM122 139q0 -40 31 -66.5t79 -26.5q32 0 58.5 10.5t45 30t29 46.5t10.5 59v41q-51 12 -100 12q-72 0 -112.5 -28t-40.5 -78z" />
    <glyph glyph-name="cacute" unicode="&#x107;" horiz-adv-x="492" 
d="M44 243q0 56 18 103t50.5 80.5t77.5 52.5t99 19q90 0 172 -55l-33 -55q-64 44 -129 44q-38 0 -70 -14t-55 -38.5t-35.5 -59.5t-12.5 -77t12.5 -77t35.5 -60t55 -39t70 -14q34 0 65.5 11.5t63.5 33.5l33 -55q-82 -55 -172 -55q-54 0 -99 18.5t-77.5 52.5t-50.5 81t-18 103
zM246 551l-31 45l170 118l36 -52z" />
    <glyph glyph-name="ccedilla" unicode="&#xe7;" horiz-adv-x="492" 
d="M44 243q0 56 18 103t50.5 80.5t77.5 52.5t99 19q90 0 172 -55l-33 -55q-64 44 -129 44q-38 0 -70 -14t-55 -38.5t-35.5 -59.5t-12.5 -77t12.5 -77t35.5 -60t55 -39t70 -14q34 0 65.5 11.5t63.5 33.5l33 -55q-36 -25 -73.5 -38t-75.5 -16l-8 -45q33 -5 53.5 -28t20.5 -54
q0 -38 -31.5 -62.5t-82.5 -24.5q-21 0 -45 4.5t-47 13.5l15 47q39 -14 70 -14q23 0 39.5 11.5t16.5 31.5t-17 31.5t-44 11.5h-11l15 79q-47 5 -86 25.5t-67 53.5t-43.5 77t-15.5 96z" />
    <glyph glyph-name="ccircumflex" unicode="&#x109;" horiz-adv-x="492" 
d="M44 243q0 56 18 103t50.5 80.5t77.5 52.5t99 19q90 0 172 -55l-33 -55q-64 44 -129 44q-38 0 -70 -14t-55 -38.5t-35.5 -59.5t-12.5 -77t12.5 -77t35.5 -60t55 -39t70 -14q34 0 65.5 11.5t63.5 33.5l33 -55q-82 -55 -172 -55q-54 0 -99 18.5t-77.5 52.5t-50.5 81t-18 103
zM253 710h50l123 -119l-35 -38l-113 100l-113 -100l-35 38z" />
    <glyph glyph-name="ccaron" unicode="&#x10d;" horiz-adv-x="492" 
d="M44 243q0 56 18 103t50.5 80.5t77.5 52.5t99 19q90 0 172 -55l-33 -55q-64 44 -129 44q-38 0 -70 -14t-55 -38.5t-35.5 -59.5t-12.5 -77t12.5 -77t35.5 -60t55 -39t70 -14q34 0 65.5 11.5t63.5 33.5l33 -55q-82 -55 -172 -55q-54 0 -99 18.5t-77.5 52.5t-50.5 81t-18 103
zM303 559h-50l-123 118l35 39l113 -101l113 101l35 -39z" />
    <glyph glyph-name="cdotaccent" unicode="&#x10b;" horiz-adv-x="492" 
d="M44 243q0 56 18 103t50.5 80.5t77.5 52.5t99 19q90 0 172 -55l-33 -55q-64 44 -129 44q-38 0 -70 -14t-55 -38.5t-35.5 -59.5t-12.5 -77t12.5 -77t35.5 -60t55 -39t70 -14q34 0 65.5 11.5t63.5 33.5l33 -55q-82 -55 -172 -55q-54 0 -99 18.5t-77.5 52.5t-50.5 81t-18 103
zM226 634q0 23 14.5 37.5t37.5 14.5t37.5 -14.5t14.5 -37.5t-14.5 -37.5t-37.5 -14.5t-37.5 14.5t-14.5 37.5z" />
    <glyph glyph-name="dcaron" unicode="&#x10f;" horiz-adv-x="665" 
d="M617 545l-53 18l63 170l60 -20zM505 0h-64l-10 81q-26 -45 -69.5 -69t-97.5 -24q-48 0 -88.5 19t-69.5 52.5t-45.5 80.5t-16.5 103t16.5 103t45.5 80.5t69.5 52.5t88.5 19q52 0 93.5 -23t67.5 -66v295h80v-704zM126 243q0 -42 11.5 -77t32.5 -60t49.5 -39t63.5 -14
q31 0 57.5 11t45.5 31t29.5 48t10.5 61v78q0 33 -10.5 60.5t-29.5 48t-45.5 31.5t-57.5 11q-35 0 -63.5 -14t-49.5 -39.5t-32.5 -60t-11.5 -76.5z" />
    <glyph glyph-name="dcroat" unicode="&#x111;" 
d="M505 625h68v-56h-68v-569h-64l-10 81q-26 -45 -69.5 -69t-97.5 -24q-48 0 -88.5 19t-69.5 52.5t-45.5 80.5t-16.5 103t16.5 103t45.5 80.5t69.5 52.5t88.5 19q52 0 93.5 -23t67.5 -66v160h-175v56h175v79h80v-79zM126 243q0 -42 11.5 -77t32.5 -60t49.5 -39t63.5 -14
q31 0 57.5 11t45.5 31t29.5 48t10.5 61v78q0 33 -10.5 60.5t-29.5 48t-45.5 31.5t-57.5 11q-35 0 -63.5 -14t-49.5 -39.5t-32.5 -60t-11.5 -76.5z" />
    <glyph glyph-name="eth" unicode="&#xf0;" 
d="M44 241q0 55 17 101t47 78.5t72 50.5t92 18q44 0 79.5 -13.5t68.5 -48.5q-18 54 -51 97.5t-79 75.5l-130 -64l-22 44l97 48q-19 11 -39 20t-42 17l19 56q38 -11 71 -25.5t64 -31.5l115 57l22 -44l-90 -44q77 -60 121.5 -141.5t52.5 -180.5q2 -31 0 -62q-4 -58 -23.5 -106
t-52.5 -82.5t-76.5 -53.5t-95.5 -19t-95.5 18.5t-75 52.5t-49 80t-17.5 102zM123 239q0 -42 12 -77t33 -60t50.5 -39t65.5 -14t66.5 14.5t52.5 41t34.5 63.5t12.5 81q0 39 -12.5 72t-34.5 57t-52.5 37t-66.5 13t-65.5 -14t-50.5 -39t-33 -59.5t-12 -76.5z" />
    <glyph glyph-name="egrave" unicode="&#xe8;" horiz-adv-x="537" 
d="M44 243q0 56 17.5 103t49 80.5t75 52.5t95.5 19q49 0 89.5 -18t69.5 -50.5t45 -78t16 -99.5v-14.5t-1 -14.5h-376q3 -39 17 -71t38 -55t56 -35.5t70 -12.5q33 0 70.5 10t76.5 31l25 -55q-48 -24 -93.5 -35.5t-86.5 -11.5q-56 0 -102 18.5t-80 52.5t-52.5 81t-18.5 103z
M281 437q-66 0 -108.5 -44.5t-48.5 -118.5h300q-1 36 -12 66t-30 51.5t-44.5 33.5t-56.5 12zM350 596l-31 -45l-175 111l36 52z" />
    <glyph glyph-name="eacute" unicode="&#xe9;" horiz-adv-x="537" 
d="M44 243q0 56 17.5 103t49 80.5t75 52.5t95.5 19q49 0 89.5 -18t69.5 -50.5t45 -78t16 -99.5v-14.5t-1 -14.5h-376q3 -39 17 -71t38 -55t56 -35.5t70 -12.5q33 0 70.5 10t76.5 31l25 -55q-48 -24 -93.5 -35.5t-86.5 -11.5q-56 0 -102 18.5t-80 52.5t-52.5 81t-18.5 103z
M281 437q-66 0 -108.5 -44.5t-48.5 -118.5h300q-1 36 -12 66t-30 51.5t-44.5 33.5t-56.5 12zM249 551l-31 45l170 118l36 -52z" />
    <glyph glyph-name="ecircumflex" unicode="&#xea;" horiz-adv-x="537" 
d="M44 243q0 56 17.5 103t49 80.5t75 52.5t95.5 19q49 0 89.5 -18t69.5 -50.5t45 -78t16 -99.5v-14.5t-1 -14.5h-376q3 -39 17 -71t38 -55t56 -35.5t70 -12.5q33 0 70.5 10t76.5 31l25 -55q-48 -24 -93.5 -35.5t-86.5 -11.5q-56 0 -102 18.5t-80 52.5t-52.5 81t-18.5 103z
M281 437q-66 0 -108.5 -44.5t-48.5 -118.5h300q-1 36 -12 66t-30 51.5t-44.5 33.5t-56.5 12zM256 710h50l123 -119l-35 -38l-113 100l-113 -100l-35 38z" />
    <glyph glyph-name="ecaron" unicode="&#x11b;" horiz-adv-x="537" 
d="M44 243q0 56 17.5 103t49 80.5t75 52.5t95.5 19q49 0 89.5 -18t69.5 -50.5t45 -78t16 -99.5v-14.5t-1 -14.5h-376q3 -39 17 -71t38 -55t56 -35.5t70 -12.5q33 0 70.5 10t76.5 31l25 -55q-48 -24 -93.5 -35.5t-86.5 -11.5q-56 0 -102 18.5t-80 52.5t-52.5 81t-18.5 103z
M281 437q-66 0 -108.5 -44.5t-48.5 -118.5h300q-1 36 -12 66t-30 51.5t-44.5 33.5t-56.5 12zM306 559h-50l-123 118l35 39l113 -101l113 101l35 -39z" />
    <glyph glyph-name="edieresis" unicode="&#xeb;" horiz-adv-x="537" 
d="M44 243q0 56 17.5 103t49 80.5t75 52.5t95.5 19q49 0 89.5 -18t69.5 -50.5t45 -78t16 -99.5v-14.5t-1 -14.5h-376q3 -39 17 -71t38 -55t56 -35.5t70 -12.5q33 0 70.5 10t76.5 31l25 -55q-48 -24 -93.5 -35.5t-86.5 -11.5q-56 0 -102 18.5t-80 52.5t-52.5 81t-18.5 103z
M281 437q-66 0 -108.5 -44.5t-48.5 -118.5h300q-1 36 -12 66t-30 51.5t-44.5 33.5t-56.5 12zM127 634q0 22 13.5 35.5t35.5 13.5t35.5 -13.5t13.5 -35.5t-13.5 -35.5t-35.5 -13.5t-35.5 13.5t-13.5 35.5zM337 634q0 22 13.5 35.5t35.5 13.5t35.5 -13.5t13.5 -35.5
t-13.5 -35.5t-35.5 -13.5t-35.5 13.5t-13.5 35.5z" />
    <glyph glyph-name="emacron" unicode="&#x113;" horiz-adv-x="537" 
d="M44 243q0 56 17.5 103t49 80.5t75 52.5t95.5 19q49 0 89.5 -18t69.5 -50.5t45 -78t16 -99.5v-14.5t-1 -14.5h-376q3 -39 17 -71t38 -55t56 -35.5t70 -12.5q33 0 70.5 10t76.5 31l25 -55q-48 -24 -93.5 -35.5t-86.5 -11.5q-56 0 -102 18.5t-80 52.5t-52.5 81t-18.5 103z
M281 437q-66 0 -108.5 -44.5t-48.5 -118.5h300q-1 36 -12 66t-30 51.5t-44.5 33.5t-56.5 12zM133 663h296v-57h-296v57z" />
    <glyph glyph-name="ebreve" unicode="&#x115;" horiz-adv-x="537" 
d="M44 243q0 56 17.5 103t49 80.5t75 52.5t95.5 19q49 0 89.5 -18t69.5 -50.5t45 -78t16 -99.5v-14.5t-1 -14.5h-376q3 -39 17 -71t38 -55t56 -35.5t70 -12.5q33 0 70.5 10t76.5 31l25 -55q-48 -24 -93.5 -35.5t-86.5 -11.5q-56 0 -102 18.5t-80 52.5t-52.5 81t-18.5 103z
M281 437q-66 0 -108.5 -44.5t-48.5 -118.5h300q-1 36 -12 66t-30 51.5t-44.5 33.5t-56.5 12zM182 694q3 -39 29 -63t66 -24t66 24t29 63h53q-1 -33 -12.5 -59t-31.5 -45t-46.5 -29t-57.5 -10t-57.5 10t-46.5 29t-31.5 45t-12.5 59h53z" />
    <glyph glyph-name="edotaccent" unicode="&#x117;" horiz-adv-x="537" 
d="M44 243q0 56 17.5 103t49 80.5t75 52.5t95.5 19q49 0 89.5 -18t69.5 -50.5t45 -78t16 -99.5v-14.5t-1 -14.5h-376q3 -39 17 -71t38 -55t56 -35.5t70 -12.5q33 0 70.5 10t76.5 31l25 -55q-48 -24 -93.5 -35.5t-86.5 -11.5q-56 0 -102 18.5t-80 52.5t-52.5 81t-18.5 103z
M281 437q-66 0 -108.5 -44.5t-48.5 -118.5h300q-1 36 -12 66t-30 51.5t-44.5 33.5t-56.5 12zM229 634q0 23 14.5 37.5t37.5 14.5t37.5 -14.5t14.5 -37.5t-14.5 -37.5t-37.5 -14.5t-37.5 14.5t-14.5 37.5z" />
    <glyph glyph-name="eogonek" unicode="&#x119;" horiz-adv-x="537" 
d="M44 243q0 56 17.5 103t49 80.5t75 52.5t95.5 19q49 0 89.5 -18t69.5 -50.5t45 -78t16 -99.5v-14.5t-1 -14.5h-376q3 -39 17 -71t38 -55t56 -35.5t70 -12.5q33 0 70.5 10t76.5 31l25 -55q-102 -86 -102 -154q0 -26 15.5 -40.5t35.5 -14.5q17 0 39 8l12 -45
q-36 -14 -68 -14q-40 0 -67.5 24.5t-27.5 67.5q0 35 18.5 68t52.5 65q-47 -12 -88 -12q-56 0 -102 18.5t-80 52.5t-52.5 81t-18.5 103zM281 437q-66 0 -108.5 -44.5t-48.5 -118.5h300q-1 36 -12 66t-30 51.5t-44.5 33.5t-56.5 12z" />
    <glyph glyph-name="gcircumflex" unicode="&#x11d;" 
d="M505 -9q0 -46 -18 -85t-50 -67t-76 -43.5t-96 -15.5q-43 0 -91.5 10.5t-100.5 32.5l24 60q45 -20 86.5 -29.5t75.5 -9.5q36 0 66.5 10.5t52.5 29.5t34.5 45.5t12.5 58.5v88q-26 -42 -67.5 -65t-93.5 -23q-48 0 -88.5 19t-69.5 52.5t-45.5 80.5t-16.5 103t16.5 103
t45.5 80.5t69.5 52.5t88.5 19q54 0 97.5 -24t69.5 -69l10 81h64v-495zM126 243q0 -42 11.5 -77t32.5 -60t49.5 -39t63.5 -14q31 0 57.5 11t45.5 31t29.5 48t10.5 61v78q0 33 -10.5 60.5t-29.5 48t-45.5 31.5t-57.5 11q-35 0 -63.5 -14t-49.5 -39.5t-32.5 -60t-11.5 -76.5z
M267 710h50l123 -119l-35 -38l-113 100l-113 -100l-35 38z" />
    <glyph glyph-name="gbreve" unicode="&#x11f;" 
d="M505 -9q0 -46 -18 -85t-50 -67t-76 -43.5t-96 -15.5q-43 0 -91.5 10.5t-100.5 32.5l24 60q45 -20 86.5 -29.5t75.5 -9.5q36 0 66.5 10.5t52.5 29.5t34.5 45.5t12.5 58.5v88q-26 -42 -67.5 -65t-93.5 -23q-48 0 -88.5 19t-69.5 52.5t-45.5 80.5t-16.5 103t16.5 103
t45.5 80.5t69.5 52.5t88.5 19q54 0 97.5 -24t69.5 -69l10 81h64v-495zM126 243q0 -42 11.5 -77t32.5 -60t49.5 -39t63.5 -14q31 0 57.5 11t45.5 31t29.5 48t10.5 61v78q0 33 -10.5 60.5t-29.5 48t-45.5 31.5t-57.5 11q-35 0 -63.5 -14t-49.5 -39.5t-32.5 -60t-11.5 -76.5z
M193 694q3 -39 29 -63t66 -24t66 24t29 63h53q-1 -33 -12.5 -59t-31.5 -45t-46.5 -29t-57.5 -10t-57.5 10t-46.5 29t-31.5 45t-12.5 59h53z" />
    <glyph glyph-name="gdotaccent" unicode="&#x121;" 
d="M505 -9q0 -46 -18 -85t-50 -67t-76 -43.5t-96 -15.5q-43 0 -91.5 10.5t-100.5 32.5l24 60q45 -20 86.5 -29.5t75.5 -9.5q36 0 66.5 10.5t52.5 29.5t34.5 45.5t12.5 58.5v88q-26 -42 -67.5 -65t-93.5 -23q-48 0 -88.5 19t-69.5 52.5t-45.5 80.5t-16.5 103t16.5 103
t45.5 80.5t69.5 52.5t88.5 19q54 0 97.5 -24t69.5 -69l10 81h64v-495zM126 243q0 -42 11.5 -77t32.5 -60t49.5 -39t63.5 -14q31 0 57.5 11t45.5 31t29.5 48t10.5 61v78q0 33 -10.5 60.5t-29.5 48t-45.5 31.5t-57.5 11q-35 0 -63.5 -14t-49.5 -39.5t-32.5 -60t-11.5 -76.5z
M240 634q0 23 14.5 37.5t37.5 14.5t37.5 -14.5t14.5 -37.5t-14.5 -37.5t-37.5 -14.5t-37.5 14.5t-14.5 37.5z" />
    <glyph glyph-name="gcommaaccent" unicode="&#x123;" 
d="M341 594q0 -22 -13.5 -35.5t-35.5 -13.5q-24 0 -38.5 18t-14.5 48q0 47 24.5 87.5t70.5 69.5l23 -31q-56 -43 -61 -100q19 1 32 -11.5t13 -31.5zM505 -9q0 -46 -18 -85t-50 -67t-76 -43.5t-96 -15.5q-43 0 -91.5 10.5t-100.5 32.5l24 60q45 -20 86.5 -29.5t75.5 -9.5
q36 0 66.5 10.5t52.5 29.5t34.5 45.5t12.5 58.5v88q-26 -42 -67.5 -65t-93.5 -23q-48 0 -88.5 19t-69.5 52.5t-45.5 80.5t-16.5 103t16.5 103t45.5 80.5t69.5 52.5t88.5 19q54 0 97.5 -24t69.5 -69l10 81h64v-495zM126 243q0 -42 11.5 -77t32.5 -60t49.5 -39t63.5 -14
q31 0 57.5 11t45.5 31t29.5 48t10.5 61v78q0 33 -10.5 60.5t-29.5 48t-45.5 31.5t-57.5 11q-35 0 -63.5 -14t-49.5 -39.5t-32.5 -60t-11.5 -76.5z" />
    <glyph glyph-name="hcircumflex" unicode="&#x125;" 
d="M79 704h79v-303q25 46 69.5 71.5t100.5 25.5q40 0 74 -13t59 -37t38.5 -57.5t13.5 -73.5v-317h-80v305q0 56 -35.5 91t-92.5 35q-32 0 -58.5 -11.5t-46.5 -32t-31 -49.5t-11 -64v-274h-79v704zM94 928h50l123 -119l-35 -38l-113 100l-113 -100l-35 38z" />
    <glyph glyph-name="hbar" unicode="&#x127;" 
d="M79 569h-69v56h69v79h79v-79h175v-56h-175v-168q25 46 69.5 71.5t100.5 25.5q40 0 74 -13t59 -37t38.5 -57.5t13.5 -73.5v-317h-80v305q0 56 -35.5 91t-92.5 35q-32 0 -58.5 -11.5t-46.5 -32t-31 -49.5t-11 -64v-274h-79v569z" />
    <glyph glyph-name="dotlessi" unicode="&#x131;" horiz-adv-x="237" 
d="M79 486h79v-486h-79v486z" />
    <glyph glyph-name="igrave" unicode="&#xec;" horiz-adv-x="237" 
d="M79 486h79v-486h-79v486zM188 596l-31 -45l-175 111l36 52z" />
    <glyph glyph-name="iacute" unicode="&#xed;" horiz-adv-x="237" 
d="M79 486h79v-486h-79v486zM87 551l-31 45l170 118l36 -52z" />
    <glyph glyph-name="icircumflex" unicode="&#xee;" horiz-adv-x="237" 
d="M79 486h79v-486h-79v486zM94 710h50l123 -119l-35 -38l-113 100l-113 -100l-35 38z" />
    <glyph glyph-name="itilde" unicode="&#x129;" horiz-adv-x="237" 
d="M79 486h79v-486h-79v486zM55 681q17 0 34 -6t32.5 -12.5t29.5 -12.5t26 -6q31 0 42 37l51 -15q-8 -35 -31 -57t-56 -22q-17 0 -34 6t-32.5 12.5t-29.5 12.5t-26 6q-31 0 -42 -37l-51 16q8 35 31 56.5t56 21.5z" />
    <glyph glyph-name="idieresis" unicode="&#xef;" horiz-adv-x="237" 
d="M79 486h79v-486h-79v486zM-35 634q0 22 13.5 35.5t35.5 13.5t35.5 -13.5t13.5 -35.5t-13.5 -35.5t-35.5 -13.5t-35.5 13.5t-13.5 35.5zM175 634q0 22 13.5 35.5t35.5 13.5t35.5 -13.5t13.5 -35.5t-13.5 -35.5t-35.5 -13.5t-35.5 13.5t-13.5 35.5z" />
    <glyph glyph-name="imacron" unicode="&#x12b;" horiz-adv-x="237" 
d="M79 486h79v-486h-79v486zM-29 663h296v-57h-296v57z" />
    <glyph glyph-name="ibreve" unicode="&#x12d;" horiz-adv-x="237" 
d="M79 486h79v-486h-79v486zM20 694q3 -39 29 -63t66 -24t66 24t29 63h53q-1 -33 -12.5 -59t-31.5 -45t-46.5 -29t-57.5 -10t-57.5 10t-46.5 29t-31.5 45t-12.5 59h53z" />
    <glyph glyph-name="iogonek" unicode="&#x12f;" horiz-adv-x="237" 
d="M158 0q-42 -33 -66.5 -64.5t-24.5 -62.5q0 -22 14.5 -34.5t35.5 -12.5q20 0 41 8l11 -46q-33 -13 -69 -13q-41 0 -67.5 22.5t-26.5 62.5q0 36 24 72t67 68h-18v486h79v-486zM65 634q0 23 15 38t39 15q23 0 38 -15t15 -38t-15 -38t-38 -15q-24 0 -39 15t-15 38z" />
    <glyph glyph-name="ij" unicode="&#x133;" horiz-adv-x="482" 
d="M79 486h79v-486h-79v486zM65 634q0 23 15 38t39 15q23 0 38 -15t15 -38t-15 -38t-38 -15q-24 0 -39 15t-15 38zM403 -78q0 -32 -10.5 -58t-30 -44.5t-46 -29t-59.5 -10.5q-48 0 -97 13l11 62q19 -5 36 -7.5t33 -2.5q38 0 61 23t23 61v557h79v-564zM310 634q0 23 15 38
t39 15q23 0 38 -15t15 -38t-15 -38t-38 -15q-24 0 -39 15t-15 38z" />
    <glyph glyph-name="jcircumflex" unicode="&#x135;" horiz-adv-x="245" 
d="M166 -78q0 -32 -10.5 -58t-30 -44.5t-46 -29t-59.5 -10.5q-48 0 -97 13l11 62q19 -5 36 -7.5t33 -2.5q38 0 61 23t23 61v557h79v-564zM102 710h50l123 -119l-35 -38l-113 100l-113 -100l-35 38z" />
    <glyph glyph-name="kcommaaccent" unicode="&#x137;" horiz-adv-x="509" 
d="M79 704h77v-459l230 241h93l-219 -227l227 -259h-94l-185 211l-52 -52v-159h-77v704zM206 -109q0 22 13.5 35.5t35.5 13.5q24 0 38.5 -17.5t14.5 -47.5q0 -48 -24.5 -88.5t-70.5 -68.5l-23 31q56 43 61 99q-19 -1 -32 11.5t-13 31.5z" />
    <glyph glyph-name="kgreenlandic" unicode="&#x138;" horiz-adv-x="509" 
d="M79 486h77v-241l230 241h93l-219 -227l227 -259h-94l-185 211l-52 -52v-159h-77v486z" />
    <glyph glyph-name="lacute" unicode="&#x13a;" horiz-adv-x="285" 
d="M158 112q0 -27 16 -43t43 -16q11 0 23 2t25 5l10 -63q-41 -9 -75 -9q-57 0 -89 31.5t-32 85.5v599h79v-592zM87 769l-31 45l170 118l36 -52z" />
    <glyph glyph-name="lcaron" unicode="&#x13e;" horiz-adv-x="279" 
d="M279 545l-53 18l63 170l60 -20zM158 112q0 -27 16 -43t43 -16q11 0 23 2t25 5l10 -63q-41 -9 -75 -9q-57 0 -89 31.5t-32 85.5v599h79v-592z" />
    <glyph glyph-name="lcommaaccent" unicode="&#x13c;" horiz-adv-x="285" 
d="M158 112q0 -27 16 -43t43 -16q11 0 23 2t25 5l10 -63q-41 -9 -75 -9q-57 0 -89 31.5t-32 85.5v599h79v-592zM120 -109q0 22 13.5 35.5t35.5 13.5q24 0 38.5 -17.5t14.5 -47.5q0 -48 -24.5 -88.5t-70.5 -68.5l-23 31q56 43 61 99q-19 -1 -32 11.5t-13 31.5z" />
    <glyph glyph-name="lslash" unicode="&#x142;" horiz-adv-x="317" 
d="M87 368v336h79v-296l99 49l27 -50l-126 -63v-232q0 -27 16 -43t43 -16q11 0 23 2t25 5l10 -63q-41 -9 -75 -9q-55 0 -88 31.5t-33 85.5v199l-83 -41l-27 50z" />
    <glyph glyph-name="ldot" unicode="&#x140;" horiz-adv-x="346" 
d="M158 112q0 -27 16 -43t43 -16q11 0 23 2t25 5l10 -63q-41 -9 -75 -9q-57 0 -89 31.5t-32 85.5v599h79v-592zM240 344q0 23 14.5 37.5t37.5 14.5t37.5 -14.5t14.5 -37.5t-14.5 -37.5t-37.5 -14.5t-37.5 14.5t-14.5 37.5z" />
    <glyph glyph-name="nacute" unicode="&#x144;" 
d="M79 486h64l10 -89q25 48 71 74.5t104 26.5q40 0 74 -13t59 -37t38.5 -57.5t13.5 -73.5v-317h-80v305q0 56 -35.5 91t-92.5 35q-32 0 -58.5 -11.5t-46.5 -32t-31 -49.5t-11 -64v-274h-79v486zM264 551l-31 45l170 118l36 -52z" />
    <glyph glyph-name="ncaron" unicode="&#x148;" 
d="M79 486h64l10 -89q25 48 71 74.5t104 26.5q40 0 74 -13t59 -37t38.5 -57.5t13.5 -73.5v-317h-80v305q0 56 -35.5 91t-92.5 35q-32 0 -58.5 -11.5t-46.5 -32t-31 -49.5t-11 -64v-274h-79v486zM321 559h-50l-123 118l35 39l113 -101l113 101l35 -39z" />
    <glyph glyph-name="ntilde" unicode="&#xf1;" 
d="M79 486h64l10 -89q25 48 71 74.5t104 26.5q40 0 74 -13t59 -37t38.5 -57.5t13.5 -73.5v-317h-80v305q0 56 -35.5 91t-92.5 35q-32 0 -58.5 -11.5t-46.5 -32t-31 -49.5t-11 -64v-274h-79v486zM228 681q17 0 34 -6t32.5 -12.5t29.5 -12.5t26 -6q31 0 42 37l51 -15
q-8 -35 -31 -57t-56 -22q-17 0 -34 6t-32.5 12.5t-29.5 12.5t-26 6q-31 0 -42 -37l-51 16q8 35 31 56.5t56 21.5z" />
    <glyph glyph-name="ncommaaccent" unicode="&#x146;" 
d="M79 486h64l10 -89q25 48 71 74.5t104 26.5q40 0 74 -13t59 -37t38.5 -57.5t13.5 -73.5v-317h-80v305q0 56 -35.5 91t-92.5 35q-32 0 -58.5 -11.5t-46.5 -32t-31 -49.5t-11 -64v-274h-79v486zM247 -109q0 22 13.5 35.5t35.5 13.5q24 0 38.5 -17.5t14.5 -47.5
q0 -48 -24.5 -88.5t-70.5 -68.5l-23 31q56 43 61 99q-19 -1 -32 11.5t-13 31.5z" />
    <glyph glyph-name="napostrophe" unicode="&#x149;" horiz-adv-x="734" 
d="M230 486h64l10 -89q25 48 71 74.5t104 26.5q40 0 74 -13t59 -37t38.5 -57.5t13.5 -73.5v-317h-80v305q0 56 -35.5 91t-92.5 35q-32 0 -58.5 -11.5t-46.5 -32t-31 -49.5t-11 -64v-274h-79v486zM55 642q0 22 13.5 35.5t35.5 13.5q24 0 38.5 -17.5t14.5 -47.5
q0 -48 -24.5 -88.5t-70.5 -68.5l-23 31q56 43 61 99q-19 -1 -32 11.5t-13 31.5z" />
    <glyph glyph-name="eng" unicode="&#x14b;" 
d="M79 486h64l10 -89q25 48 70.5 74.5t104.5 26.5q40 0 74 -13.5t59 -37.5t38.5 -58t13.5 -74v-393q0 -32 -10.5 -58t-30 -44.5t-46.5 -29t-59 -10.5q-49 0 -98 13l11 62q19 -5 36 -7.5t33 -2.5q38 0 61 23t23 61v374q0 28 -9.5 52t-26.5 40.5t-40.5 26t-51.5 9.5
q-32 0 -59 -11.5t-46.5 -31.5t-30.5 -48.5t-11 -61.5v-278h-79v486z" />
    <glyph glyph-name="ograve" unicode="&#xf2;" 
d="M44 243q0 56 18.5 103t51.5 80.5t78.5 52.5t99.5 19t99.5 -19t78 -52.5t51 -80.5t18.5 -103t-18.5 -103t-51 -81t-78 -52.5t-99.5 -18.5t-99.5 18.5t-78.5 52.5t-51.5 81t-18.5 103zM126 243q0 -42 12 -77.5t34 -60.5t52.5 -39t67.5 -14q36 0 66.5 14t52.5 39t34.5 60.5
t12.5 77.5t-12.5 77t-34.5 60.5t-52.5 39.5t-66.5 14q-37 0 -67.5 -14t-52.5 -39.5t-34 -60.5t-12 -77zM361 596l-31 -45l-175 111l36 52z" />
    <glyph glyph-name="oacute" unicode="&#xf3;" 
d="M44 243q0 56 18.5 103t51.5 80.5t78.5 52.5t99.5 19t99.5 -19t78 -52.5t51 -80.5t18.5 -103t-18.5 -103t-51 -81t-78 -52.5t-99.5 -18.5t-99.5 18.5t-78.5 52.5t-51.5 81t-18.5 103zM126 243q0 -42 12 -77.5t34 -60.5t52.5 -39t67.5 -14q36 0 66.5 14t52.5 39t34.5 60.5
t12.5 77.5t-12.5 77t-34.5 60.5t-52.5 39.5t-66.5 14q-37 0 -67.5 -14t-52.5 -39.5t-34 -60.5t-12 -77zM260 551l-31 45l170 118l36 -52z" />
    <glyph glyph-name="ocircumflex" unicode="&#xf4;" 
d="M44 243q0 56 18.5 103t51.5 80.5t78.5 52.5t99.5 19t99.5 -19t78 -52.5t51 -80.5t18.5 -103t-18.5 -103t-51 -81t-78 -52.5t-99.5 -18.5t-99.5 18.5t-78.5 52.5t-51.5 81t-18.5 103zM126 243q0 -42 12 -77.5t34 -60.5t52.5 -39t67.5 -14q36 0 66.5 14t52.5 39t34.5 60.5
t12.5 77.5t-12.5 77t-34.5 60.5t-52.5 39.5t-66.5 14q-37 0 -67.5 -14t-52.5 -39.5t-34 -60.5t-12 -77zM267 710h50l123 -119l-35 -38l-113 100l-113 -100l-35 38z" />
    <glyph glyph-name="otilde" unicode="&#xf5;" 
d="M44 243q0 56 18.5 103t51.5 80.5t78.5 52.5t99.5 19t99.5 -19t78 -52.5t51 -80.5t18.5 -103t-18.5 -103t-51 -81t-78 -52.5t-99.5 -18.5t-99.5 18.5t-78.5 52.5t-51.5 81t-18.5 103zM126 243q0 -42 12 -77.5t34 -60.5t52.5 -39t67.5 -14q36 0 66.5 14t52.5 39t34.5 60.5
t12.5 77.5t-12.5 77t-34.5 60.5t-52.5 39.5t-66.5 14q-37 0 -67.5 -14t-52.5 -39.5t-34 -60.5t-12 -77zM228 681q17 0 34 -6t32.5 -12.5t29.5 -12.5t26 -6q31 0 42 37l51 -15q-8 -35 -31 -57t-56 -22q-17 0 -34 6t-32.5 12.5t-29.5 12.5t-26 6q-31 0 -42 -37l-51 16
q8 35 31 56.5t56 21.5z" />
    <glyph glyph-name="odieresis" unicode="&#xf6;" 
d="M44 243q0 56 18.5 103t51.5 80.5t78.5 52.5t99.5 19t99.5 -19t78 -52.5t51 -80.5t18.5 -103t-18.5 -103t-51 -81t-78 -52.5t-99.5 -18.5t-99.5 18.5t-78.5 52.5t-51.5 81t-18.5 103zM126 243q0 -42 12 -77.5t34 -60.5t52.5 -39t67.5 -14q36 0 66.5 14t52.5 39t34.5 60.5
t12.5 77.5t-12.5 77t-34.5 60.5t-52.5 39.5t-66.5 14q-37 0 -67.5 -14t-52.5 -39.5t-34 -60.5t-12 -77zM138 634q0 22 13.5 35.5t35.5 13.5t35.5 -13.5t13.5 -35.5t-13.5 -35.5t-35.5 -13.5t-35.5 13.5t-13.5 35.5zM348 634q0 22 13.5 35.5t35.5 13.5t35.5 -13.5t13.5 -35.5
t-13.5 -35.5t-35.5 -13.5t-35.5 13.5t-13.5 35.5z" />
    <glyph glyph-name="omacron" unicode="&#x14d;" 
d="M44 243q0 56 18.5 103t51.5 80.5t78.5 52.5t99.5 19t99.5 -19t78 -52.5t51 -80.5t18.5 -103t-18.5 -103t-51 -81t-78 -52.5t-99.5 -18.5t-99.5 18.5t-78.5 52.5t-51.5 81t-18.5 103zM126 243q0 -42 12 -77.5t34 -60.5t52.5 -39t67.5 -14q36 0 66.5 14t52.5 39t34.5 60.5
t12.5 77.5t-12.5 77t-34.5 60.5t-52.5 39.5t-66.5 14q-37 0 -67.5 -14t-52.5 -39.5t-34 -60.5t-12 -77zM144 663h296v-57h-296v57z" />
    <glyph glyph-name="obreve" unicode="&#x14f;" 
d="M44 243q0 56 18.5 103t51.5 80.5t78.5 52.5t99.5 19t99.5 -19t78 -52.5t51 -80.5t18.5 -103t-18.5 -103t-51 -81t-78 -52.5t-99.5 -18.5t-99.5 18.5t-78.5 52.5t-51.5 81t-18.5 103zM126 243q0 -42 12 -77.5t34 -60.5t52.5 -39t67.5 -14q36 0 66.5 14t52.5 39t34.5 60.5
t12.5 77.5t-12.5 77t-34.5 60.5t-52.5 39.5t-66.5 14q-37 0 -67.5 -14t-52.5 -39.5t-34 -60.5t-12 -77zM193 694q3 -39 29 -63t66 -24t66 24t29 63h53q-1 -33 -12.5 -59t-31.5 -45t-46.5 -29t-57.5 -10t-57.5 10t-46.5 29t-31.5 45t-12.5 59h53z" />
    <glyph glyph-name="ohungarumlaut" unicode="&#x151;" 
d="M44 243q0 56 18.5 103t51.5 80.5t78.5 52.5t99.5 19t99.5 -19t78 -52.5t51 -80.5t18.5 -103t-18.5 -103t-51 -81t-78 -52.5t-99.5 -18.5t-99.5 18.5t-78.5 52.5t-51.5 81t-18.5 103zM126 243q0 -42 12 -77.5t34 -60.5t52.5 -39t67.5 -14q36 0 66.5 14t52.5 39t34.5 60.5
t12.5 77.5t-12.5 77t-34.5 60.5t-52.5 39.5t-66.5 14q-37 0 -67.5 -14t-52.5 -39.5t-34 -60.5t-12 -77zM378 548l-42 41l144 149l47 -47zM183 548l-41 41l143 149l47 -47z" />
    <glyph glyph-name="oslash" unicode="&#xf8;" 
d="M44 243q0 56 18.5 103t51.5 80.5t78.5 52.5t99.5 19q38 0 71.5 -10.5t61.5 -29.5l36 49l36 -28l-35 -46q36 -34 56.5 -82t20.5 -108q0 -56 -18.5 -103t-51 -81t-78 -52.5t-99.5 -18.5q-78 0 -133 40l-37 -49l-36 27l34 46q-36 34 -56 82.5t-20 108.5zM120 243
q0 -82 45 -132l220 294q-20 15 -43.5 23.5t-49.5 8.5q-38 0 -69.5 -14.5t-54.5 -40t-35.5 -61t-12.5 -78.5zM463 243q0 41 -11.5 74t-32.5 57l-221 -293q38 -32 94 -32q37 0 68.5 14.5t54.5 40t35.5 61t12.5 78.5z" />
    <glyph glyph-name="oslashacute" unicode="&#x1ff;" 
d="M44 243q0 56 18.5 103t51.5 80.5t78.5 52.5t99.5 19q38 0 71.5 -10.5t61.5 -29.5l36 49l36 -28l-35 -46q36 -34 56.5 -82t20.5 -108q0 -56 -18.5 -103t-51 -81t-78 -52.5t-99.5 -18.5q-78 0 -133 40l-37 -49l-36 27l34 46q-36 34 -56 82.5t-20 108.5zM120 243
q0 -82 45 -132l220 294q-20 15 -43.5 23.5t-49.5 8.5q-38 0 -69.5 -14.5t-54.5 -40t-35.5 -61t-12.5 -78.5zM463 243q0 41 -11.5 74t-32.5 57l-221 -293q38 -32 94 -32q37 0 68.5 14.5t54.5 40t35.5 61t12.5 78.5zM260 551l-31 45l170 118l36 -52z" />
    <glyph glyph-name="oe" unicode="&#x153;" horiz-adv-x="952" 
d="M44 243q0 56 18.5 103t51.5 80.5t78.5 52.5t99.5 19q72 0 126 -36.5t80 -98.5q26 62 77.5 98.5t119.5 36.5q49 0 89.5 -18t69.5 -50.5t45.5 -78t16.5 -99.5q0 -8 -0.5 -14.5t-0.5 -14.5h-376q2 -39 16.5 -71t38 -55t56 -35.5t70.5 -12.5q33 0 70 10t76 31l26 -55
q-48 -24 -94 -35.5t-87 -11.5q-73 0 -129 37t-83 100q-26 -63 -80.5 -100t-126.5 -37q-54 0 -99.5 18.5t-78.5 52.5t-51.5 81t-18.5 103zM126 243q0 -42 12 -77.5t34 -60.5t52.5 -39t67.5 -14q36 0 66.5 14t52.5 39t34.5 60.5t12.5 77.5t-12.5 77t-34.5 60.5t-52.5 39.5
t-66.5 14q-37 0 -67.5 -14t-52.5 -39.5t-34 -60.5t-12 -77zM695 437q-32 0 -59.5 -12t-48 -33.5t-33 -51.5t-15.5 -66h300q-1 36 -12 66t-30 51.5t-45 33.5t-57 12z" />
    <glyph glyph-name="thorn" unicode="&#xfe;" 
d="M79 704h79v-295q26 43 67.5 66t94.5 23q48 0 88 -19t69 -52.5t45.5 -80.5t16.5 -103t-16.5 -103t-45.5 -80.5t-69 -52.5t-88 -19q-53 0 -94.5 23t-67.5 65v-284h-79v912zM458 243q0 42 -11.5 76.5t-32.5 60t-50 39.5t-63 14q-32 0 -58.5 -11t-45.5 -31.5t-29.5 -48
t-10.5 -60.5v-78q0 -33 10.5 -61t29.5 -48t45.5 -31t58.5 -11q34 0 63 14t50 39t32.5 60t11.5 77z" />
    <glyph glyph-name="racute" unicode="&#x155;" horiz-adv-x="383" 
d="M79 486h64l10 -92q18 47 58 73.5t93 26.5q27 0 61 -8l-9 -65q-14 3 -29 5t-29 2q-63 0 -101.5 -45.5t-38.5 -119.5v-263h-79v486zM177 551l-31 45l170 118l36 -52z" />
    <glyph glyph-name="rcaron" unicode="&#x159;" horiz-adv-x="383" 
d="M79 486h64l10 -92q18 47 58 73.5t93 26.5q27 0 61 -8l-9 -65q-14 3 -29 5t-29 2q-63 0 -101.5 -45.5t-38.5 -119.5v-263h-79v486zM234 559h-50l-123 118l35 39l113 -101l113 101l35 -39z" />
    <glyph glyph-name="rcommaaccent" unicode="&#x157;" horiz-adv-x="383" 
d="M79 486h64l10 -92q18 47 58 73.5t93 26.5q27 0 61 -8l-9 -65q-14 3 -29 5t-29 2q-63 0 -101.5 -45.5t-38.5 -119.5v-263h-79v486zM70 -109q0 22 13.5 35.5t35.5 13.5q24 0 38.5 -17.5t14.5 -47.5q0 -48 -24.5 -88.5t-70.5 -68.5l-23 31q56 43 61 99q-19 -1 -32 11.5
t-13 31.5z" />
    <glyph glyph-name="sacute" unicode="&#x15b;" horiz-adv-x="449" 
d="M48 362q0 30 13 55t36.5 43t56 28t71.5 10q38 0 79.5 -8.5t84.5 -25.5l-18 -59q-76 32 -140 32q-48 0 -76 -20.5t-28 -54.5q0 -30 20.5 -46t51.5 -26.5t67 -19.5t67 -25t51.5 -43.5t20.5 -73.5q0 -31 -13 -56.5t-37 -44t-57 -29t-73 -10.5q-86 0 -181 37l19 59
q85 -35 156 -35q49 0 78.5 22t29.5 57q0 31 -20.5 47.5t-51.5 27.5t-67.5 20t-67.5 25t-51.5 42t-20.5 72zM193 551l-31 45l170 118l36 -52z" />
    <glyph glyph-name="scircumflex" unicode="&#x15d;" horiz-adv-x="449" 
d="M48 362q0 30 13 55t36.5 43t56 28t71.5 10q38 0 79.5 -8.5t84.5 -25.5l-18 -59q-76 32 -140 32q-48 0 -76 -20.5t-28 -54.5q0 -30 20.5 -46t51.5 -26.5t67 -19.5t67 -25t51.5 -43.5t20.5 -73.5q0 -31 -13 -56.5t-37 -44t-57 -29t-73 -10.5q-86 0 -181 37l19 59
q85 -35 156 -35q49 0 78.5 22t29.5 57q0 31 -20.5 47.5t-51.5 27.5t-67.5 20t-67.5 25t-51.5 42t-20.5 72zM200 710h50l123 -119l-35 -38l-113 100l-113 -100l-35 38z" />
    <glyph glyph-name="scaron" unicode="&#x161;" horiz-adv-x="449" 
d="M48 362q0 30 13 55t36.5 43t56 28t71.5 10q38 0 79.5 -8.5t84.5 -25.5l-18 -59q-76 32 -140 32q-48 0 -76 -20.5t-28 -54.5q0 -30 20.5 -46t51.5 -26.5t67 -19.5t67 -25t51.5 -43.5t20.5 -73.5q0 -31 -13 -56.5t-37 -44t-57 -29t-73 -10.5q-86 0 -181 37l19 59
q85 -35 156 -35q49 0 78.5 22t29.5 57q0 31 -20.5 47.5t-51.5 27.5t-67.5 20t-67.5 25t-51.5 42t-20.5 72zM250 559h-50l-123 118l35 39l113 -101l113 101l35 -39z" />
    <glyph glyph-name="scedilla" unicode="&#x15f;" horiz-adv-x="449" 
d="M48 362q0 30 13 55t36.5 43t56 28t71.5 10q38 0 79.5 -8.5t84.5 -25.5l-18 -59q-76 32 -140 32q-48 0 -76 -20.5t-28 -54.5q0 -30 20.5 -46t51.5 -26.5t67 -19.5t67 -25t51.5 -43.5t20.5 -73.5q0 -56 -40 -92t-106 -44l-8 -48q33 -5 53.5 -28t20.5 -54q0 -38 -31.5 -62.5
t-82.5 -24.5q-21 0 -45 4.5t-47 13.5l15 47q39 -14 70 -14q24 0 40 11.5t16 31.5t-17 31.5t-44 11.5h-11l14 77q-37 2 -76.5 10.5t-81.5 25.5l19 59q85 -35 156 -35q49 0 78.5 22t29.5 57q0 31 -20.5 47.5t-51.5 27.5t-67.5 20t-67.5 25t-51.5 42t-20.5 72z" />
    <glyph glyph-name="scommaaccent" unicode="&#x219;" horiz-adv-x="449" 
d="M48 362q0 30 13 55t36.5 43t56 28t71.5 10q38 0 79.5 -8.5t84.5 -25.5l-18 -59q-76 32 -140 32q-48 0 -76 -20.5t-28 -54.5q0 -30 20.5 -46t51.5 -26.5t67 -19.5t67 -25t51.5 -43.5t20.5 -73.5q0 -31 -13 -56.5t-37 -44t-57 -29t-73 -10.5q-86 0 -181 37l19 59
q85 -35 156 -35q49 0 78.5 22t29.5 57q0 31 -20.5 47.5t-51.5 27.5t-67.5 20t-67.5 25t-51.5 42t-20.5 72zM176 -109q0 22 13.5 35.5t35.5 13.5q24 0 38.5 -17.5t14.5 -47.5q0 -48 -24.5 -88.5t-70.5 -68.5l-23 31q56 43 61 99q-19 -1 -32 11.5t-13 31.5z" />
    <glyph glyph-name="germandbls" unicode="&#xdf;" horiz-adv-x="615" 
d="M308 357q0 34 13.5 57.5t29 45t29 43.5t13.5 53q0 42 -30.5 70t-81.5 28q-57 0 -91 -35t-34 -95v-524h-77v527q0 43 15 78t42 59.5t64.5 38t83.5 13.5q42 0 76.5 -12t59.5 -33t39 -50t14 -62q0 -37 -13.5 -62.5t-29 -46.5t-29 -41t-13.5 -46q0 -27 14 -44t35.5 -30.5
t46 -26t46 -29.5t35.5 -42t14 -63q0 -32 -13 -58t-35.5 -44t-54.5 -28t-69 -10q-35 0 -71 8t-75 25l22 59q64 -30 118 -30q45 0 73 21t28 57q0 26 -14.5 43t-36 30t-46.5 25.5t-46.5 29t-36 40.5t-14.5 61z" />
    <glyph glyph-name="tcaron" unicode="&#x165;" horiz-adv-x="401" 
d="M319 545l-53 18l63 170l60 -20zM206 486h153v-63h-153v-286q0 -38 23 -61t61 -23q16 0 33 2.5t36 7.5l11 -62q-49 -13 -97 -13q-33 0 -59.5 10.5t-46 29t-30 44.5t-10.5 58v293h-101v63h101v144h79v-144z" />
    <glyph glyph-name="tcommaaccent" unicode="&#x163;" horiz-adv-x="401" 
d="M206 486h153v-63h-153v-286q0 -38 23 -61t61 -23q16 0 33 2.5t36 7.5l11 -62q-49 -13 -97 -13q-33 0 -59.5 10.5t-46 29t-30 44.5t-10.5 58v293h-101v63h101v144h79v-144zM189 -109q0 22 13.5 35.5t35.5 13.5q24 0 38.5 -17.5t14.5 -47.5q0 -48 -24.5 -88.5t-70.5 -68.5
l-23 31q56 43 61 99q-19 -1 -32 11.5t-13 31.5z" />
    <glyph glyph-name="uni021B" unicode="&#x21b;" horiz-adv-x="401" 
d="M206 486h153v-63h-153v-286q0 -38 23 -61t61 -23q16 0 33 2.5t36 7.5l11 -62q-49 -13 -97 -13q-33 0 -59.5 10.5t-46 29t-30 44.5t-10.5 58v293h-101v63h101v144h79v-144zM189 -109q0 22 13.5 35.5t35.5 13.5q24 0 38.5 -17.5t14.5 -47.5q0 -48 -24.5 -88.5t-70.5 -68.5
l-23 31q56 43 61 99q-19 -1 -32 11.5t-13 31.5z" />
    <glyph glyph-name="tbar" unicode="&#x167;" horiz-adv-x="401" 
d="M206 486h153v-63h-153v-147h137v-57h-137v-83q0 -37 23 -60t61 -23q16 0 33 2.5t36 7.5l11 -62q-49 -13 -97 -13q-33 0 -59.5 10.5t-46 29t-30 44.5t-10.5 58v89h-93v57h93v147h-101v63h101v144h79v-144z" />
    <glyph glyph-name="ugrave" unicode="&#xf9;" 
d="M505 0h-64l-10 89q-26 -48 -72 -74.5t-104 -26.5q-41 0 -74.5 13t-58 37t-38 57.5t-13.5 73.5v317h79v-306q0 -56 36 -90.5t92 -34.5q31 0 58 11.5t47 32t31 49.5t11 64v274h80v-486zM361 596l-31 -45l-175 111l36 52z" />
    <glyph glyph-name="uacute" unicode="&#xfa;" 
d="M505 0h-64l-10 89q-26 -48 -72 -74.5t-104 -26.5q-41 0 -74.5 13t-58 37t-38 57.5t-13.5 73.5v317h79v-306q0 -56 36 -90.5t92 -34.5q31 0 58 11.5t47 32t31 49.5t11 64v274h80v-486zM260 551l-31 45l170 118l36 -52z" />
    <glyph glyph-name="ucircumflex" unicode="&#xfb;" 
d="M505 0h-64l-10 89q-26 -48 -72 -74.5t-104 -26.5q-41 0 -74.5 13t-58 37t-38 57.5t-13.5 73.5v317h79v-306q0 -56 36 -90.5t92 -34.5q31 0 58 11.5t47 32t31 49.5t11 64v274h80v-486zM267 710h50l123 -119l-35 -38l-113 100l-113 -100l-35 38z" />
    <glyph glyph-name="utilde" unicode="&#x169;" 
d="M505 0h-64l-10 89q-26 -48 -72 -74.5t-104 -26.5q-41 0 -74.5 13t-58 37t-38 57.5t-13.5 73.5v317h79v-306q0 -56 36 -90.5t92 -34.5q31 0 58 11.5t47 32t31 49.5t11 64v274h80v-486zM224 681q17 0 34 -6t32.5 -12.5t29.5 -12.5t26 -6q31 0 42 37l51 -15q-8 -35 -31 -57
t-56 -22q-17 0 -34 6t-32.5 12.5t-29.5 12.5t-26 6q-31 0 -42 -37l-51 16q8 35 31 56.5t56 21.5z" />
    <glyph glyph-name="udieresis" unicode="&#xfc;" 
d="M505 0h-64l-10 89q-26 -48 -72 -74.5t-104 -26.5q-41 0 -74.5 13t-58 37t-38 57.5t-13.5 73.5v317h79v-306q0 -56 36 -90.5t92 -34.5q31 0 58 11.5t47 32t31 49.5t11 64v274h80v-486zM138 634q0 22 13.5 35.5t35.5 13.5t35.5 -13.5t13.5 -35.5t-13.5 -35.5t-35.5 -13.5
t-35.5 13.5t-13.5 35.5zM348 634q0 22 13.5 35.5t35.5 13.5t35.5 -13.5t13.5 -35.5t-13.5 -35.5t-35.5 -13.5t-35.5 13.5t-13.5 35.5z" />
    <glyph glyph-name="umacron" unicode="&#x16b;" 
d="M505 0h-64l-10 89q-26 -48 -72 -74.5t-104 -26.5q-41 0 -74.5 13t-58 37t-38 57.5t-13.5 73.5v317h79v-306q0 -56 36 -90.5t92 -34.5q31 0 58 11.5t47 32t31 49.5t11 64v274h80v-486zM140 663h296v-57h-296v57z" />
    <glyph glyph-name="ubreve" unicode="&#x16d;" 
d="M505 0h-64l-10 89q-26 -48 -72 -74.5t-104 -26.5q-41 0 -74.5 13t-58 37t-38 57.5t-13.5 73.5v317h79v-306q0 -56 36 -90.5t92 -34.5q31 0 58 11.5t47 32t31 49.5t11 64v274h80v-486zM189 694q3 -39 29 -63t66 -24t66 24t29 63h53q-1 -33 -12.5 -59t-31.5 -45t-46.5 -29
t-57.5 -10t-57.5 10t-46.5 29t-31.5 45t-12.5 59h53z" />
    <glyph glyph-name="uring" unicode="&#x16f;" 
d="M505 0h-64l-10 89q-26 -48 -72 -74.5t-104 -26.5q-41 0 -74.5 13t-58 37t-38 57.5t-13.5 73.5v317h79v-306q0 -56 36 -90.5t92 -34.5q31 0 58 11.5t47 32t31 49.5t11 64v274h80v-486zM188 634q0 43 27.5 70t72.5 27t72.5 -27t27.5 -70t-27 -70t-72 -27t-73 27t-28 70z
M231 634q0 -26 16 -41.5t42 -15.5t41 15.5t15 41.5t-15.5 42t-41.5 16t-41.5 -16t-15.5 -42z" />
    <glyph glyph-name="uhungarumlaut" unicode="&#x171;" 
d="M505 0h-64l-10 89q-26 -48 -72 -74.5t-104 -26.5q-41 0 -74.5 13t-58 37t-38 57.5t-13.5 73.5v317h79v-306q0 -56 36 -90.5t92 -34.5q31 0 58 11.5t47 32t31 49.5t11 64v274h80v-486zM374 548l-42 41l144 149l47 -47zM179 548l-41 41l143 149l47 -47z" />
    <glyph glyph-name="uogonek" unicode="&#x173;" 
d="M505 0q-42 -33 -66.5 -64.5t-24.5 -62.5q0 -22 14.5 -34.5t35.5 -12.5q20 0 41 8l11 -46q-33 -13 -69 -13q-41 0 -67.5 22.5t-26.5 62.5q0 36 23 72t65 68l-10 89q-26 -48 -72 -74.5t-104 -26.5q-41 0 -74.5 13t-58 37t-38 57.5t-13.5 73.5v317h79v-306q0 -56 36 -90.5
t92 -34.5q31 0 58 11.5t47 32t31 49.5t11 64v274h80v-486z" />
    <glyph glyph-name="wgrave" unicode="&#x1e81;" horiz-adv-x="775" 
d="M585 0h-78l-119 392l-120 -392h-78l-159 486h80l120 -392l119 392h75l120 -392l119 392h81zM457 596l-31 -45l-175 111l36 52z" />
    <glyph glyph-name="wacute" unicode="&#x1e83;" horiz-adv-x="775" 
d="M585 0h-78l-119 392l-120 -392h-78l-159 486h80l120 -392l119 392h75l120 -392l119 392h81zM356 551l-31 45l170 118l36 -52z" />
    <glyph glyph-name="wcircumflex" unicode="&#x175;" horiz-adv-x="775" 
d="M585 0h-78l-119 392l-120 -392h-78l-159 486h80l120 -392l119 392h75l120 -392l119 392h81zM363 710h50l123 -119l-35 -38l-113 100l-113 -100l-35 38z" />
    <glyph glyph-name="wdieresis" unicode="&#x1e85;" horiz-adv-x="775" 
d="M585 0h-78l-119 392l-120 -392h-78l-159 486h80l120 -392l119 392h75l120 -392l119 392h81zM234 634q0 22 13.5 35.5t35.5 13.5t35.5 -13.5t13.5 -35.5t-13.5 -35.5t-35.5 -13.5t-35.5 13.5t-13.5 35.5zM444 634q0 22 13.5 35.5t35.5 13.5t35.5 -13.5t13.5 -35.5
t-13.5 -35.5t-35.5 -13.5t-35.5 13.5t-13.5 35.5z" />
    <glyph glyph-name="ygrave" unicode="&#x1ef3;" horiz-adv-x="519" 
d="M271 -73q-30 -76 -69.5 -111.5t-98.5 -35.5q-14 0 -32 2t-36 7l11 64q29 -8 49 -8q37 0 60.5 22.5t43.5 73.5l25 63l-201 482h83l156 -394l151 394h84zM329 596l-31 -45l-175 111l36 52z" />
    <glyph glyph-name="yacute" unicode="&#xfd;" horiz-adv-x="519" 
d="M271 -73q-30 -76 -69.5 -111.5t-98.5 -35.5q-14 0 -32 2t-36 7l11 64q29 -8 49 -8q37 0 60.5 22.5t43.5 73.5l25 63l-201 482h83l156 -394l151 394h84zM228 551l-31 45l170 118l36 -52z" />
    <glyph glyph-name="ycircumflex" unicode="&#x177;" horiz-adv-x="519" 
d="M271 -73q-30 -76 -69.5 -111.5t-98.5 -35.5q-14 0 -32 2t-36 7l11 64q29 -8 49 -8q37 0 60.5 22.5t43.5 73.5l25 63l-201 482h83l156 -394l151 394h84zM235 710h50l123 -119l-35 -38l-113 100l-113 -100l-35 38z" />
    <glyph glyph-name="ydieresis" unicode="&#xff;" horiz-adv-x="519" 
d="M271 -73q-30 -76 -69.5 -111.5t-98.5 -35.5q-14 0 -32 2t-36 7l11 64q29 -8 49 -8q37 0 60.5 22.5t43.5 73.5l25 63l-201 482h83l156 -394l151 394h84zM106 634q0 22 13.5 35.5t35.5 13.5t35.5 -13.5t13.5 -35.5t-13.5 -35.5t-35.5 -13.5t-35.5 13.5t-13.5 35.5zM316 634
q0 22 13.5 35.5t35.5 13.5t35.5 -13.5t13.5 -35.5t-13.5 -35.5t-35.5 -13.5t-35.5 13.5t-13.5 35.5z" />
    <glyph glyph-name="zacute" unicode="&#x17a;" horiz-adv-x="481" 
d="M44 45l280 378h-272v63h377v-46l-280 -378h288v-62h-393v45zM209 551l-31 45l170 118l36 -52z" />
    <glyph glyph-name="zcaron" unicode="&#x17e;" horiz-adv-x="481" 
d="M44 45l280 378h-272v63h377v-46l-280 -378h288v-62h-393v45zM266 559h-50l-123 118l35 39l113 -101l113 101l35 -39z" />
    <glyph glyph-name="zdotaccent" unicode="&#x17c;" horiz-adv-x="481" 
d="M44 45l280 378h-272v63h377v-46l-280 -378h288v-62h-393v45zM189 634q0 23 14.5 37.5t37.5 14.5t37.5 -14.5t14.5 -37.5t-14.5 -37.5t-37.5 -14.5t-37.5 14.5t-14.5 37.5z" />
    <glyph glyph-name="Delta" unicode="&#x394;" horiz-adv-x="671" 
d="M34 47l263 625h77l263 -625v-47h-603v47zM122 65h426l-213 513z" />
    <glyph glyph-name="Omega" unicode="&#x3a9;" horiz-adv-x="785" 
d="M52 65h179q-78 55 -119 131t-41 167q0 71 23.5 130t66.5 101.5t102 66t130 23.5t130 -23.5t101.5 -66t66 -101.5t23.5 -130q0 -91 -40.5 -167t-118.5 -131h178v-65h-280v55q86 56 132 131.5t46 170.5q0 57 -17.5 105t-49 82.5t-75 53.5t-96.5 19t-97 -19t-75.5 -53.5
t-49 -82.5t-17.5 -105q0 -95 46.5 -170.5t131.5 -131.5v-55h-280v65z" />
    <glyph glyph-name="mu" unicode="&#x3bc;" horiz-adv-x="607" 
d="M79 486h79v-306q0 -56 36 -90.5t92 -34.5q31 0 58 11.5t47 32t31 49.5t11 64v274h80v-389q0 -20 11.5 -32t31.5 -12q7 0 14.5 1t12.5 2l7 -63q-12 -2 -25.5 -3.5t-27.5 -1.5q-43 0 -69 24t-28 65q-26 -43 -67 -65.5t-89 -22.5q-42 0 -74 15t-52 44v-256h-79v694z" />
    <glyph glyph-name="pi" unicode="&#x3c0;" horiz-adv-x="647" 
d="M605 423h-100v-320q0 -23 13 -36.5t35 -13.5q8 0 16 1t16 3l9 -63q-30 -6 -57 -6q-49 0 -79 29t-30 79v327h-224v-423h-77v423h-101v63h579v-63z" />
    <glyph glyph-name="apple" unicode="&#xf8ff;" horiz-adv-x="591" 
d="M230 202v65h196v66h-196v195h261v-65h-196v-65h196v-196h-261zM165 594v-529h73v-65h-138v659h391v-65h-326z" />
  </font>
</defs>
</svg>
